ZillaSlab-BoldItalic.ufo
<glyph name="exclam" format="1">
  <advance width="256"/>
  <unicode hex="0021"/>
  <outline>
    <contour>
      <point x="242" y="650" type="line"/>
      <point x="169" y="232" type="line"/>
      <point x="77" y="232" type="line"/>
      <point x="91" y="650" type="line"/>
    </contour>
    <contour>
      <point x="30" y="0" type="line"/>
      <point x="178" y="0" type="line"/>
      <point x="193" y="145" type="line"/>
      <point x="45" y="145" type="line"/>
    </contour>
  </outline>
</glyph>
<glyph name="quotedbl" format="1">
  <advance width="379"/>
  <unicode hex="0022"/>
  <outline>
    <contour>
      <point x="164" y="377" type="line"/>
      <point x="203" y="650" type="line"/>
      <point x="77" y="650" type="line"/>
      <point x="57" y="377" type="line"/>
    </contour>
    <contour>
      <point x="340" y="377" type="line"/>
      <point x="379" y="650" type="line"/>
      <point x="253" y="650" type="line"/>
      <point x="233" y="377" type="line"/>
    </contour>
  </outline>
</glyph>
<glyph name="numbersign" format="1">
  <advance width="563"/>
  <unicode hex="0023"/>
  <outline>
    <contour>
      <point x="526" y="521" type="line"/>
      <point x="496" y="420" type="line"/>
      <point x="548" y="420" type="line"/>
      <point x="537" y="322" type="line"/>
      <point x="467" y="322" type="line"/>
      <point x="431" y="199" type="line"/>
      <point x="495" y="199" type="line"/>
      <point x="485" y="101" type="line"/>
      <point x="402" y="101" type="line"/>
      <point x="373" y="0" type="line"/>
      <point x="265" y="0" type="line"/>
      <point x="294" y="101" type="line"/>
      <point x="167" y="101" type="line"/>
      <point x="138" y="0" type="line"/>
      <point x="31" y="0" type="line"/>
      <point x="60" y="101" type="line"/>
      <point x="12" y="101" type="line"/>
      <point x="22" y="199" type="line"/>
      <point x="89" y="199" type="line"/>
      <point x="125" y="322" type="line"/>
      <point x="65" y="322" type="line"/>
      <point x="76" y="420" type="line"/>
      <point x="154" y="420" type="line"/>
      <point x="184" y="521" type="line"/>
      <point x="291" y="521" type="line"/>
      <point x="261" y="420" type="line"/>
      <point x="388" y="420" type="line"/>
      <point x="418" y="521" type="line"/>
    </contour>
    <contour>
      <point x="196" y="199" type="line"/>
      <point x="323" y="199" type="line"/>
      <point x="359" y="322" type="line"/>
      <point x="232" y="322" type="line"/>
    </contour>
  </outline>
</glyph>
<glyph name="quotesingle" format="1">
  <advance width="203"/>
  <unicode hex="0027"/>
  <outline>
    <contour>
      <point x="164" y="377" type="line"/>
      <point x="203" y="650" type="line"/>
      <point x="77" y="650" type="line"/>
      <point x="57" y="377" type="line"/>
    </contour>
  </outline>
</glyph>
<glyph name="asterisk" format="1">
  <advance width="406"/>
  <unicode hex="002A"/>
  <outline>
    <contour>
      <point x="404" y="532" type="line"/>
      <point x="295" y="479" type="line"/>
      <point x="393" y="426" type="line"/>
      <point x="338" y="351" type="line"/>
      <point x="254" y="413" type="line"/>
      <point x="250" y="309" type="line"/>
      <point x="163" y="309" type="line"/>
      <point x="181" y="414" type="line"/>
      <point x="83" y="351" type="line"/>
      <point x="44" y="426" type="line"/>
      <point x="153" y="479" type="line"/>
      <point x="55" y="532" type="line"/>
      <point x="109" y="607" type="line"/>
      <point x="196" y="542" type="line"/>
      <point x="199" y="650" type="line"/>
      <point x="286" y="650" type="line"/>
      <point x="267" y="543" type="line"/>
      <point x="366" y="607" type="line"/>
    </contour>
  </outline>
</glyph>
<glyph name="plus" format="1">
  <advance width="393"/>
  <unicode hex="002B"/>
  <outline>
    <contour>
      <point x="22" y="237" type="line"/>
      <point x="152" y="237" type="line"/>
      <point x="138" y="108" type="line"/>
      <point x="224" y="108" type="line"/>
      <point x="238" y="237" type="line"/>
      <point x="362" y="237" type="line"/>
      <point x="371" y="325" type="line"/>
      <point x="247" y="325" type="line"/>
      <point x="261" y="455" type="line"/>
      <point x="175" y="455" type="line"/>
      <point x="161" y="325" type="line"/>
      <point x="31" y="325" type="line"/>
    </contour>
  </outline>
</glyph>
<glyph name="hyphen" format="1">
  <advance width="315"/>
  <unicode hex="002D"/>
  <outline>
    <contour>
      <point x="42" y="288" type="line"/>
      <point x="276" y="288" type="line"/>
      <point x="265" y="180" type="line"/>
      <point x="31" y="180" type="line"/>
    </contour>
  </outline>
</glyph>
<glyph name="period" format="1">
  <advance width="224"/>
  <unicode hex="002E"/>
  <outline>
    <contour>
      <point x="10" y="0" type="line"/>
      <point x="160" y="0" type="line"/>
      <point x="177" y="163" type="line"/>
      <point x="27" y="163" type="line"/>
    </contour>
  </outline>
</glyph>
<glyph name="one" format="1">
  <advance width="394"/>
  <unicode hex="0031"/>
  <outline>
    <contour>
      <point x="25" y="114" type="line"/>
      <point x="133" y="114" type="line"/>
      <point x="164" y="407" type="line"/>
      <point x="56" y="407" type="line"/>
      <point x="68" y="521" type="line"/>
      <point x="307" y="521" type="line"/>
      <point x="295" y="407" type="line"/>
      <point x="264" y="114" type="line"/>
      <point x="362" y="114" type="line"/>
      <point x="350" y="0" type="line"/>
      <point x="13" y="0" type="line"/>
    </contour>
  </outline>
</glyph>
<glyph name="two" format="1">
  <advance width="525"/>
  <unicode hex="0032"/>
  <outline>
    <contour>
      <point x="154" y="328" type="line"/>
      <point x="177" y="402" type="line"/>
      <point x="198" y="413"/>
      <point x="235" y="417"/>
      <point x="258" y="417" type="curve" smooth="yes"/>
      <point x="302" y="417"/>
      <point x="338" y="403"/>
      <point x="338" y="363" type="curve" smooth="yes"/>
      <point x="338" y="280"/>
      <point x="185" y="208"/>
      <point x="15" y="106" type="curve"/>
      <point x="16" y="0" type="line"/>
      <point x="461" y="0" type="line"/>
      <point x="483" y="177" type="line"/>
      <point x="380" y="187" type="line"/>
      <point x="369" y="114" type="line"/>
      <point x="175" y="114" type="line"/>
      <point x="314" y="184"/>
      <point x="482" y="251"/>
      <point x="482" y="392" type="curve" smooth="yes"/>
      <point x="482" y="466"/>
      <point x="435" y="531"/>
      <point x="293" y="531" type="curve" smooth="yes"/>
      <point x="246" y="531"/>
      <point x="170" y="524"/>
      <point x="92" y="492" type="curve"/>
      <point x="54" y="339" type="line"/>
    </contour>
  </outline>
</glyph>
<glyph name="three" format="1">
  <advance width="523"/>
  <unicode hex="0033"/>
  <outline>
    <contour>
      <point x="155" y="328" type="line"/>
      <point x="178" y="402" type="line"/>
      <point x="199" y="413"/>
      <point x="238" y="417"/>
      <point x="261" y="417" type="curve" smooth="yes"/>
      <point x="316" y="417"/>
      <point x="338" y="393"/>
      <point x="338" y="350" type="curve" smooth="yes"/>
      <point x="338" y="337"/>
      <point x="336" y="253"/>
      <point x="200" y="253" type="curve"/>
      <point x="191" y="165" type="line"/>
      <point x="284" y="161"/>
      <point x="331" y="140"/>
      <point x="331" y="77" type="curve" smooth="yes"/>
      <point x="331" y="30"/>
      <point x="304" y="-27"/>
      <point x="224" y="-27" type="curve" smooth="yes"/>
      <point x="147" y="-27"/>
      <point x="116" y="25"/>
      <point x="121" y="71" type="curve"/>
      <point x="11" y="38" type="line"/>
      <point x="1" y="-72"/>
      <point x="82" y="-141"/>
      <point x="223" y="-141" type="curve" smooth="yes"/>
      <point x="365" y="-141"/>
      <point x="472" y="-70"/>
      <point x="472" y="68" type="curve" smooth="yes"/>
      <point x="472" y="147"/>
      <point x="437" y="197"/>
      <point x="355" y="215" type="curve"/>
      <point x="356" y="219" type="line"/>
      <point x="449" y="257"/>
      <point x="482" y="318"/>
      <point x="482" y="384" type="curve" smooth="yes"/>
      <point x="482" y="487"/>
      <point x="402" y="531"/>
      <point x="293" y="531" type="curve" smooth="yes"/>
      <point x="249" y="531"/>
      <point x="171" y="524"/>
      <point x="92" y="492" type="curve"/>
      <point x="55" y="339" type="line"/>
    </contour>
  </outline>
</glyph>
<glyph name="four" format="1">
  <advance width="558"/>
  <unicode hex="0034"/>
  <outline>
    <contour>
      <point x="400" y="-130" type="line"/>
      <point x="418" y="41" type="line"/>
      <point x="505" y="41" type="line"/>
      <point x="527" y="152" type="line"/>
      <point x="429" y="152" type="line"/>
      <point x="468" y="521" type="line"/>
      <point x="235" y="521" type="line"/>
      <point x="4" y="152" type="line"/>
      <point x="5" y="41" type="line"/>
      <point x="287" y="41" type="line"/>
      <point x="269" y="-130" type="line"/>
    </contour>
    <contour>
      <point x="298" y="152" type="line"/>
      <point x="126" y="152" type="line"/>
      <point x="279" y="407" type="line"/>
      <point x="325" y="407" type="line"/>
    </contour>
  </outline>
</glyph>
<glyph name="five" format="1">
  <advance width="511"/>
  <unicode hex="0035"/>
  <outline>
    <contour>
      <point x="467" y="86" type="curve" smooth="yes"/>
      <point x="467" y="244"/>
      <point x="356" y="281"/>
      <point x="219" y="281" type="curve" smooth="yes"/>
      <point x="207" y="281"/>
      <point x="194" y="281"/>
      <point x="182" y="280" type="curve"/>
      <point x="195" y="407" type="line"/>
      <point x="355" y="407" type="line"/>
      <point x="365" y="328" type="line"/>
      <point x="477" y="338" type="line"/>
      <point x="478" y="521" type="line"/>
      <point x="86" y="521" type="line"/>
      <point x="53" y="208" type="line"/>
      <point x="91" y="167" type="line"/>
      <point x="120" y="169"/>
      <point x="153" y="172"/>
      <point x="185" y="172" type="curve" smooth="yes"/>
      <point x="259" y="172"/>
      <point x="324" y="156"/>
      <point x="324" y="80" type="curve" smooth="yes"/>
      <point x="324" y="30"/>
      <point x="296" y="-27"/>
      <point x="214" y="-27" type="curve" smooth="yes"/>
      <point x="137" y="-27"/>
      <point x="109" y="25"/>
      <point x="114" y="71" type="curve"/>
      <point x="4" y="38" type="line"/>
      <point x="-6" y="-77"/>
      <point x="75" y="-141"/>
      <point x="212" y="-141" type="curve" smooth="yes"/>
      <point x="354" y="-141"/>
      <point x="467" y="-73"/>
    </contour>
  </outline>
</glyph>
<glyph name="seven" format="1">
  <advance width="486"/>
  <unicode hex="0037"/>
  <outline>
    <contour>
      <point x="49" y="521" type="line"/>
      <point x="26" y="299" type="line"/>
      <point x="141" y="299" type="line"/>
      <point x="152" y="408" type="line"/>
      <point x="352" y="408" type="line"/>
      <point x="83" y="-130" type="line"/>
      <point x="213" y="-130" type="line"/>
      <point x="500" y="458" type="line"/>
      <point x="490" y="521" type="line"/>
    </contour>
  </outline>
</glyph>
<glyph name="equal" format="1">
  <advance width="532"/>
  <unicode hex="003D"/>
  <outline>
    <contour>
      <point x="49" y="347" type="line"/>
      <point x="497" y="347" type="line"/>
      <point x="507" y="435" type="line"/>
      <point x="59" y="435" type="line"/>
    </contour>
    <contour>
      <point x="26" y="125" type="line"/>
      <point x="474" y="125" type="line"/>
      <point x="483" y="213" type="line"/>
      <point x="35" y="213" type="line"/>
    </contour>
  </outline>
</glyph>
<glyph name="greater" format="1">
  <advance width="388"/>
  <unicode hex="003E"/>
  <outline>
    <contour>
      <point x="362" y="257" type="line"/>
      <point x="366" y="301" type="line"/>
      <point x="80" y="549" type="line"/>
      <point x="67" y="427" type="line"/>
      <point x="236" y="282" type="line"/>
      <point x="37" y="136" type="line"/>
      <point x="24" y="14" type="line"/>
    </contour>
  </outline>
</glyph>
<glyph name="question" format="1">
  <advance width="470"/>
  <unicode hex="003F"/>
  <outline>
    <contour>
      <point x="151" y="456" type="line"/>
      <point x="173" y="527" type="line"/>
      <point x="195" y="538"/>
      <point x="232" y="542"/>
      <point x="255" y="542" type="curve" smooth="yes"/>
      <point x="297" y="542"/>
      <point x="325" y="529"/>
      <point x="325" y="494" type="curve" smooth="yes"/>
      <point x="325" y="400"/>
      <point x="121" y="425"/>
      <point x="121" y="289" type="curve" smooth="yes"/>
      <point x="121" y="219"/>
      <point x="174" y="191"/>
      <point x="289" y="205" type="curve"/>
      <point x="298" y="284" type="line"/>
      <point x="273" y="284"/>
      <point x="261" y="294"/>
      <point x="261" y="309" type="curve" smooth="yes"/>
      <point x="261" y="374"/>
      <point x="472" y="377"/>
      <point x="472" y="523" type="curve" smooth="yes"/>
      <point x="472" y="610"/>
      <point x="396" y="659"/>
      <point x="282" y="659" type="curve" smooth="yes"/>
      <point x="239" y="659"/>
      <point x="166" y="652"/>
      <point x="88" y="620" type="curve"/>
      <point x="51" y="467" type="line"/>
    </contour>
    <contour>
      <point x="118" y="0" type="line"/>
      <point x="266" y="0" type="line"/>
      <point x="281" y="145" type="line"/>
      <point x="133" y="145" type="line"/>
    </contour>
  </outline>
</glyph>
<glyph name="at" format="1">
  <advance width="879"/>
  <unicode hex="0040"/>
  <outline>
    <contour>
      <point x="641" y="291" type="curve"/>
      <point x="625" y="140" type="line"/>
      <point x="622" y="116" type="line" smooth="yes"/>
      <point x="619" y="90"/>
      <point x="631" y="76"/>
      <point x="654" y="76" type="curve" smooth="yes"/>
      <point x="710" y="76"/>
      <point x="741" y="157"/>
      <point x="741" y="273" type="curve" smooth="yes"/>
      <point x="741" y="488"/>
      <point x="635" y="558"/>
      <point x="483" y="558" type="curve" smooth="yes"/>
      <point x="270" y="558"/>
      <point x="128" y="420"/>
      <point x="128" y="195" type="curve" smooth="yes"/>
      <point x="128" y="-31"/>
      <point x="271" y="-106"/>
      <point x="421" y="-106" type="curve" smooth="yes"/>
      <point x="481" y="-106"/>
      <point x="559" y="-94"/>
      <point x="621" y="-52" type="curve"/>
      <point x="654" y="-130" type="line"/>
      <point x="587" y="-172"/>
      <point x="501" y="-202"/>
      <point x="404" y="-202" type="curve" smooth="yes"/>
      <point x="191" y="-202"/>
      <point x="21" y="-59"/>
      <point x="21" y="183" type="curve" smooth="yes"/>
      <point x="21" y="446"/>
      <point x="222" y="654"/>
      <point x="481" y="654" type="curve" smooth="yes"/>
      <point x="672" y="654"/>
      <point x="849" y="542"/>
      <point x="849" y="306" type="curve" smooth="yes"/>
      <point x="849" y="167"/>
      <point x="787" y="-10"/>
      <point x="622" y="-10" type="curve" smooth="yes"/>
      <point x="547" y="-10"/>
      <point x="493" y="26"/>
      <point x="492" y="83" type="curve"/>
      <point x="464" y="31"/>
      <point x="418" y="-10"/>
      <point x="349" y="-10" type="curve" smooth="yes"/>
      <point x="250" y="-10"/>
      <point x="201" y="75"/>
      <point x="201" y="183" type="curve" smooth="yes"/>
      <point x="201" y="305"/>
      <point x="264" y="460"/>
      <point x="409" y="460" type="curve" smooth="yes"/>
      <point x="476" y="460"/>
      <point x="519" y="427"/>
      <point x="537" y="376" type="curve"/>
      <point x="543" y="401"/>
      <point x="549" y="426"/>
      <point x="558" y="451" type="curve"/>
      <point x="678" y="451" type="line"/>
      <point x="663" y="403"/>
      <point x="647" y="347"/>
    </contour>
    <contour>
      <point x="429" y="362" type="curve" smooth="yes"/>
      <point x="365" y="362"/>
      <point x="335" y="282"/>
      <point x="335" y="198" type="curve" smooth="yes"/>
      <point x="335" y="129"/>
      <point x="355" y="88"/>
      <point x="399" y="88" type="curve" smooth="yes"/>
      <point x="453" y="88"/>
      <point x="495" y="152"/>
      <point x="507" y="210" type="curve"/>
      <point x="511" y="244" type="line" smooth="yes"/>
      <point x="519" y="319"/>
      <point x="476" y="362"/>
    </contour>
  </outline>
</glyph>
<glyph name="B" format="1">
  <advance width="600"/>
  <unicode hex="0042"/>
  <outline>
    <contour>
      <point x="402" y="650" type="line" smooth="yes"/>
      <point x="509" y="650"/>
      <point x="577" y="596"/>
      <point x="577" y="511" type="curve" smooth="yes"/>
      <point x="577" y="440"/>
      <point x="530" y="375"/>
      <point x="449" y="362" type="curve"/>
      <point x="449" y="358" type="line"/>
      <point x="528" y="345"/>
      <point x="568" y="290"/>
      <point x="568" y="211" type="curve" smooth="yes"/>
      <point x="568" y="102"/>
      <point x="493" y="0"/>
      <point x="338" y="0" type="curve" smooth="yes"/>
      <point x="9" y="0" type="line"/>
      <point x="21" y="114" type="line"/>
      <point x="88" y="114" type="line"/>
      <point x="132" y="536" type="line"/>
      <point x="65" y="536" type="line"/>
      <point x="77" y="650" type="line"/>
    </contour>
    <contour>
      <point x="316" y="114" type="line" smooth="yes"/>
      <point x="394" y="114"/>
      <point x="430" y="148"/>
      <point x="430" y="206" type="curve" smooth="yes"/>
      <point x="430" y="259"/>
      <point x="399" y="280"/>
      <point x="342" y="280" type="curve" smooth="yes"/>
      <point x="234" y="280" type="line"/>
      <point x="217" y="114" type="line"/>
    </contour>
    <contour>
      <point x="331" y="384" type="line" smooth="yes"/>
      <point x="413" y="384"/>
      <point x="435" y="427"/>
      <point x="435" y="470" type="curve" smooth="yes"/>
      <point x="435" y="523"/>
      <point x="401" y="536"/>
      <point x="356" y="536" type="curve" smooth="yes"/>
      <point x="261" y="536" type="line"/>
      <point x="245" y="384" type="line"/>
    </contour>
  </outline>
</glyph>
<glyph name="D" format="1">
  <advance width="673"/>
  <unicode hex="0044"/>
  <outline>
    <contour>
      <point x="9" y="0" type="line"/>
      <point x="21" y="114" type="line"/>
      <point x="89" y="114" type="line"/>
      <point x="133" y="536" type="line"/>
      <point x="65" y="536" type="line"/>
      <point x="77" y="650" type="line"/>
      <point x="363" y="650" type="line" smooth="yes"/>
      <point x="559" y="650"/>
      <point x="655" y="540"/>
      <point x="655" y="363" type="curve" smooth="yes"/>
      <point x="655" y="152"/>
      <point x="518" y="0"/>
      <point x="303" y="0" type="curve" smooth="yes"/>
    </contour>
    <contour>
      <point x="305" y="114" type="line" smooth="yes"/>
      <point x="441" y="114"/>
      <point x="517" y="196"/>
      <point x="517" y="350" type="curve" smooth="yes"/>
      <point x="517" y="479"/>
      <point x="464" y="536"/>
      <point x="349" y="536" type="curve" smooth="yes"/>
      <point x="261" y="536" type="line"/>
      <point x="217" y="114" type="line"/>
    </contour>
  </outline>
</glyph>
<glyph name="I" format="1">
  <advance width="339"/>
  <unicode hex="0049"/>
  <outline>
    <contour>
      <point x="21" y="114" type="line"/>
      <point x="88" y="114" type="line"/>
      <point x="132" y="536" type="line"/>
      <point x="65" y="536" type="line"/>
      <point x="77" y="650" type="line"/>
      <point x="340" y="650" type="line"/>
      <point x="328" y="536" type="line"/>
      <point x="260" y="536" type="line"/>
      <point x="216" y="114" type="line"/>
      <point x="284" y="114" type="line"/>
      <point x="272" y="0" type="line"/>
      <point x="9" y="0" type="line"/>
    </contour>
  </outline>
</glyph>
<glyph name="M" format="1">
  <advance width="865"/>
  <unicode hex="004D"/>
  <outline>
    <contour>
      <point x="23" y="114" type="line"/>
      <point x="90" y="114" type="line"/>
      <point x="134" y="536" type="line"/>
      <point x="57" y="536" type="line"/>
      <point x="69" y="650" type="line"/>
      <point x="253" y="650" type="line"/>
      <point x="433" y="247" type="line"/>
      <point x="437" y="247" type="line"/>
      <point x="687" y="650" type="line"/>
      <point x="873" y="650" type="line"/>
      <point x="861" y="536" type="line"/>
      <point x="785" y="536" type="line"/>
      <point x="741" y="114" type="line"/>
      <point x="808" y="114" type="line"/>
      <point x="796" y="0" type="line"/>
      <point x="545" y="0" type="line"/>
      <point x="557" y="114" type="line"/>
      <point x="612" y="114" type="line"/>
      <point x="638" y="362" type="line"/>
      <point x="634" y="362" type="line"/>
      <point x="438" y="53" type="line"/>
      <point x="384" y="53" type="line"/>
      <point x="241" y="374" type="line"/>
      <point x="237" y="374" type="line"/>
      <point x="210" y="114" type="line"/>
      <point x="269" y="114" type="line"/>
      <point x="257" y="0" type="line"/>
      <point x="11" y="0" type="line"/>
    </contour>
  </outline>
</glyph>
<glyph name="N" format="1">
  <advance width="732"/>
  <unicode hex="004E"/>
  <outline>
    <contour>
      <point x="23" y="114" type="line"/>
      <point x="91" y="114" type="line"/>
      <point x="135" y="536" type="line"/>
      <point x="57" y="536" type="line"/>
      <point x="69" y="650" type="line"/>
      <point x="239" y="650" type="line"/>
      <point x="514" y="264" type="line"/>
      <point x="517" y="264" type="line"/>
      <point x="545" y="536" type="line"/>
      <point x="455" y="536" type="line"/>
      <point x="467" y="650" type="line"/>
      <point x="745" y="650" type="line"/>
      <point x="733" y="536" type="line"/>
      <point x="665" y="536" type="line"/>
      <point x="609" y="0" type="line"/>
      <point x="537" y="-1" type="line"/>
      <point x="245" y="412" type="line"/>
      <point x="242" y="412" type="line"/>
      <point x="211" y="114" type="line"/>
      <point x="297" y="114" type="line"/>
      <point x="285" y="0" type="line"/>
      <point x="11" y="0" type="line"/>
    </contour>
    <contour>
      <point x="324" y="727" type="move" name="top"/>
    </contour>
  </outline>
</glyph>
<glyph name="O" format="1">
  <advance width="685"/>
  <unicode hex="004F"/>
  <outline>
    <contour>
      <point x="381" y="660" type="curve" smooth="yes"/>
      <point x="180" y="660"/>
      <point x="26" y="496"/>
      <point x="26" y="290" type="curve" smooth="yes"/>
      <point x="26" y="126"/>
      <point x="124" y="-10"/>
      <point x="310" y="-10" type="curve" smooth="yes"/>
      <point x="519" y="-10"/>
      <point x="669" y="161"/>
      <point x="669" y="360" type="curve" smooth="yes"/>
      <point x="669" y="526"/>
      <point x="563" y="660"/>
    </contour>
    <contour>
      <point x="330" y="108" type="curve" smooth="yes"/>
      <point x="209" y="108"/>
      <point x="166" y="203"/>
      <point x="166" y="302" type="curve" smooth="yes"/>
      <point x="166" y="433"/>
      <point x="242" y="542"/>
      <point x="367" y="542" type="curve" smooth="yes"/>
      <point x="466" y="542"/>
      <point x="529" y="473"/>
      <point x="529" y="350" type="curve" smooth="yes"/>
      <point x="529" y="227"/>
      <point x="465" y="108"/>
    </contour>
  </outline>
</glyph>
<glyph name="P" format="1">
  <advance width="578"/>
  <unicode hex="0050"/>
  <outline>
    <contour>
      <point x="21" y="114" type="line"/>
      <point x="88" y="114" type="line"/>
      <point x="132" y="536" type="line"/>
      <point x="65" y="536" type="line"/>
      <point x="77" y="650" type="line"/>
      <point x="363" y="650" type="line" smooth="yes"/>
      <point x="506" y="650"/>
      <point x="580" y="573"/>
      <point x="580" y="452" type="curve" smooth="yes"/>
      <point x="580" y="295"/>
      <point x="456" y="218"/>
      <point x="324" y="218" type="curve" smooth="yes"/>
      <point x="228" y="218" type="line"/>
      <point x="217" y="114" type="line"/>
      <point x="313" y="114" type="line"/>
      <point x="301" y="0" type="line"/>
      <point x="9" y="0" type="line"/>
    </contour>
    <contour>
      <point x="312" y="331" type="line" smooth="yes"/>
      <point x="410" y="331"/>
      <point x="441" y="382"/>
      <point x="441" y="446" type="curve" smooth="yes"/>
      <point x="441" y="505"/>
      <point x="415" y="536"/>
      <point x="335" y="536" type="curve" smooth="yes"/>
      <point x="261" y="536" type="line"/>
      <point x="240" y="331" type="line"/>
    </contour>
  </outline>
</glyph>
<glyph name="Q" format="1">
  <advance width="696"/>
  <unicode hex="0051"/>
  <outline>
    <contour>
      <point x="382" y="660" type="curve" smooth="yes"/>
      <point x="181" y="660"/>
      <point x="27" y="496"/>
      <point x="27" y="290" type="curve" smooth="yes"/>
      <point x="27" y="126"/>
      <point x="125" y="-10"/>
      <point x="311" y="-10" type="curve" smooth="yes"/>
      <point x="371" y="-10"/>
      <point x="426" y="4"/>
      <point x="475" y="29" type="curve"/>
      <point x="565" y="-70" type="line"/>
      <point x="652" y="10" type="line"/>
      <point x="569" y="101" type="line"/>
      <point x="633" y="168"/>
      <point x="670" y="261"/>
      <point x="670" y="360" type="curve" smooth="yes"/>
      <point x="670" y="526"/>
      <point x="564" y="660"/>
    </contour>
    <contour>
      <point x="301" y="221" type="line"/>
      <point x="394" y="118" type="line"/>
      <point x="375" y="111"/>
      <point x="354" y="108"/>
      <point x="331" y="108" type="curve" smooth="yes"/>
      <point x="210" y="108"/>
      <point x="167" y="203"/>
      <point x="167" y="302" type="curve" smooth="yes"/>
      <point x="167" y="433"/>
      <point x="243" y="542"/>
      <point x="368" y="542" type="curve" smooth="yes"/>
      <point x="467" y="542"/>
      <point x="530" y="473"/>
      <point x="530" y="350" type="curve" smooth="yes"/>
      <point x="530" y="292"/>
      <point x="516" y="235"/>
      <point x="487" y="191" type="curve"/>
      <point x="388" y="301" type="line"/>
    </contour>
  </outline>
</glyph>
<glyph name="W" format="1">
  <advance width="951"/>
  <unicode hex="0057"/>
  <outline>
    <contour>
      <point x="966" y="536" type="line"/>
      <point x="915" y="536" type="line"/>
      <point x="688" y="0" type="line"/>
      <point x="597" y="0" type="line"/>
      <point x="494" y="420" type="line"/>
      <point x="489" y="420" type="line"/>
      <point x="305" y="0" type="line"/>
      <point x="212" y="0" type="line"/>
      <point x="86" y="536" type="line"/>
      <point x="32" y="536" type="line"/>
      <point x="44" y="650" type="line"/>
      <point x="292" y="650" type="line"/>
      <point x="280" y="536" type="line"/>
      <point x="223" y="536" type="line"/>
      <point x="283" y="222" type="line"/>
      <point x="289" y="222" type="line"/>
      <point x="433" y="536" type="line"/>
      <point x="384" y="536" type="line"/>
      <point x="396" y="650" type="line"/>
      <point x="645" y="650" type="line"/>
      <point x="633" y="536" type="line"/>
      <point x="588" y="536" type="line"/>
      <point x="665" y="216" type="line"/>
      <point x="671" y="216" type="line"/>
      <point x="786" y="536" type="line"/>
      <point x="720" y="536" type="line"/>
      <point x="732" y="650" type="line"/>
      <point x="978" y="650" type="line"/>
    </contour>
  </outline>
</glyph>
<glyph name="X" format="1">
  <advance width="640"/>
  <unicode hex="0058"/>
  <outline>
    <contour>
      <point x="604" y="0" type="line"/>
      <point x="349" y="0" type="line"/>
      <point x="361" y="114" type="line"/>
      <point x="405" y="114" type="line"/>
      <point x="312" y="247" type="line"/>
      <point x="199" y="114" type="line"/>
      <point x="251" y="114" type="line"/>
      <point x="239" y="0" type="line"/>
      <point x="-22" y="0" type="line"/>
      <point x="-10" y="114" type="line"/>
      <point x="57" y="114" type="line"/>
      <point x="255" y="332" type="line"/>
      <point x="106" y="536" type="line"/>
      <point x="48" y="536" type="line"/>
      <point x="60" y="650" type="line"/>
      <point x="311" y="650" type="line"/>
      <point x="299" y="536" type="line"/>
      <point x="257" y="536" type="line"/>
      <point x="343" y="420" type="line"/>
      <point x="445" y="536" type="line"/>
      <point x="400" y="536" type="line"/>
      <point x="412" y="650" type="line"/>
      <point x="657" y="650" type="line"/>
      <point x="645" y="536" type="line"/>
      <point x="588" y="536" type="line"/>
      <point x="400" y="335" type="line"/>
      <point x="560" y="114" type="line"/>
      <point x="616" y="114" type="line"/>
    </contour>
  </outline>
</glyph>
<glyph name="Y" format="1">
  <advance width="620"/>
  <unicode hex="0059"/>
  <outline>
    <contour>
      <point x="638" y="536" type="line"/>
      <point x="584" y="536" type="line"/>
      <point x="373" y="254" type="line"/>
      <point x="359" y="114" type="line"/>
      <point x="460" y="114" type="line"/>
      <point x="448" y="0" type="line"/>
      <point x="122" y="0" type="line"/>
      <point x="134" y="114" type="line"/>
      <point x="230" y="114" type="line"/>
      <point x="244" y="256" type="line"/>
      <point x="86" y="536" type="line"/>
      <point x="31" y="536" type="line"/>
      <point x="43" y="650" type="line"/>
      <point x="301" y="650" type="line"/>
      <point x="289" y="536" type="line"/>
      <point x="237" y="536" type="line"/>
      <point x="325" y="372" type="line"/>
      <point x="331" y="372" type="line"/>
      <point x="451" y="536" type="line"/>
      <point x="392" y="536" type="line"/>
      <point x="404" y="650" type="line"/>
      <point x="650" y="650" type="line"/>
    </contour>
  </outline>
</glyph>
<glyph name="backslash" format="1">
  <advance width="448"/>
  <unicode hex="005C"/>
  <outline>
    <contour>
      <point x="22" y="688" type="line"/>
      <point x="301" y="0" type="line"/>
      <point x="418" y="0" type="line"/>
      <point x="140" y="688" type="line"/>
    </contour>
  </outline>
</glyph>
<glyph name="bracketright" format="1">
  <advance width="292"/>
  <unicode hex="005D"/>
  <outline>
    <contour>
      <point x="281" y="785" type="line"/>
      <point x="62" y="785" type="line"/>
      <point x="53" y="698" type="line"/>
      <point x="165" y="698" type="line"/>
      <point x="75" y="-161" type="line"/>
      <point x="-37" y="-161" type="line"/>
      <point x="-47" y="-248" type="line"/>
      <point x="172" y="-248" type="line"/>
    </contour>
  </outline>
</glyph>
<glyph name="underscore" format="1">
  <advance width="492"/>
  <unicode hex="005F"/>
  <outline>
    <contour>
      <point x="-1" y="-68" type="line"/>
      <point x="423" y="-68" type="line"/>
      <point x="414" y="-153" type="line"/>
      <point x="-10" y="-153" type="line"/>
    </contour>
  </outline>
</glyph>
<glyph name="g" format="1">
  <advance width="526"/>
  <unicode hex="0067"/>
  <outline>
    <contour>
      <point x="375" y="451" type="line"/>
      <point x="538" y="451" type="line"/>
      <point x="529" y="378" type="line"/>
      <point x="499" y="353" type="line"/>
      <point x="467" y="353" type="line"/>
      <point x="426" y="23" type="line" smooth="yes"/>
      <point x="410" y="-105"/>
      <point x="347" y="-222"/>
      <point x="181" y="-222" type="curve" smooth="yes"/>
      <point x="96" y="-222"/>
      <point x="10" y="-185"/>
      <point x="-13" y="-81" type="curve"/>
      <point x="75" y="-31" type="line"/>
      <point x="98" y="-89"/>
      <point x="138" y="-115"/>
      <point x="189" y="-115" type="curve" smooth="yes"/>
      <point x="258" y="-115"/>
      <point x="291" y="-68"/>
      <point x="302" y="23" type="curve" smooth="yes"/>
      <point x="309" y="85" type="line"/>
      <point x="278" y="33"/>
      <point x="229" y="-10"/>
      <point x="159" y="-10" type="curve" smooth="yes"/>
      <point x="60" y="-10"/>
      <point x="15" y="76"/>
      <point x="15" y="180" type="curve" smooth="yes"/>
      <point x="15" y="306"/>
      <point x="82" y="460"/>
      <point x="227" y="460" type="curve" smooth="yes"/>
      <point x="292" y="460"/>
      <point x="335" y="429"/>
      <point x="353" y="380" type="curve"/>
    </contour>
    <contour>
      <point x="247" y="362" type="curve" smooth="yes"/>
      <point x="183" y="362"/>
      <point x="149" y="284"/>
      <point x="149" y="194" type="curve" smooth="yes"/>
      <point x="149" y="131"/>
      <point x="166" y="88"/>
      <point x="210" y="88" type="curve" smooth="yes"/>
      <point x="263" y="88"/>
      <point x="310" y="150"/>
      <point x="324" y="207" type="curve"/>
      <point x="330" y="255" type="line"/>
      <point x="333" y="324"/>
      <point x="291" y="362"/>
    </contour>
    <contour>
      <point x="159" y="566" type="move" name="top"/>
    </contour>
  </outline>
</glyph>
<glyph name="j" format="1">
  <advance width="254"/>
  <unicode hex="006A"/>
  <outline>
    <contour>
      <point x="24" y="424" type="line"/>
      <point x="55" y="451" type="line"/>
      <point x="224" y="451" type="line"/>
      <point x="170" y="16" type="line" smooth="yes"/>
      <point x="153" y="-120"/>
      <point x="107" y="-222"/>
      <point x="12" y="-222" type="curve" smooth="yes"/>
      <point x="-29" y="-222"/>
      <point x="-62" y="-210"/>
      <point x="-88" y="-192" type="curve"/>
      <point x="-83" y="-109" type="line"/>
      <point x="-16" y="-135"/>
      <point x="29" y="-128"/>
      <point x="47" y="16" type="curve" smooth="yes"/>
      <point x="88" y="353" type="line"/>
      <point x="15" y="353" type="line"/>
    </contour>
    <contour>
      <point x="110" y="531" type="line"/>
      <point x="230" y="531" type="line"/>
      <point x="244" y="665" type="line"/>
      <point x="124" y="665" type="line"/>
    </contour>
  </outline>
</glyph>
<glyph name="l" format="1">
  <advance width="257"/>
  <unicode hex="006C"/>
  <outline>
    <contour>
      <point x="47" y="661" type="line"/>
      <point x="78" y="688" type="line"/>
      <point x="236" y="688" type="line"/>
      <point x="164" y="98" type="line"/>
      <point x="222" y="98" type="line"/>
      <point x="213" y="25" type="line"/>
      <point x="183" y="0" type="line"/>
      <point x="28" y="0" type="line"/>
      <point x="100" y="590" type="line"/>
      <point x="38" y="590" type="line"/>
    </contour>
    <contour>
      <point x="240" y="566" type="move" name="top"/>
    </contour>
  </outline>
</glyph>
<glyph name="m" format="1">
  <advance width="803"/>
  <unicode hex="006D"/>
  <outline>
    <contour>
      <point x="61" y="451" type="line"/>
      <point x="200" y="451" type="line"/>
      <point x="204" y="364" type="line"/>
      <point x="235" y="421"/>
      <point x="282" y="460"/>
      <point x="350" y="460" type="curve" smooth="yes"/>
      <point x="415" y="460"/>
      <point x="463" y="428"/>
      <point x="472" y="360" type="curve"/>
      <point x="503" y="419"/>
      <point x="551" y="460"/>
      <point x="620" y="460" type="curve" smooth="yes"/>
      <point x="701" y="460"/>
      <point x="755" y="411"/>
      <point x="742" y="304" type="curve" smooth="yes"/>
      <point x="717" y="98" type="line"/>
      <point x="775" y="98" type="line"/>
      <point x="766" y="25" type="line"/>
      <point x="736" y="0" type="line"/>
      <point x="582" y="0" type="line"/>
      <point x="613" y="254" type="line" smooth="yes"/>
      <point x="623" y="332"/>
      <point x="604" y="362"/>
      <point x="555" y="362" type="curve" smooth="yes"/>
      <point x="495" y="362"/>
      <point x="474" y="318"/>
      <point x="466" y="255" type="curve" smooth="yes"/>
      <point x="435" y="0" type="line"/>
      <point x="312" y="0" type="line"/>
      <point x="343" y="254" type="line" smooth="yes"/>
      <point x="353" y="332"/>
      <point x="334" y="362"/>
      <point x="285" y="362" type="curve" smooth="yes"/>
      <point x="225" y="362"/>
      <point x="204" y="318"/>
      <point x="196" y="255" type="curve" smooth="yes"/>
      <point x="165" y="0" type="line"/>
      <point x="41" y="0" type="line"/>
      <point x="84" y="353" type="line"/>
      <point x="21" y="353" type="line"/>
      <point x="30" y="424" type="line"/>
    </contour>
    <contour>
      <point x="253" y="566" type="move" name="top"/>
    </contour>
  </outline>
</glyph>
<glyph name="o" format="1">
  <advance width="483"/>
  <unicode hex="006F"/>
  <outline>
    <contour>
      <point x="14" y="194" type="curve" smooth="yes"/>
      <point x="14" y="331"/>
      <point x="92" y="460"/>
      <point x="259" y="460" type="curve" smooth="yes"/>
      <point x="397" y="460"/>
      <point x="458" y="373"/>
      <point x="458" y="251" type="curve" smooth="yes"/>
      <point x="458" y="95"/>
      <point x="358" y="-10"/>
      <point x="210" y="-10" type="curve" smooth="yes"/>
      <point x="87" y="-10"/>
      <point x="14" y="62"/>
    </contour>
    <contour>
      <point x="149" y="205" type="curve" smooth="yes"/>
      <point x="149" y="133"/>
      <point x="163" y="88"/>
      <point x="222" y="88" type="curve" smooth="yes"/>
      <point x="298" y="88"/>
      <point x="325" y="161"/>
      <point x="325" y="247" type="curve" smooth="yes"/>
      <point x="325" y="328"/>
      <point x="301" y="362"/>
      <point x="246" y="362" type="curve" smooth="yes"/>
      <point x="180" y="362"/>
      <point x="149" y="312"/>
    </contour>
  </outline>
</glyph>
<glyph name="q" format="1">
  <advance width="510"/>
  <unicode hex="0071"/>
  <outline>
    <contour>
      <point x="456" y="-186" type="line"/>
      <point x="425" y="-213" type="line"/>
      <point x="184" y="-213" type="line"/>
      <point x="193" y="-142" type="line"/>
      <point x="224" y="-115" type="line"/>
      <point x="284" y="-115" type="line"/>
      <point x="309" y="86" type="line"/>
      <point x="278" y="33"/>
      <point x="228" y="-10"/>
      <point x="158" y="-10" type="curve" smooth="yes"/>
      <point x="59" y="-10"/>
      <point x="14" y="76"/>
      <point x="14" y="180" type="curve" smooth="yes"/>
      <point x="14" y="306"/>
      <point x="81" y="460"/>
      <point x="226" y="460" type="curve" smooth="yes"/>
      <point x="293" y="460"/>
      <point x="336" y="427"/>
      <point x="354" y="376" type="curve"/>
      <point x="360" y="401"/>
      <point x="366" y="426"/>
      <point x="375" y="451" type="curve"/>
      <point x="495" y="451" type="line"/>
      <point x="478" y="397"/>
      <point x="465" y="345"/>
      <point x="458" y="291" type="curve" smooth="yes"/>
      <point x="408" y="-115" type="line"/>
      <point x="465" y="-115" type="line"/>
    </contour>
    <contour>
      <point x="246" y="362" type="curve" smooth="yes"/>
      <point x="182" y="362"/>
      <point x="148" y="284"/>
      <point x="148" y="194" type="curve" smooth="yes"/>
      <point x="148" y="131"/>
      <point x="165" y="88"/>
      <point x="209" y="88" type="curve" smooth="yes"/>
      <point x="264" y="88"/>
      <point x="313" y="154"/>
      <point x="325" y="213" type="curve"/>
      <point x="330" y="258" type="line"/>
      <point x="331" y="325"/>
      <point x="290" y="362"/>
    </contour>
  </outline>
</glyph>
<glyph name="y" format="1">
  <advance width="480"/>
  <unicode hex="0079"/>
  <outline>
    <contour>
      <point x="254" y="148" type="line"/>
      <point x="260" y="148" type="line"/>
      <point x="322" y="233"/>
      <point x="348" y="288"/>
      <point x="348" y="358" type="curve" smooth="yes"/>
      <point x="348" y="386"/>
      <point x="342" y="417"/>
      <point x="328" y="451" type="curve"/>
      <point x="467" y="451" type="line"/>
      <point x="481" y="376"/>
      <point x="472" y="288"/>
      <point x="397" y="189" type="curve" smooth="yes"/>
      <point x="372" y="156"/>
      <point x="325" y="102"/>
      <point x="279" y="52" type="curve"/>
      <point x="253" y="-115" type="line"/>
      <point x="316" y="-115" type="line"/>
      <point x="307" y="-186" type="line"/>
      <point x="276" y="-213" type="line"/>
      <point x="45" y="-213" type="line"/>
      <point x="54" y="-142" type="line"/>
      <point x="85" y="-115" type="line"/>
      <point x="129" y="-115" type="line"/>
      <point x="155" y="53" type="line"/>
      <point x="54" y="353" type="line"/>
      <point x="7" y="353" type="line"/>
      <point x="16" y="424" type="line"/>
      <point x="47" y="451" type="line"/>
      <point x="254" y="451" type="line"/>
      <point x="245" y="380" type="line"/>
      <point x="214" y="353" type="line"/>
      <point x="187" y="353" type="line"/>
    </contour>
  </outline>
</glyph>
<glyph name="braceleft" format="1">
  <advance width="294"/>
  <unicode hex="007B"/>
  <outline>
    <contour>
      <point x="116" y="267" type="curve"/>
      <point x="211" y="278"/>
      <point x="245" y="326"/>
      <point x="245" y="367" type="curve" smooth="yes"/>
      <point x="245" y="428"/>
      <point x="187" y="539"/>
      <point x="187" y="621" type="curve" smooth="yes"/>
      <point x="187" y="674"/>
      <point x="211" y="698"/>
      <point x="257" y="698" type="curve" smooth="yes"/>
      <point x="320" y="698" type="line"/>
      <point x="329" y="785" type="line"/>
      <point x="266" y="785" type="line" smooth="yes"/>
      <point x="132" y="785"/>
      <point x="84" y="707"/>
      <point x="84" y="619" type="curve" smooth="yes"/>
      <point x="84" y="521"/>
      <point x="138" y="409"/>
      <point x="138" y="357" type="curve" smooth="yes"/>
      <point x="138" y="304"/>
      <point x="66" y="296"/>
      <point x="36" y="296" type="curve" smooth="yes"/>
      <point x="17" y="296" type="line"/>
      <point x="11" y="239" type="line"/>
      <point x="30" y="239" type="line" smooth="yes"/>
      <point x="59" y="239"/>
      <point x="120" y="231"/>
      <point x="120" y="186" type="curve" smooth="yes"/>
      <point x="120" y="129"/>
      <point x="6" y="-3"/>
      <point x="6" y="-117" type="curve" smooth="yes"/>
      <point x="6" y="-183"/>
      <point x="43" y="-248"/>
      <point x="158" y="-248" type="curve" smooth="yes"/>
      <point x="221" y="-248" type="line"/>
      <point x="230" y="-161" type="line"/>
      <point x="167" y="-161" type="line" smooth="yes"/>
      <point x="130" y="-161"/>
      <point x="111" y="-144"/>
      <point x="111" y="-107" type="curve" smooth="yes"/>
      <point x="111" y="-15"/>
      <point x="225" y="112"/>
      <point x="225" y="179" type="curve" smooth="yes"/>
      <point x="225" y="216"/>
      <point x="197" y="257"/>
    </contour>
  </outline>
</glyph>
<glyph name="bar" format="1">
  <advance width="238"/>
  <unicode hex="007C"/>
  <outline>
    <contour>
      <point x="220" y="730" type="line"/>
      <point x="135" y="-80" type="line"/>
      <point x="28" y="-80" type="line"/>
      <point x="113" y="730" type="line"/>
    </contour>
  </outline>
</glyph>
<glyph name="asciitilde" format="1">
  <advance width="560"/>
  <unicode hex="007E"/>
  <outline>
    <contour>
      <point x="363" y="176" type="curve" smooth="yes"/>
      <point x="439" y="176"/>
      <point x="500" y="234"/>
      <point x="545" y="310" type="curve"/>
      <point x="471" y="363" type="line"/>
      <point x="433" y="307"/>
      <point x="409" y="294"/>
      <point x="372" y="294" type="curve" smooth="yes"/>
      <point x="289" y="294"/>
      <point x="256" y="360"/>
      <point x="185" y="360" type="curve" smooth="yes"/>
      <point x="125" y="360"/>
      <point x="64" y="314"/>
      <point x="15" y="228" type="curve"/>
      <point x="80" y="180" type="line"/>
      <point x="119" y="233"/>
      <point x="145" y="242"/>
      <point x="169" y="242" type="curve" smooth="yes"/>
      <point x="237" y="242"/>
      <point x="282" y="176"/>
    </contour>
  </outline>
</glyph>
<glyph name="cent" format="1">
  <advance width="458"/>
  <unicode hex="00A2"/>
  <outline>
    <contour>
      <point x="169" y="-84" type="line"/>
      <point x="177" y="-8" type="line"/>
      <point x="79" y="5"/>
      <point x="23" y="77"/>
      <point x="23" y="195" type="curve" smooth="yes"/>
      <point x="23" y="315"/>
      <point x="82" y="442"/>
      <point x="225" y="458" type="curve"/>
      <point x="233" y="529" type="line"/>
      <point x="301" y="529" type="line"/>
      <point x="293" y="458" type="line"/>
      <point x="333" y="454"/>
      <point x="378" y="443"/>
      <point x="414" y="422" type="curve"/>
      <point x="419" y="285" type="line"/>
      <point x="316" y="274" type="line"/>
      <point x="310" y="354" type="line"/>
      <point x="300" y="357"/>
      <point x="291" y="359"/>
      <point x="283" y="360" type="curve"/>
      <point x="255" y="91" type="line"/>
      <point x="288" y="102"/>
      <point x="304" y="135"/>
      <point x="318" y="188" type="curve"/>
      <point x="419" y="168" type="line"/>
      <point x="402" y="91"/>
      <point x="352" y="7"/>
      <point x="245" y="-7" type="curve"/>
      <point x="237" y="-84" type="line"/>
    </contour>
    <contour>
      <point x="157" y="200" type="curve" smooth="yes"/>
      <point x="157" y="153"/>
      <point x="165" y="118"/>
      <point x="188" y="101" type="curve"/>
      <point x="214" y="352" type="line"/>
      <point x="180" y="331"/>
      <point x="157" y="279"/>
    </contour>
  </outline>
</glyph>
<glyph name="currency" format="1">
  <advance width="467"/>
  <unicode hex="00A4"/>
  <outline>
    <contour>
      <point x="84" y="250" type="curve" smooth="yes"/>
      <point x="84" y="227"/>
      <point x="89" y="205"/>
      <point x="98" y="186" type="curve"/>
      <point x="8" y="102" type="line"/>
      <point x="50" y="55" type="line"/>
      <point x="140" y="137" type="line"/>
      <point x="161" y="122"/>
      <point x="187" y="113"/>
      <point x="217" y="113" type="curve" smooth="yes"/>
      <point x="246" y="113"/>
      <point x="274" y="121"/>
      <point x="299" y="136" type="curve"/>
      <point x="371" y="55" type="line"/>
      <point x="423" y="102" type="line"/>
      <point x="351" y="185" type="line"/>
      <point x="369" y="211"/>
      <point x="381" y="243"/>
      <point x="381" y="277" type="curve" smooth="yes"/>
      <point x="381" y="298"/>
      <point x="376" y="319"/>
      <point x="368" y="337" type="curve"/>
      <point x="456" y="418" type="line"/>
      <point x="414" y="465" type="line"/>
      <point x="329" y="387" type="line"/>
      <point x="306" y="405"/>
      <point x="278" y="415"/>
      <point x="247" y="415" type="curve" smooth="yes"/>
      <point x="216" y="415"/>
      <point x="186" y="405"/>
      <point x="161" y="388" type="curve"/>
      <point x="93" y="465" type="line"/>
      <point x="41" y="418" type="line"/>
      <point x="110" y="338" type="line"/>
      <point x="94" y="312"/>
      <point x="84" y="282"/>
    </contour>
    <contour>
      <point x="192" y="264" type="curve" smooth="yes"/>
      <point x="195" y="292"/>
      <point x="215" y="315"/>
      <point x="237" y="315" type="curve" smooth="yes"/>
      <point x="259" y="315"/>
      <point x="273" y="295"/>
      <point x="273" y="270" type="curve" smooth="yes"/>
      <point x="273" y="239"/>
      <point x="252" y="213"/>
      <point x="227" y="213" type="curve" smooth="yes"/>
      <point x="205" y="213"/>
      <point x="189" y="236"/>
    </contour>
  </outline>
</glyph>
<glyph name="yen" format="1">
  <advance width="583"/>
  <unicode hex="00A5"/>
  <outline>
    <contour>
      <point x="133" y="98" type="line"/>
      <point x="213" y="98" type="line"/>
      <point x="215" y="123" type="line"/>
      <point x="89" y="123" type="line"/>
      <point x="96" y="190" type="line"/>
      <point x="222" y="190" type="line"/>
      <point x="224" y="206" type="line"/>
      <point x="216" y="219" type="line"/>
      <point x="99" y="219" type="line"/>
      <point x="106" y="286" type="line"/>
      <point x="174" y="286" type="line"/>
      <point x="89" y="423" type="line"/>
      <point x="44" y="423" type="line"/>
      <point x="54" y="521" type="line"/>
      <point x="284" y="521" type="line"/>
      <point x="274" y="423" type="line"/>
      <point x="234" y="423" type="line"/>
      <point x="302" y="306" type="line"/>
      <point x="307" y="306" type="line"/>
      <point x="397" y="423" type="line"/>
      <point x="351" y="423" type="line"/>
      <point x="361" y="521" type="line"/>
      <point x="579" y="521" type="line"/>
      <point x="569" y="423" type="line"/>
      <point x="527" y="423" type="line"/>
      <point x="416" y="286" type="line"/>
      <point x="486" y="286" type="line"/>
      <point x="479" y="219" type="line"/>
      <point x="362" y="219" type="line"/>
      <point x="350" y="204" type="line"/>
      <point x="348" y="190" type="line"/>
      <point x="476" y="190" type="line"/>
      <point x="469" y="123" type="line"/>
      <point x="341" y="123" type="line"/>
      <point x="339" y="98" type="line"/>
      <point x="425" y="98" type="line"/>
      <point x="415" y="0" type="line"/>
      <point x="123" y="0" type="line"/>
    </contour>
  </outline>
</glyph>
<glyph name="section" format="1">
  <advance width="620"/>
  <unicode hex="00A7"/>
  <outline>
    <contour>
      <point x="510" y="161" type="curve" smooth="yes"/>
      <point x="510" y="168"/>
      <point x="510" y="175"/>
      <point x="509" y="181" type="curve"/>
      <point x="553" y="206"/>
      <point x="598" y="243"/>
      <point x="598" y="308" type="curve" smooth="yes"/>
      <point x="598" y="434"/>
      <point x="427" y="431"/>
      <point x="338" y="446" type="curve" smooth="yes"/>
      <point x="285" y="455"/>
      <point x="242" y="473"/>
      <point x="242" y="515" type="curve" smooth="yes"/>
      <point x="242" y="557"/>
      <point x="286" y="571"/>
      <point x="331" y="571" type="curve" smooth="yes"/>
      <point x="372" y="571"/>
      <point x="415" y="559"/>
      <point x="431" y="549" type="curve"/>
      <point x="434" y="479" type="line"/>
      <point x="533" y="490" type="line"/>
      <point x="534" y="619" type="line"/>
      <point x="470" y="649"/>
      <point x="401" y="660"/>
      <point x="343" y="660" type="curve" smooth="yes"/>
      <point x="199" y="660"/>
      <point x="115" y="594"/>
      <point x="115" y="498" type="curve" smooth="yes"/>
      <point x="115" y="475"/>
      <point x="120" y="455"/>
      <point x="128" y="439" type="curve"/>
      <point x="82" y="417"/>
      <point x="38" y="382"/>
      <point x="38" y="325" type="curve" smooth="yes"/>
      <point x="38" y="227"/>
      <point x="166" y="211"/>
      <point x="266" y="201" type="curve" smooth="yes"/>
      <point x="327" y="195"/>
      <point x="385" y="193"/>
      <point x="385" y="147" type="curve" smooth="yes"/>
      <point x="385" y="111"/>
      <point x="351" y="80"/>
      <point x="289" y="80" type="curve" smooth="yes"/>
      <point x="262" y="80"/>
      <point x="193" y="86"/>
      <point x="170" y="94" type="curve"/>
      <point x="181" y="159" type="line"/>
      <point x="85" y="170" type="line"/>
      <point x="51" y="34" type="line"/>
      <point x="119" y="2"/>
      <point x="232" y="-10"/>
      <point x="287" y="-10" type="curve" smooth="yes"/>
      <point x="422" y="-10"/>
      <point x="510" y="64"/>
    </contour>
    <contour>
      <point x="481" y="285" type="curve" smooth="yes"/>
      <point x="481" y="266"/>
      <point x="470" y="257"/>
      <point x="463" y="253" type="curve"/>
      <point x="426" y="277"/>
      <point x="372" y="285"/>
      <point x="321" y="291" type="curve" smooth="yes"/>
      <point x="204" y="305"/>
      <point x="155" y="308"/>
      <point x="155" y="347" type="curve" smooth="yes"/>
      <point x="155" y="367"/>
      <point x="168" y="379"/>
      <point x="181" y="387" type="curve"/>
      <point x="213" y="370"/>
      <point x="250" y="362"/>
      <point x="282" y="357" type="curve" smooth="yes"/>
      <point x="362" y="346"/>
      <point x="481" y="346"/>
    </contour>
  </outline>
</glyph>
<glyph name="dieresis" format="1">
  <advance width="404"/>
  <unicode hex="00A8"/>
  <outline>
    <contour>
      <point x="112" y="531" type="line"/>
      <point x="238" y="531" type="line"/>
      <point x="252" y="665" type="line"/>
      <point x="126" y="665" type="line"/>
    </contour>
    <contour>
      <point x="293" y="531" type="line"/>
      <point x="420" y="531" type="line"/>
      <point x="434" y="665" type="line"/>
      <point x="307" y="665" type="line"/>
    </contour>
  </outline>
</glyph>
<glyph name="copyright" format="1">
  <advance width="584"/>
  <unicode hex="00A9"/>
  <outline>
    <contour>
      <point x="584" y="285" type="curve" smooth="yes"/>
      <point x="584" y="421"/>
      <point x="487" y="529"/>
      <point x="347" y="529" type="curve" smooth="yes"/>
      <point x="192" y="529"/>
      <point x="55" y="396"/>
      <point x="55" y="236" type="curve" smooth="yes"/>
      <point x="55" y="99"/>
      <point x="155" y="-7"/>
      <point x="293" y="-7" type="curve" smooth="yes"/>
      <point x="445" y="-7"/>
      <point x="584" y="123"/>
    </contour>
    <contour>
      <point x="515" y="282" type="curve" smooth="yes"/>
      <point x="515" y="160"/>
      <point x="423" y="58"/>
      <point x="298" y="58" type="curve" smooth="yes"/>
      <point x="186" y="58"/>
      <point x="124" y="139"/>
      <point x="124" y="239" type="curve" smooth="yes"/>
      <point x="124" y="358"/>
      <point x="211" y="463"/>
      <point x="341" y="463" type="curve" smooth="yes"/>
      <point x="455" y="463"/>
      <point x="515" y="381"/>
    </contour>
    <contour>
      <point x="418" y="156" type="curve"/>
      <point x="431" y="229" type="line"/>
      <point x="381" y="234" type="line"/>
      <point x="369" y="188" type="line"/>
      <point x="356" y="180"/>
      <point x="333" y="174"/>
      <point x="312" y="174" type="curve" smooth="yes"/>
      <point x="275" y="174"/>
      <point x="247" y="193"/>
      <point x="247" y="252" type="curve" smooth="yes"/>
      <point x="247" y="316"/>
      <point x="280" y="354"/>
      <point x="330" y="354" type="curve"/>
      <point x="351" y="354"/>
      <point x="370" y="351"/>
      <point x="385" y="339" type="curve"/>
      <point x="388" y="298" type="line"/>
      <point x="439" y="303" type="line"/>
      <point x="439" y="376" type="line"/>
      <point x="421" y="394"/>
      <point x="382" y="409"/>
      <point x="336" y="409" type="curve" smooth="yes"/>
      <point x="236" y="409"/>
      <point x="174" y="336"/>
      <point x="174" y="243" type="curve" smooth="yes"/>
      <point x="174" y="154"/>
      <point x="231" y="118"/>
      <point x="298" y="118" type="curve" smooth="yes"/>
      <point x="343" y="118"/>
      <point x="394" y="134"/>
    </contour>
  </outline>
</glyph>
<glyph name="ordfeminine" format="1">
  <advance width="377"/>
  <unicode hex="00AA"/>
  <outline>
    <contour>
      <point x="375" y="699" type="line"/>
      <point x="364" y="663"/>
      <point x="355" y="628"/>
      <point x="350" y="591" type="curve" smooth="yes"/>
      <point x="335" y="478" type="line"/>
      <point x="372" y="478" type="line"/>
      <point x="366" y="423" type="line"/>
      <point x="345" y="405" type="line"/>
      <point x="251" y="405" type="line"/>
      <point x="248" y="466" type="line"/>
      <point x="229" y="429"/>
      <point x="198" y="398"/>
      <point x="149" y="398" type="curve" smooth="yes"/>
      <point x="82" y="398"/>
      <point x="50" y="456"/>
      <point x="50" y="525" type="curve" smooth="yes"/>
      <point x="50" y="606"/>
      <point x="93" y="705"/>
      <point x="189" y="705" type="curve" smooth="yes"/>
      <point x="234" y="705"/>
      <point x="262" y="683"/>
      <point x="274" y="651" type="curve"/>
      <point x="278" y="667"/>
      <point x="283" y="683"/>
      <point x="289" y="699" type="curve"/>
    </contour>
    <contour>
      <point x="204" y="633" type="curve" smooth="yes"/>
      <point x="167" y="633"/>
      <point x="147" y="590"/>
      <point x="147" y="536" type="curve" smooth="yes"/>
      <point x="147" y="496"/>
      <point x="158" y="471"/>
      <point x="185" y="471" type="curve" smooth="yes"/>
      <point x="223" y="471"/>
      <point x="251" y="518"/>
      <point x="256" y="556" type="curve"/>
      <point x="256" y="557" type="line"/>
      <point x="257" y="563" type="line"/>
      <point x="259" y="608"/>
      <point x="232" y="633"/>
    </contour>
  </outline>
</glyph>
<glyph name="logicalnot" format="1">
  <advance width="556"/>
  <unicode hex="00AC"/>
  <outline>
    <contour>
      <point x="403" y="75" type="line"/>
      <point x="489" y="75" type="line"/>
      <point x="515" y="325" type="line"/>
      <point x="44" y="325" type="line"/>
      <point x="35" y="237" type="line"/>
      <point x="420" y="237" type="line"/>
    </contour>
  </outline>
</glyph>
<glyph name="registered" format="1">
  <advance width="561"/>
  <unicode hex="00AE"/>
  <outline>
    <contour>
      <point x="280" y="159" type="curve" smooth="yes"/>
      <point x="419" y="159"/>
      <point x="531" y="270"/>
      <point x="531" y="409" type="curve" smooth="yes"/>
      <point x="531" y="548"/>
      <point x="421" y="660"/>
      <point x="281" y="660" type="curve" smooth="yes"/>
      <point x="141" y="660"/>
      <point x="30" y="548"/>
      <point x="30" y="409" type="curve" smooth="yes"/>
      <point x="30" y="269"/>
      <point x="142" y="159"/>
    </contour>
    <contour>
      <point x="280" y="224" type="curve" smooth="yes"/>
      <point x="168" y="224"/>
      <point x="100" y="308"/>
      <point x="100" y="409" type="curve" smooth="yes"/>
      <point x="100" y="509"/>
      <point x="167" y="595"/>
      <point x="281" y="595" type="curve" smooth="yes"/>
      <point x="394" y="595"/>
      <point x="461" y="509"/>
      <point x="461" y="409" type="curve" smooth="yes"/>
      <point x="461" y="309"/>
      <point x="392" y="224"/>
    </contour>
    <contour>
      <point x="167" y="334" type="line"/>
      <point x="194" y="334" type="line"/>
      <point x="194" y="494" type="line"/>
      <point x="167" y="494" type="line"/>
      <point x="167" y="542" type="line"/>
      <point x="289" y="542" type="line" smooth="yes"/>
      <point x="354" y="542"/>
      <point x="393" y="517"/>
      <point x="393" y="464" type="curve" smooth="yes"/>
      <point x="393" y="430"/>
      <point x="373" y="407"/>
      <point x="344" y="395" type="curve"/>
      <point x="379" y="334" type="line"/>
      <point x="408" y="334" type="line"/>
      <point x="408" y="286" type="line"/>
      <point x="335" y="286" type="line"/>
      <point x="284" y="382" type="line"/>
      <point x="256" y="382" type="line"/>
      <point x="256" y="334" type="line"/>
      <point x="282" y="334" type="line"/>
      <point x="282" y="286" type="line"/>
      <point x="167" y="286" type="line"/>
    </contour>
    <contour>
      <point x="275" y="427" type="line" smooth="yes"/>
      <point x="315" y="427"/>
      <point x="326" y="439"/>
      <point x="326" y="462" type="curve" smooth="yes"/>
      <point x="326" y="486"/>
      <point x="314" y="494"/>
      <point x="277" y="494" type="curve" smooth="yes"/>
      <point x="256" y="494" type="line"/>
      <point x="256" y="427" type="line"/>
    </contour>
  </outline>
</glyph>
<glyph name="macron" format="1">
  <advance width="328"/>
  <unicode hex="00AF"/>
  <outline>
    <contour>
      <point x="107" y="634" type="line"/>
      <point x="370" y="634" type="line"/>
      <point x="360" y="536" type="line"/>
      <point x="97" y="536" type="line"/>
    </contour>
  </outline>
</glyph>
<glyph name="degree" format="1">
  <advance width="357"/>
  <unicode hex="00B0"/>
  <outline>
    <contour>
      <point x="185" y="342" type="curve" smooth="yes"/>
      <point x="293" y="342"/>
      <point x="359" y="421"/>
      <point x="359" y="520" type="curve" smooth="yes"/>
      <point x="359" y="598"/>
      <point x="315" y="660"/>
      <point x="220" y="660" type="curve" smooth="yes"/>
      <point x="115" y="660"/>
      <point x="44" y="581"/>
      <point x="44" y="482" type="curve" smooth="yes"/>
      <point x="44" y="402"/>
      <point x="92" y="342"/>
    </contour>
    <contour>
      <point x="194" y="432" type="curve"/>
      <point x="168" y="432"/>
      <point x="147" y="447"/>
      <point x="147" y="488" type="curve" smooth="yes"/>
      <point x="147" y="550"/>
      <point x="177" y="570"/>
      <point x="211" y="570" type="curve" smooth="yes"/>
      <point x="236" y="570"/>
      <point x="256" y="556"/>
      <point x="256" y="513" type="curve" smooth="yes"/>
      <point x="256" y="452"/>
      <point x="227" y="432"/>
    </contour>
  </outline>
</glyph>
<glyph name="plusminus" format="1">
  <advance width="409"/>
  <unicode hex="00B1"/>
  <outline>
    <contour>
      <point x="33" y="249" type="line"/>
      <point x="163" y="249" type="line"/>
      <point x="150" y="120" type="line"/>
      <point x="236" y="120" type="line"/>
      <point x="249" y="249" type="line"/>
      <point x="373" y="249" type="line"/>
      <point x="382" y="337" type="line"/>
      <point x="258" y="337" type="line"/>
      <point x="272" y="467" type="line"/>
      <point x="186" y="467" type="line"/>
      <point x="172" y="337" type="line"/>
      <point x="42" y="337" type="line"/>
    </contour>
    <contour>
      <point x="7" y="0" type="line"/>
      <point x="347" y="0" type="line"/>
      <point x="356" y="88" type="line"/>
      <point x="16" y="88" type="line"/>
    </contour>
  </outline>
</glyph>
<glyph name="threesuperior" format="1">
  <advance width="343"/>
  <unicode hex="00B3"/>
  <outline>
    <contour>
      <point x="150" y="658" type="line"/>
      <point x="163" y="699" type="line"/>
      <point x="178" y="707"/>
      <point x="191" y="709"/>
      <point x="203" y="709" type="curve" smooth="yes"/>
      <point x="231" y="709"/>
      <point x="241" y="699"/>
      <point x="241" y="678" type="curve" smooth="yes"/>
      <point x="241" y="638"/>
      <point x="207" y="634"/>
      <point x="170" y="632" type="curve"/>
      <point x="164" y="576" type="line"/>
      <point x="207" y="573"/>
      <point x="238" y="568"/>
      <point x="238" y="531" type="curve" smooth="yes"/>
      <point x="238" y="503"/>
      <point x="220" y="483"/>
      <point x="185" y="483" type="curve" smooth="yes"/>
      <point x="149" y="483"/>
      <point x="134" y="503"/>
      <point x="127" y="532" type="curve"/>
      <point x="52" y="507" type="line"/>
      <point x="58" y="435"/>
      <point x="117" y="408"/>
      <point x="189" y="408" type="curve" smooth="yes"/>
      <point x="283" y="408"/>
      <point x="344" y="454"/>
      <point x="344" y="525" type="curve" smooth="yes"/>
      <point x="344" y="564"/>
      <point x="325" y="596"/>
      <point x="281" y="608" type="curve"/>
      <point x="281" y="610" type="line"/>
      <point x="327" y="631"/>
      <point x="350" y="661"/>
      <point x="350" y="698" type="curve" smooth="yes"/>
      <point x="350" y="747"/>
      <point x="309" y="784"/>
      <point x="229" y="784" type="curve" smooth="yes"/>
      <point x="189" y="784"/>
      <point x="134" y="775"/>
      <point x="97" y="759" type="curve"/>
      <point x="75" y="664" type="line"/>
    </contour>
  </outline>
</glyph>
<glyph name="acute" format="1">
  <advance width="431"/>
  <unicode hex="00B4"/>
  <outline>
    <contour>
      <point x="463" y="600" type="line"/>
      <point x="404" y="700" type="line"/>
      <point x="230" y="557" type="line"/>
      <point x="259" y="508" type="line"/>
    </contour>
  </outline>
</glyph>
<glyph name="onesuperior" format="1">
  <advance width="274"/>
  <unicode hex="00B9"/>
  <outline>
    <contour>
      <point x="50" y="490" type="line"/>
      <point x="121" y="490" type="line"/>
      <point x="143" y="704" type="line"/>
      <point x="72" y="704" type="line"/>
      <point x="80" y="779" type="line"/>
      <point x="250" y="779" type="line"/>
      <point x="220" y="490" type="line"/>
      <point x="284" y="490" type="line"/>
      <point x="276" y="415" type="line"/>
      <point x="42" y="415" type="line"/>
    </contour>
  </outline>
</glyph>
<glyph name="onehalf" format="1">
  <advance width="768"/>
  <unicode hex="00BD"/>
  <outline>
    <contour>
      <point x="513" y="239" type="line"/>
      <point x="527" y="284" type="line"/>
      <point x="542" y="292"/>
      <point x="560" y="295"/>
      <point x="573" y="295" type="curve" smooth="yes"/>
      <point x="601" y="295"/>
      <point x="618" y="281"/>
      <point x="618" y="262" type="curve" smooth="yes"/>
      <point x="618" y="211"/>
      <point x="500" y="133"/>
      <point x="411" y="70" type="curve"/>
      <point x="413" y="0" type="line"/>
      <point x="713" y="0" type="line"/>
      <point x="728" y="114" type="line"/>
      <point x="644" y="124" type="line"/>
      <point x="638" y="75" type="line"/>
      <point x="534" y="75" type="line"/>
      <point x="594" y="115"/>
      <point x="728" y="194"/>
      <point x="728" y="280" type="curve" smooth="yes"/>
      <point x="728" y="323"/>
      <point x="694" y="370"/>
      <point x="597" y="370" type="curve" smooth="yes"/>
      <point x="550" y="370"/>
      <point x="498" y="359"/>
      <point x="462" y="344" type="curve"/>
      <point x="437" y="245" type="line"/>
    </contour>
    <contour>
      <point x="618" y="650" type="line"/>
      <point x="397" y="325" type="line"/>
      <point x="185" y="0" type="line"/>
      <point x="99" y="0" type="line"/>
      <point x="328" y="337" type="line"/>
      <point x="532" y="650" type="line"/>
    </contour>
    <contour>
      <point x="42" y="361" type="line"/>
      <point x="113" y="361" type="line"/>
      <point x="135" y="575" type="line"/>
      <point x="64" y="575" type="line"/>
      <point x="72" y="650" type="line"/>
      <point x="242" y="650" type="line"/>
      <point x="212" y="361" type="line"/>
      <point x="276" y="361" type="line"/>
      <point x="268" y="286" type="line"/>
      <point x="34" y="286" type="line"/>
    </contour>
  </outline>
</glyph>
<glyph name="Agrave" format="1">
  <advance width="660"/>
  <unicode hex="00C0"/>
  <outline>
    <contour>
      <point x="-5" y="114" type="line"/>
      <point x="52" y="114" type="line"/>
      <point x="274" y="536" type="line"/>
      <point x="188" y="536" type="line"/>
      <point x="200" y="650" type="line"/>
      <point x="414" y="650" type="line"/>
      <point x="583" y="114" type="line"/>
      <point x="642" y="114" type="line"/>
      <point x="630" y="0" type="line"/>
      <point x="382" y="0" type="line"/>
      <point x="394" y="114" type="line"/>
      <point x="444" y="114" type="line"/>
      <point x="427" y="180" type="line"/>
      <point x="215" y="180" type="line"/>
      <point x="183" y="114" type="line"/>
      <point x="241" y="114" type="line"/>
      <point x="229" y="0" type="line"/>
      <point x="-17" y="0" type="line"/>
    </contour>
    <contour>
      <point x="441" y="688" type="line"/>
      <point x="454" y="745" type="line"/>
      <point x="244" y="833" type="line"/>
      <point x="218" y="716" type="line"/>
    </contour>
    <contour>
      <point x="351" y="459" type="line"/>
      <point x="262" y="276" type="line"/>
      <point x="403" y="276" type="line"/>
      <point x="357" y="459" type="line"/>
    </contour>
  </outline>
</glyph>
<glyph name="Ccedilla" format="1">
  <advance width="617"/>
  <unicode hex="00C7"/>
  <outline>
    <contour>
      <point x="559" y="69" type="line"/>
      <point x="515" y="25"/>
      <point x="416" y="-6"/>
      <point x="328" y="-10" type="curve"/>
      <point x="324" y="-41" type="line"/>
      <point x="332" y="-41" type="line" smooth="yes"/>
      <point x="391" y="-41"/>
      <point x="411" y="-76"/>
      <point x="411" y="-114" type="curve" smooth="yes"/>
      <point x="411" y="-185"/>
      <point x="339" y="-209"/>
      <point x="273" y="-209" type="curve" smooth="yes"/>
      <point x="226" y="-209"/>
      <point x="182" y="-197"/>
      <point x="163" y="-179" type="curve"/>
      <point x="192" y="-109" type="line"/>
      <point x="206" y="-119"/>
      <point x="231" y="-132"/>
      <point x="267" y="-132" type="curve" smooth="yes"/>
      <point x="296" y="-132"/>
      <point x="304" y="-124"/>
      <point x="304" y="-109" type="curve" smooth="yes"/>
      <point x="304" y="-96"/>
      <point x="298" y="-86"/>
      <point x="269" y="-86" type="curve" smooth="yes"/>
      <point x="233" y="-86" type="line"/>
      <point x="245" y="-3" type="line"/>
      <point x="105" y="24"/>
      <point x="28" y="141"/>
      <point x="28" y="286" type="curve" smooth="yes"/>
      <point x="28" y="448"/>
      <point x="125" y="660"/>
      <point x="387" y="660" type="curve" smooth="yes"/>
      <point x="500" y="660"/>
      <point x="573" y="621"/>
      <point x="610" y="582" type="curve"/>
      <point x="610" y="431" type="line"/>
      <point x="502" y="421" type="line"/>
      <point x="497" y="507" type="line"/>
      <point x="467" y="530"/>
      <point x="415" y="542"/>
      <point x="369" y="542" type="curve" smooth="yes"/>
      <point x="248" y="542"/>
      <point x="167" y="459"/>
      <point x="167" y="302" type="curve" smooth="yes"/>
      <point x="167" y="173"/>
      <point x="222" y="108"/>
      <point x="335" y="108" type="curve" smooth="yes"/>
      <point x="383" y="108"/>
      <point x="433" y="120"/>
      <point x="458" y="135" type="curve"/>
      <point x="483" y="232" type="line"/>
      <point x="588" y="222" type="line"/>
    </contour>
  </outline>
</glyph>
<glyph name="Icircumflex" format="1">
  <advance width="339"/>
  <unicode hex="00CE"/>
  <outline>
    <contour>
      <point x="21" y="114" type="line"/>
      <point x="88" y="114" type="line"/>
      <point x="132" y="536" type="line"/>
      <point x="65" y="536" type="line"/>
      <point x="77" y="650" type="line"/>
      <point x="340" y="650" type="line"/>
      <point x="328" y="536" type="line"/>
      <point x="260" y="536" type="line"/>
      <point x="216" y="114" type="line"/>
      <point x="284" y="114" type="line"/>
      <point x="272" y="0" type="line"/>
      <point x="9" y="0" type="line"/>
    </contour>
    <contour>
      <point x="249" y="844" type="line"/>
      <point x="205" y="844" type="line"/>
      <point x="60" y="737" type="line"/>
      <point x="84" y="685" type="line"/>
      <point x="213" y="745" type="line"/>
      <point x="338" y="685" type="line"/>
      <point x="371" y="737" type="line"/>
    </contour>
  </outline>
</glyph>
<glyph name="multiply" format="1">
  <advance width="365"/>
  <unicode hex="00D7"/>
  <outline>
    <contour>
      <point x="76" y="120" type="line"/>
      <point x="177" y="213" type="line"/>
      <point x="257" y="122" type="line"/>
      <point x="324" y="185" type="line"/>
      <point x="244" y="276" type="line"/>
      <point x="342" y="366" type="line"/>
      <point x="288" y="428" type="line"/>
      <point x="190" y="338" type="line"/>
      <point x="110" y="430" type="line"/>
      <point x="43" y="368" type="line"/>
      <point x="123" y="276" type="line"/>
      <point x="21" y="182" type="line"/>
    </contour>
  </outline>
</glyph>
<glyph name="Udieresis" format="1">
  <advance width="690"/>
  <unicode hex="00DC"/>
  <outline>
    <contour>
      <point x="454" y="650" type="line"/>
      <point x="703" y="650" type="line"/>
      <point x="691" y="536" type="line"/>
      <point x="635" y="536" type="line"/>
      <point x="607" y="269" type="line" smooth="yes"/>
      <point x="592" y="131"/>
      <point x="520" y="-10"/>
      <point x="320" y="-10" type="curve" smooth="yes"/>
      <point x="130" y="-10"/>
      <point x="65" y="118"/>
      <point x="80" y="258" type="curve" smooth="yes"/>
      <point x="109" y="536" type="line"/>
      <point x="54" y="536" type="line"/>
      <point x="66" y="650" type="line"/>
      <point x="323" y="650" type="line"/>
      <point x="311" y="536" type="line"/>
      <point x="238" y="536" type="line"/>
      <point x="209" y="262" type="line" smooth="yes"/>
      <point x="200" y="173"/>
      <point x="230" y="108"/>
      <point x="330" y="108" type="curve" smooth="yes"/>
      <point x="428" y="108"/>
      <point x="477" y="172"/>
      <point x="487" y="269" type="curve" smooth="yes"/>
      <point x="515" y="536" type="line"/>
      <point x="442" y="536" type="line"/>
    </contour>
    <contour>
      <point x="424" y="705" type="line"/>
      <point x="551" y="705" type="line"/>
      <point x="565" y="839" type="line"/>
      <point x="438" y="839" type="line"/>
    </contour>
    <contour>
      <point x="243" y="705" type="line"/>
      <point x="370" y="705" type="line"/>
      <point x="384" y="839" type="line"/>
      <point x="257" y="839" type="line"/>
    </contour>
  </outline>
</glyph>
<glyph name="germandbls" format="1">
  <advance width="650"/>
  <unicode hex="00DF"/>
  <outline>
    <contour>
      <point x="8" y="353" type="line"/>
      <point x="86" y="353" type="line"/>
      <point x="40" y="-22" type="line" smooth="yes"/>
      <point x="35" y="-63"/>
      <point x="22" y="-124"/>
      <point x="-20" y="-124" type="curve" smooth="yes"/>
      <point x="-40" y="-124"/>
      <point x="-66" y="-110"/>
      <point x="-66" y="-43" type="curve"/>
      <point x="-163" y="-72" type="line"/>
      <point x="-163" y="-176"/>
      <point x="-102" y="-222"/>
      <point x="-15" y="-222" type="curve" smooth="yes"/>
      <point x="118" y="-222"/>
      <point x="153" y="-115"/>
      <point x="164" y="-24" type="curve" smooth="yes"/>
      <point x="226" y="481" type="line" smooth="yes"/>
      <point x="236" y="561"/>
      <point x="265" y="602"/>
      <point x="358" y="602" type="curve" smooth="yes"/>
      <point x="438" y="602"/>
      <point x="460" y="572"/>
      <point x="460" y="536" type="curve" smooth="yes"/>
      <point x="460" y="429"/>
      <point x="268" y="461"/>
      <point x="268" y="315" type="curve" smooth="yes"/>
      <point x="268" y="216"/>
      <point x="355" y="198"/>
      <point x="423" y="181" type="curve" smooth="yes"/>
      <point x="465" y="171"/>
      <point x="499" y="161"/>
      <point x="499" y="131" type="curve" smooth="yes"/>
      <point x="499" y="103"/>
      <point x="468" y="88"/>
      <point x="427" y="88" type="curve" smooth="yes"/>
      <point x="413" y="88"/>
      <point x="376" y="89"/>
      <point x="353" y="97" type="curve"/>
      <point x="358" y="149" type="line"/>
      <point x="261" y="160" type="line"/>
      <point x="230" y="34" type="line"/>
      <point x="286" y="3"/>
      <point x="366" y="-10"/>
      <point x="443" y="-10" type="curve" smooth="yes"/>
      <point x="546" y="-10"/>
      <point x="629" y="37"/>
      <point x="629" y="139" type="curve" smooth="yes"/>
      <point x="629" y="246"/>
      <point x="537" y="261"/>
      <point x="466" y="280" type="curve" smooth="yes"/>
      <point x="427" y="290"/>
      <point x="397" y="301"/>
      <point x="397" y="329" type="curve" smooth="yes"/>
      <point x="397" y="401"/>
      <point x="589" y="390"/>
      <point x="589" y="546" type="curve" smooth="yes"/>
      <point x="589" y="630"/>
      <point x="533" y="698"/>
      <point x="368" y="698" type="curve" smooth="yes"/>
      <point x="231" y="698"/>
      <point x="124" y="651"/>
      <point x="104" y="493" type="curve" smooth="yes"/>
      <point x="98" y="451" type="line"/>
      <point x="48" y="451" type="line"/>
      <point x="14" y="420" type="line"/>
    </contour>
  </outline>
</glyph>
<glyph name="ae" format="1">
  <advance width="711"/>
  <unicode hex="00E6"/>
  <outline>
    <contour>
      <point x="227" y="372" type="curve" smooth="yes"/>
      <point x="300" y="372"/>
      <point x="294" y="313"/>
      <point x="289" y="267" type="curve" smooth="yes"/>
      <point x="288" y="262" type="line" smooth="yes"/>
      <point x="288" y="259"/>
      <point x="287" y="256"/>
      <point x="286" y="252" type="curve"/>
      <point x="264" y="254"/>
      <point x="239" y="256"/>
      <point x="219" y="256" type="curve" smooth="yes"/>
      <point x="109" y="256"/>
      <point x="10" y="214"/>
      <point x="10" y="110" type="curve" smooth="yes"/>
      <point x="10" y="23"/>
      <point x="80" y="-10"/>
      <point x="150" y="-10" type="curve" smooth="yes"/>
      <point x="228" y="-10"/>
      <point x="277" y="30"/>
      <point x="308" y="75" type="curve"/>
      <point x="342" y="16"/>
      <point x="404" y="-10"/>
      <point x="475" y="-10" type="curve" smooth="yes"/>
      <point x="594" y="-10"/>
      <point x="667" y="63"/>
      <point x="681" y="142" type="curve"/>
      <point x="580" y="162" type="line"/>
      <point x="573" y="139"/>
      <point x="562" y="88"/>
      <point x="494" y="88" type="curve" smooth="yes"/>
      <point x="440" y="88"/>
      <point x="420" y="121"/>
      <point x="416" y="179" type="curve"/>
      <point x="461" y="184"/>
      <point x="501" y="190"/>
      <point x="528" y="196" type="curve" smooth="yes"/>
      <point x="647" y="221"/>
      <point x="689" y="269"/>
      <point x="689" y="332" type="curve" smooth="yes"/>
      <point x="689" y="412"/>
      <point x="621" y="460"/>
      <point x="525" y="460" type="curve" smooth="yes"/>
      <point x="469" y="460"/>
      <point x="421" y="443"/>
      <point x="383" y="415" type="curve"/>
      <point x="352" y="443"/>
      <point x="304" y="460"/>
      <point x="236" y="460" type="curve" smooth="yes"/>
      <point x="189" y="460"/>
      <point x="135" y="452"/>
      <point x="71" y="418" type="curve"/>
      <point x="39" y="301" type="line"/>
      <point x="139" y="290" type="line"/>
      <point x="163" y="354" type="line"/>
      <point x="184" y="365"/>
      <point x="202" y="372"/>
    </contour>
    <contour>
      <point x="190" y="82" type="curve" smooth="yes"/>
      <point x="160" y="82"/>
      <point x="148" y="101"/>
      <point x="148" y="130" type="curve" smooth="yes"/>
      <point x="148" y="171"/>
      <point x="171" y="196"/>
      <point x="222" y="196" type="curve" smooth="yes"/>
      <point x="239" y="196"/>
      <point x="261" y="193"/>
      <point x="281" y="190" type="curve"/>
      <point x="281" y="187" type="line" smooth="yes"/>
      <point x="270" y="112"/>
      <point x="228" y="82"/>
    </contour>
    <contour>
      <point x="508" y="373" type="curve" smooth="yes"/>
      <point x="534" y="373"/>
      <point x="559" y="361"/>
      <point x="559" y="327" type="curve" smooth="yes"/>
      <point x="559" y="296"/>
      <point x="537" y="275"/>
      <point x="459" y="260" type="curve"/>
      <point x="447" y="257"/>
      <point x="434" y="255"/>
      <point x="419" y="254" type="curve"/>
      <point x="427" y="315"/>
      <point x="452" y="373"/>
    </contour>
  </outline>
</glyph>
<glyph name="ccedilla" format="1">
  <advance width="439"/>
  <unicode hex="00E7"/>
  <outline>
    <contour>
      <point x="243" y="362" type="curve" smooth="yes"/>
      <point x="189" y="362"/>
      <point x="149" y="305"/>
      <point x="149" y="200" type="curve" smooth="yes"/>
      <point x="149" y="132"/>
      <point x="166" y="88"/>
      <point x="223" y="88" type="curve" smooth="yes"/>
      <point x="273" y="88"/>
      <point x="293" y="123"/>
      <point x="310" y="188" type="curve"/>
      <point x="411" y="168" type="line"/>
      <point x="394" y="89"/>
      <point x="342" y="4"/>
      <point x="232" y="-8" type="curve"/>
      <point x="227" y="-41" type="line"/>
      <point x="235" y="-41" type="line" smooth="yes"/>
      <point x="294" y="-41"/>
      <point x="314" y="-76"/>
      <point x="314" y="-114" type="curve" smooth="yes"/>
      <point x="314" y="-185"/>
      <point x="242" y="-209"/>
      <point x="176" y="-209" type="curve" smooth="yes"/>
      <point x="129" y="-209"/>
      <point x="85" y="-197"/>
      <point x="66" y="-179" type="curve"/>
      <point x="95" y="-109" type="line"/>
      <point x="109" y="-119"/>
      <point x="134" y="-132"/>
      <point x="170" y="-132" type="curve" smooth="yes"/>
      <point x="199" y="-132"/>
      <point x="207" y="-124"/>
      <point x="207" y="-109" type="curve" smooth="yes"/>
      <point x="207" y="-96"/>
      <point x="201" y="-86"/>
      <point x="172" y="-86" type="curve" smooth="yes"/>
      <point x="136" y="-86" type="line"/>
      <point x="148" y="-4" type="line"/>
      <point x="63" y="16"/>
      <point x="15" y="86"/>
      <point x="15" y="195" type="curve" smooth="yes"/>
      <point x="15" y="323"/>
      <point x="82" y="460"/>
      <point x="248" y="460" type="curve" smooth="yes"/>
      <point x="293" y="460"/>
      <point x="358" y="450"/>
      <point x="406" y="422" type="curve"/>
      <point x="411" y="285" type="line"/>
      <point x="308" y="274" type="line"/>
      <point x="302" y="354" type="line"/>
      <point x="279" y="362"/>
      <point x="263" y="362"/>
    </contour>
  </outline>
</glyph>
<glyph name="ntilde" format="1">
  <advance width="541"/>
  <unicode hex="00F1"/>
  <outline>
    <contour>
      <point x="61" y="451" type="line"/>
      <point x="200" y="451" type="line"/>
      <point x="205" y="365" type="line"/>
      <point x="236" y="422"/>
      <point x="283" y="460"/>
      <point x="350" y="460" type="curve" smooth="yes"/>
      <point x="431" y="460"/>
      <point x="495" y="411"/>
      <point x="482" y="304" type="curve" smooth="yes"/>
      <point x="457" y="98" type="line"/>
      <point x="515" y="98" type="line"/>
      <point x="506" y="25" type="line"/>
      <point x="476" y="0" type="line"/>
      <point x="322" y="0" type="line"/>
      <point x="353" y="254" type="line" smooth="yes"/>
      <point x="363" y="332"/>
      <point x="341" y="362"/>
      <point x="292" y="362" type="curve" smooth="yes"/>
      <point x="236" y="362"/>
      <point x="207" y="324"/>
      <point x="197" y="267" type="curve"/>
      <point x="165" y="0" type="line"/>
      <point x="41" y="0" type="line"/>
      <point x="84" y="353" type="line"/>
      <point x="21" y="353" type="line"/>
      <point x="30" y="424" type="line"/>
    </contour>
    <contour>
      <point x="198" y="515" type="line"/>
      <point x="209" y="544"/>
      <point x="225" y="558"/>
      <point x="247" y="558" type="curve" smooth="yes"/>
      <point x="286" y="558"/>
      <point x="316" y="517"/>
      <point x="366" y="517" type="curve" smooth="yes"/>
      <point x="431" y="517"/>
      <point x="454" y="589"/>
      <point x="460" y="647" type="curve"/>
      <point x="408" y="658" type="line"/>
      <point x="396" y="629"/>
      <point x="377" y="617"/>
      <point x="358" y="617" type="curve" smooth="yes"/>
      <point x="325" y="617"/>
      <point x="292" y="655"/>
      <point x="248" y="655" type="curve" smooth="yes"/>
      <point x="183" y="655"/>
      <point x="152" y="569"/>
      <point x="151" y="531" type="curve"/>
    </contour>
  </outline>
</glyph>
<glyph name="yacute" format="1">
  <advance width="481"/>
  <unicode hex="00FD"/>
  <outline>
    <contour>
      <point x="255" y="148" type="line"/>
      <point x="261" y="148" type="line"/>
      <point x="323" y="233"/>
      <point x="349" y="288"/>
      <point x="349" y="358" type="curve" smooth="yes"/>
      <point x="349" y="386"/>
      <point x="343" y="417"/>
      <point x="329" y="451" type="curve"/>
      <point x="468" y="451" type="line"/>
      <point x="482" y="376"/>
      <point x="473" y="288"/>
      <point x="398" y="189" type="curve" smooth="yes"/>
      <point x="373" y="156"/>
      <point x="326" y="102"/>
      <point x="280" y="52" type="curve"/>
      <point x="254" y="-115" type="line"/>
      <point x="317" y="-115" type="line"/>
      <point x="308" y="-186" type="line"/>
      <point x="277" y="-213" type="line"/>
      <point x="46" y="-213" type="line"/>
      <point x="55" y="-142" type="line"/>
      <point x="86" y="-115" type="line"/>
      <point x="130" y="-115" type="line"/>
      <point x="156" y="53" type="line"/>
      <point x="55" y="353" type="line"/>
      <point x="8" y="353" type="line"/>
      <point x="17" y="424" type="line"/>
      <point x="48" y="451" type="line"/>
      <point x="255" y="451" type="line"/>
      <point x="246" y="380" type="line"/>
      <point x="215" y="353" type="line"/>
      <point x="188" y="353" type="line"/>
    </contour>
    <contour>
      <point x="446" y="600" type="line"/>
      <point x="387" y="700" type="line"/>
      <point x="213" y="557" type="line"/>
      <point x="242" y="508" type="line"/>
    </contour>
  </outline>
</glyph>
<glyph name="thorn" format="1">
  <advance width="511"/>
  <unicode hex="00FE"/>
  <outline>
    <contour>
      <point x="207" y="-186" type="line"/>
      <point x="176" y="-213" type="line"/>
      <point x="-65" y="-213" type="line"/>
      <point x="-56" y="-142" type="line"/>
      <point x="-25" y="-115" type="line"/>
      <point x="5" y="-115" type="line"/>
      <point x="92" y="590" type="line"/>
      <point x="29" y="590" type="line"/>
      <point x="38" y="661" type="line"/>
      <point x="69" y="688" type="line"/>
      <point x="230" y="688" type="line"/>
      <point x="212" y="547" type="line"/>
      <point x="190" y="371" type="line"/>
      <point x="217" y="421"/>
      <point x="260" y="460"/>
      <point x="326" y="460" type="curve" smooth="yes"/>
      <point x="435" y="460"/>
      <point x="486" y="370"/>
      <point x="486" y="269" type="curve" smooth="yes"/>
      <point x="486" y="139"/>
      <point x="418" y="-10"/>
      <point x="268" y="-10" type="curve" smooth="yes"/>
      <point x="209" y="-10"/>
      <point x="170" y="15"/>
      <point x="150" y="55" type="curve"/>
      <point x="129" y="-115" type="line"/>
      <point x="216" y="-115" type="line"/>
    </contour>
    <contour>
      <point x="252" y="88" type="curve" smooth="yes"/>
      <point x="314" y="88"/>
      <point x="351" y="177"/>
      <point x="351" y="254" type="curve" smooth="yes"/>
      <point x="351" y="312"/>
      <point x="331" y="362"/>
      <point x="280" y="362" type="curve" smooth="yes"/>
      <point x="219" y="362"/>
      <point x="185" y="300"/>
      <point x="173" y="239" type="curve"/>
      <point x="167" y="191" type="line"/>
      <point x="166" y="127"/>
      <point x="197" y="88"/>
    </contour>
  </outline>
</glyph>
<glyph name="Cacute" format="1">
  <advance width="617"/>
  <unicode hex="0106"/>
  <outline>
    <contour>
      <point x="559" y="69" type="line"/>
      <point x="513" y="23"/>
      <point x="404" y="-10"/>
      <point x="312" y="-10" type="curve" smooth="yes"/>
      <point x="130" y="-10"/>
      <point x="28" y="120"/>
      <point x="28" y="286" type="curve" smooth="yes"/>
      <point x="28" y="448"/>
      <point x="125" y="660"/>
      <point x="387" y="660" type="curve" smooth="yes"/>
      <point x="500" y="660"/>
      <point x="573" y="621"/>
      <point x="610" y="582" type="curve"/>
      <point x="610" y="431" type="line"/>
      <point x="502" y="421" type="line"/>
      <point x="497" y="507" type="line"/>
      <point x="467" y="530"/>
      <point x="415" y="542"/>
      <point x="369" y="542" type="curve" smooth="yes"/>
      <point x="248" y="542"/>
      <point x="167" y="459"/>
      <point x="167" y="302" type="curve" smooth="yes"/>
      <point x="167" y="173"/>
      <point x="222" y="108"/>
      <point x="335" y="108" type="curve" smooth="yes"/>
      <point x="383" y="108"/>
      <point x="433" y="120"/>
      <point x="458" y="135" type="curve"/>
      <point x="483" y="232" type="line"/>
      <point x="588" y="222" type="line"/>
    </contour>
    <contour>
      <point x="535" y="716" type="line"/>
      <point x="509" y="833" type="line"/>
      <point x="299" y="745" type="line"/>
      <point x="312" y="688" type="line"/>
    </contour>
  </outline>
</glyph>
<glyph name="cacute" format="1">
  <advance width="439"/>
  <unicode hex="0107"/>
  <outline>
    <contour>
      <point x="432" y="600" type="line"/>
      <point x="373" y="700" type="line"/>
      <point x="199" y="557" type="line"/>
      <point x="228" y="508" type="line"/>
    </contour>
    <contour>
      <point x="243" y="362" type="curve" smooth="yes"/>
      <point x="189" y="362"/>
      <point x="149" y="305"/>
      <point x="149" y="200" type="curve" smooth="yes"/>
      <point x="149" y="132"/>
      <point x="166" y="88"/>
      <point x="223" y="88" type="curve" smooth="yes"/>
      <point x="273" y="88"/>
      <point x="293" y="123"/>
      <point x="310" y="188" type="curve"/>
      <point x="411" y="168" type="line"/>
      <point x="393" y="83"/>
      <point x="333" y="-10"/>
      <point x="202" y="-10" type="curve" smooth="yes"/>
      <point x="84" y="-10"/>
      <point x="15" y="65"/>
      <point x="15" y="195" type="curve" smooth="yes"/>
      <point x="15" y="323"/>
      <point x="82" y="460"/>
      <point x="248" y="460" type="curve" smooth="yes"/>
      <point x="293" y="460"/>
      <point x="358" y="450"/>
      <point x="406" y="422" type="curve"/>
      <point x="411" y="285" type="line"/>
      <point x="308" y="274" type="line"/>
      <point x="302" y="354" type="line"/>
      <point x="279" y="362"/>
      <point x="263" y="362"/>
    </contour>
  </outline>
</glyph>
<glyph name="Ccaron" format="1">
  <advance width="617"/>
  <unicode hex="010C"/>
  <outline>
    <contour>
      <point x="559" y="69" type="line"/>
      <point x="513" y="23"/>
      <point x="404" y="-10"/>
      <point x="312" y="-10" type="curve" smooth="yes"/>
      <point x="130" y="-10"/>
      <point x="28" y="120"/>
      <point x="28" y="286" type="curve" smooth="yes"/>
      <point x="28" y="448"/>
      <point x="125" y="660"/>
      <point x="387" y="660" type="curve" smooth="yes"/>
      <point x="500" y="660"/>
      <point x="573" y="621"/>
      <point x="610" y="582" type="curve"/>
      <point x="610" y="431" type="line"/>
      <point x="502" y="421" type="line"/>
      <point x="497" y="507" type="line"/>
      <point x="467" y="530"/>
      <point x="415" y="542"/>
      <point x="369" y="542" type="curve" smooth="yes"/>
      <point x="248" y="542"/>
      <point x="167" y="459"/>
      <point x="167" y="302" type="curve" smooth="yes"/>
      <point x="167" y="173"/>
      <point x="222" y="108"/>
      <point x="335" y="108" type="curve" smooth="yes"/>
      <point x="383" y="108"/>
      <point x="433" y="120"/>
      <point x="458" y="135" type="curve"/>
      <point x="483" y="232" type="line"/>
      <point x="588" y="222" type="line"/>
    </contour>
    <contour>
      <point x="353" y="685" type="line"/>
      <point x="397" y="685" type="line"/>
      <point x="541" y="791" type="line"/>
      <point x="517" y="844" type="line"/>
      <point x="389" y="782" type="line"/>
      <point x="263" y="844" type="line"/>
      <point x="231" y="792" type="line"/>
    </contour>
  </outline>
</glyph>
<glyph name="Dcroat" format="1">
  <advance width="676"/>
  <unicode hex="0110"/>
  <outline>
    <contour>
      <point x="46" y="393" type="line"/>
      <point x="121" y="393" type="line"/>
      <point x="136" y="536" type="line"/>
      <point x="68" y="536" type="line"/>
      <point x="80" y="650" type="line"/>
      <point x="366" y="650" type="line" smooth="yes"/>
      <point x="562" y="650"/>
      <point x="658" y="540"/>
      <point x="658" y="363" type="curve" smooth="yes"/>
      <point x="658" y="152"/>
      <point x="521" y="0"/>
      <point x="306" y="0" type="curve" smooth="yes"/>
      <point x="12" y="0" type="line"/>
      <point x="24" y="114" type="line"/>
      <point x="92" y="114" type="line"/>
      <point x="110" y="293" type="line"/>
      <point x="35" y="293" type="line"/>
    </contour>
    <contour>
      <point x="308" y="114" type="line" smooth="yes"/>
      <point x="444" y="114"/>
      <point x="520" y="196"/>
      <point x="520" y="350" type="curve" smooth="yes"/>
      <point x="520" y="479"/>
      <point x="467" y="536"/>
      <point x="352" y="536" type="curve" smooth="yes"/>
      <point x="264" y="536" type="line"/>
      <point x="249" y="393" type="line"/>
      <point x="361" y="393" type="line"/>
      <point x="350" y="293" type="line"/>
      <point x="238" y="293" type="line"/>
      <point x="220" y="114" type="line"/>
    </contour>
  </outline>
</glyph>
<glyph name="Emacron" format="1">
  <advance width="569"/>
  <unicode hex="0112"/>
  <outline>
    <contour>
      <point x="220" y="819" type="line"/>
      <point x="522" y="819" type="line"/>
      <point x="512" y="721" type="line"/>
      <point x="210" y="721" type="line"/>
    </contour>
    <contour>
      <point x="497" y="0" type="line"/>
      <point x="8" y="0" type="line"/>
      <point x="20" y="114" type="line"/>
      <point x="89" y="114" type="line"/>
      <point x="133" y="536" type="line"/>
      <point x="64" y="536" type="line"/>
      <point x="76" y="650" type="line"/>
      <point x="559" y="650" type="line"/>
      <point x="559" y="460" type="line"/>
      <point x="449" y="450" type="line"/>
      <point x="439" y="536" type="line"/>
      <point x="261" y="536" type="line"/>
      <point x="245" y="383" type="line"/>
      <point x="517" y="383" type="line"/>
      <point x="505" y="270" type="line"/>
      <point x="233" y="270" type="line"/>
      <point x="217" y="114" type="line"/>
      <point x="400" y="114" type="line"/>
      <point x="429" y="200" type="line"/>
      <point x="537" y="190" type="line"/>
    </contour>
  </outline>
</glyph>
<glyph name="Ebreve" format="1">
  <advance width="569"/>
  <unicode hex="0114"/>
  <outline>
    <contour>
      <point x="410" y="833" type="curve"/>
      <point x="510" y="833" type="line"/>
      <point x="500" y="738"/>
      <point x="441" y="695"/>
      <point x="358" y="695" type="curve" smooth="yes"/>
      <point x="271" y="695"/>
      <point x="226" y="741"/>
      <point x="236" y="833" type="curve"/>
      <point x="336" y="833" type="line"/>
      <point x="332" y="797"/>
      <point x="340" y="772"/>
      <point x="366" y="772" type="curve" smooth="yes"/>
      <point x="393" y="772"/>
      <point x="406" y="801"/>
    </contour>
    <contour>
      <point x="497" y="0" type="line"/>
      <point x="8" y="0" type="line"/>
      <point x="20" y="114" type="line"/>
      <point x="89" y="114" type="line"/>
      <point x="133" y="536" type="line"/>
      <point x="64" y="536" type="line"/>
      <point x="76" y="650" type="line"/>
      <point x="559" y="650" type="line"/>
      <point x="559" y="460" type="line"/>
      <point x="449" y="450" type="line"/>
      <point x="439" y="536" type="line"/>
      <point x="261" y="536" type="line"/>
      <point x="245" y="383" type="line"/>
      <point x="517" y="383" type="line"/>
      <point x="505" y="270" type="line"/>
      <point x="233" y="270" type="line"/>
      <point x="217" y="114" type="line"/>
      <point x="400" y="114" type="line"/>
      <point x="429" y="200" type="line"/>
      <point x="537" y="190" type="line"/>
    </contour>
  </outline>
</glyph>
<glyph name="eogonek" format="1">
  <advance width="444"/>
  <unicode hex="0119"/>
  <outline>
    <contour>
      <point x="315" y="-188" type="line"/>
      <point x="292" y="-199"/>
      <point x="262" y="-208"/>
      <point x="225" y="-208" type="curve" smooth="yes"/>
      <point x="165" y="-208"/>
      <point x="118" y="-184"/>
      <point x="118" y="-125" type="curve" smooth="yes"/>
      <point x="118" y="-77"/>
      <point x="148" y="-36"/>
      <point x="188" y="-9" type="curve"/>
      <point x="90" y="-2"/>
      <point x="14" y="59"/>
      <point x="14" y="192" type="curve" smooth="yes"/>
      <point x="14" y="336"/>
      <point x="104" y="460"/>
      <point x="258" y="460" type="curve" smooth="yes"/>
      <point x="354" y="460"/>
      <point x="422" y="410"/>
      <point x="422" y="336" type="curve" smooth="yes"/>
      <point x="422" y="269"/>
      <point x="382" y="221"/>
      <point x="261" y="196" type="curve" smooth="yes"/>
      <point x="229" y="189"/>
      <point x="192" y="183"/>
      <point x="149" y="179" type="curve"/>
      <point x="153" y="121"/>
      <point x="173" y="88"/>
      <point x="227" y="88" type="curve" smooth="yes"/>
      <point x="295" y="88"/>
      <point x="306" y="139"/>
      <point x="313" y="162" type="curve"/>
      <point x="414" y="142" type="line"/>
      <point x="403" y="81"/>
      <point x="358" y="24"/>
      <point x="283" y="1" type="curve"/>
      <point x="236" y="-29"/>
      <point x="231" y="-60"/>
      <point x="231" y="-78" type="curve" smooth="yes"/>
      <point x="231" y="-110"/>
      <point x="247" y="-118"/>
      <point x="269" y="-118" type="curve" smooth="yes"/>
      <point x="284" y="-118"/>
      <point x="302" y="-114"/>
      <point x="315" y="-106" type="curve"/>
    </contour>
    <contour>
      <point x="196" y="261" type="curve" smooth="yes"/>
      <point x="276" y="276"/>
      <point x="292" y="301"/>
      <point x="292" y="328" type="curve" smooth="yes"/>
      <point x="292" y="361"/>
      <point x="267" y="373"/>
      <point x="241" y="373" type="curve" smooth="yes"/>
      <point x="185" y="373"/>
      <point x="160" y="315"/>
      <point x="152" y="254" type="curve"/>
      <point x="168" y="256"/>
      <point x="183" y="258"/>
    </contour>
  </outline>
</glyph>
<glyph name="Ecaron" format="1">
  <advance width="569"/>
  <unicode hex="011A"/>
  <outline>
    <contour>
      <point x="329" y="685" type="line"/>
      <point x="373" y="685" type="line"/>
      <point x="517" y="791" type="line"/>
      <point x="493" y="844" type="line"/>
      <point x="365" y="782" type="line"/>
      <point x="239" y="844" type="line"/>
      <point x="207" y="792" type="line"/>
    </contour>
    <contour>
      <point x="497" y="0" type="line"/>
      <point x="8" y="0" type="line"/>
      <point x="20" y="114" type="line"/>
      <point x="89" y="114" type="line"/>
      <point x="133" y="536" type="line"/>
      <point x="64" y="536" type="line"/>
      <point x="76" y="650" type="line"/>
      <point x="559" y="650" type="line"/>
      <point x="559" y="460" type="line"/>
      <point x="449" y="450" type="line"/>
      <point x="439" y="536" type="line"/>
      <point x="261" y="536" type="line"/>
      <point x="245" y="383" type="line"/>
      <point x="517" y="383" type="line"/>
      <point x="505" y="270" type="line"/>
      <point x="233" y="270" type="line"/>
      <point x="217" y="114" type="line"/>
      <point x="400" y="114" type="line"/>
      <point x="429" y="200" type="line"/>
      <point x="537" y="190" type="line"/>
    </contour>
  </outline>
</glyph>
<glyph name="Gbreve" format="1">
  <advance width="656"/>
  <unicode hex="011E"/>
  <outline>
    <contour>
      <point x="421" y="833" type="curve"/>
      <point x="521" y="833" type="line"/>
      <point x="511" y="738"/>
      <point x="452" y="695"/>
      <point x="369" y="695" type="curve" smooth="yes"/>
      <point x="282" y="695"/>
      <point x="237" y="741"/>
      <point x="247" y="833" type="curve"/>
      <point x="347" y="833" type="line"/>
      <point x="343" y="797"/>
      <point x="351" y="772"/>
      <point x="377" y="772" type="curve" smooth="yes"/>
      <point x="404" y="772"/>
      <point x="417" y="801"/>
    </contour>
    <contour>
      <point x="631" y="246" type="line"/>
      <point x="643" y="359" type="line"/>
      <point x="355" y="359" type="line"/>
      <point x="343" y="246" type="line"/>
      <point x="468" y="246" type="line"/>
      <point x="467" y="240" type="line"/>
      <point x="453" y="155"/>
      <point x="407" y="108"/>
      <point x="322" y="108" type="curve" smooth="yes"/>
      <point x="229" y="108"/>
      <point x="166" y="164"/>
      <point x="166" y="298" type="curve" smooth="yes"/>
      <point x="166" y="453"/>
      <point x="251" y="542"/>
      <point x="368" y="542" type="curve" smooth="yes"/>
      <point x="411" y="542"/>
      <point x="470" y="530"/>
      <point x="500" y="507" type="curve"/>
      <point x="510" y="431" type="line"/>
      <point x="617" y="441" type="line"/>
      <point x="614" y="582" type="line"/>
      <point x="577" y="625"/>
      <point x="485" y="660"/>
      <point x="382" y="660" type="curve" smooth="yes"/>
      <point x="147" y="660"/>
      <point x="26" y="481"/>
      <point x="26" y="287" type="curve" smooth="yes"/>
      <point x="26" y="113"/>
      <point x="123" y="-10"/>
      <point x="287" y="-10" type="curve" smooth="yes"/>
      <point x="367" y="-10"/>
      <point x="426" y="19"/>
      <point x="467" y="64" type="curve"/>
      <point x="472" y="0" type="line"/>
      <point x="573" y="0" type="line"/>
      <point x="599" y="246" type="line"/>
    </contour>
  </outline>
</glyph>
<glyph name="Hcircumflex" format="1">
  <advance width="732"/>
  <unicode hex="0124"/>
  <outline>
    <contour>
      <point x="21" y="114" type="line"/>
      <point x="88" y="114" type="line"/>
      <point x="132" y="536" type="line"/>
      <point x="65" y="536" type="line"/>
      <point x="77" y="650" type="line"/>
      <point x="340" y="650" type="line"/>
      <point x="328" y="536" type="line"/>
      <point x="260" y="536" type="line"/>
      <point x="244" y="386" type="line"/>
      <point x="508" y="386" type="line"/>
      <point x="524" y="536" type="line"/>
      <point x="457" y="536" type="line"/>
      <point x="469" y="650" type="line"/>
      <point x="732" y="650" type="line"/>
      <point x="720" y="536" type="line"/>
      <point x="653" y="536" type="line"/>
      <point x="609" y="114" type="line"/>
      <point x="676" y="114" type="line"/>
      <point x="664" y="0" type="line"/>
      <point x="401" y="0" type="line"/>
      <point x="413" y="114" type="line"/>
      <point x="480" y="114" type="line"/>
      <point x="496" y="273" type="line"/>
      <point x="232" y="273" type="line"/>
      <point x="216" y="114" type="line"/>
      <point x="284" y="114" type="line"/>
      <point x="272" y="0" type="line"/>
      <point x="9" y="0" type="line"/>
    </contour>
    <contour>
      <point x="448" y="844" type="line"/>
      <point x="404" y="844" type="line"/>
      <point x="259" y="737" type="line"/>
      <point x="283" y="685" type="line"/>
      <point x="412" y="745" type="line"/>
      <point x="537" y="685" type="line"/>
      <point x="570" y="737" type="line"/>
    </contour>
  </outline>
</glyph>
<glyph name="Hbar" format="1">
  <advance width="732"/>
  <unicode hex="0126"/>
  <outline>
    <contour>
      <point x="414" y="114" type="line"/>
      <point x="481" y="114" type="line"/>
      <point x="497" y="273" type="line"/>
      <point x="233" y="273" type="line"/>
      <point x="217" y="114" type="line"/>
      <point x="285" y="114" type="line"/>
      <point x="273" y="0" type="line"/>
      <point x="10" y="0" type="line"/>
      <point x="22" y="114" type="line"/>
      <point x="89" y="114" type="line"/>
      <point x="121" y="424" type="line"/>
      <point x="49" y="424" type="line"/>
      <point x="57" y="501" type="line"/>
      <point x="129" y="501" type="line"/>
      <point x="133" y="536" type="line"/>
      <point x="66" y="536" type="line"/>
      <point x="78" y="650" type="line"/>
      <point x="341" y="650" type="line"/>
      <point x="329" y="536" type="line"/>
      <point x="261" y="536" type="line"/>
      <point x="257" y="501" type="line"/>
      <point x="521" y="501" type="line"/>
      <point x="525" y="536" type="line"/>
      <point x="458" y="536" type="line"/>
      <point x="470" y="650" type="line"/>
      <point x="733" y="650" type="line"/>
      <point x="721" y="536" type="line"/>
      <point x="654" y="536" type="line"/>
      <point x="650" y="501" type="line"/>
      <point x="723" y="501" type="line"/>
      <point x="715" y="424" type="line"/>
      <point x="642" y="424" type="line"/>
      <point x="610" y="114" type="line"/>
      <point x="677" y="114" type="line"/>
      <point x="665" y="0" type="line"/>
      <point x="402" y="0" type="line"/>
    </contour>
    <contour>
      <point x="245" y="386" type="line"/>
      <point x="509" y="386" type="line"/>
      <point x="513" y="424" type="line"/>
      <point x="249" y="424" type="line"/>
    </contour>
  </outline>
</glyph>
<glyph name="Itilde" format="1">
  <advance width="339"/>
  <unicode hex="0128"/>
  <outline>
    <contour>
      <point x="21" y="114" type="line"/>
      <point x="88" y="114" type="line"/>
      <point x="132" y="536" type="line"/>
      <point x="65" y="536" type="line"/>
      <point x="77" y="650" type="line"/>
      <point x="340" y="650" type="line"/>
      <point x="328" y="536" type="line"/>
      <point x="260" y="536" type="line"/>
      <point x="216" y="114" type="line"/>
      <point x="284" y="114" type="line"/>
      <point x="272" y="0" type="line"/>
      <point x="9" y="0" type="line"/>
    </contour>
    <contour>
      <point x="117" y="698" type="line"/>
      <point x="127" y="724"/>
      <point x="141" y="731"/>
      <point x="162" y="731" type="curve" smooth="yes"/>
      <point x="207" y="731"/>
      <point x="235" y="700"/>
      <point x="283" y="700" type="curve" smooth="yes"/>
      <point x="350" y="700"/>
      <point x="372" y="762"/>
      <point x="378" y="820" type="curve"/>
      <point x="326" y="831" type="line"/>
      <point x="314" y="802"/>
      <point x="294" y="793"/>
      <point x="275" y="793" type="curve" smooth="yes"/>
      <point x="242" y="793"/>
      <point x="210" y="824"/>
      <point x="166" y="824" type="curve" smooth="yes"/>
      <point x="100" y="824"/>
      <point x="71" y="751"/>
      <point x="70" y="714" type="curve"/>
    </contour>
  </outline>
</glyph>
<glyph name="Iogonek" format="1">
  <advance width="340"/>
  <unicode hex="012E"/>
  <outline>
    <contour>
      <point x="218" y="-188" type="line"/>
      <point x="195" y="-199"/>
      <point x="165" y="-208"/>
      <point x="128" y="-208" type="curve" smooth="yes"/>
      <point x="68" y="-208"/>
      <point x="21" y="-184"/>
      <point x="21" y="-125" type="curve" smooth="yes"/>
      <point x="21" y="-72"/>
      <point x="59" y="-27"/>
      <point x="106" y="0" type="curve"/>
      <point x="10" y="0" type="line"/>
      <point x="22" y="114" type="line"/>
      <point x="89" y="114" type="line"/>
      <point x="133" y="536" type="line"/>
      <point x="66" y="536" type="line"/>
      <point x="78" y="650" type="line"/>
      <point x="341" y="650" type="line"/>
      <point x="329" y="536" type="line"/>
      <point x="261" y="536" type="line"/>
      <point x="217" y="114" type="line"/>
      <point x="285" y="114" type="line"/>
      <point x="273" y="0" type="line"/>
      <point x="185" y="0" type="line"/>
      <point x="139" y="-29"/>
      <point x="134" y="-60"/>
      <point x="134" y="-78" type="curve" smooth="yes"/>
      <point x="134" y="-110"/>
      <point x="150" y="-118"/>
      <point x="172" y="-118" type="curve" smooth="yes"/>
      <point x="187" y="-118"/>
      <point x="205" y="-114"/>
      <point x="218" y="-106" type="curve"/>
    </contour>
  </outline>
</glyph>
<glyph name="iogonek" format="1">
  <advance width="274"/>
  <unicode hex="012F"/>
  <outline>
    <contour>
      <point x="199" y="-188" type="line"/>
      <point x="176" y="-199"/>
      <point x="146" y="-208"/>
      <point x="109" y="-208" type="curve" smooth="yes"/>
      <point x="49" y="-208"/>
      <point x="2" y="-184"/>
      <point x="2" y="-125" type="curve" smooth="yes"/>
      <point x="2" y="-72"/>
      <point x="40" y="-27"/>
      <point x="87" y="0" type="curve"/>
      <point x="43" y="0" type="line"/>
      <point x="86" y="353" type="line"/>
      <point x="23" y="353" type="line"/>
      <point x="32" y="424" type="line"/>
      <point x="63" y="451" type="line"/>
      <point x="222" y="451" type="line"/>
      <point x="179" y="98" type="line"/>
      <point x="236" y="98" type="line"/>
      <point x="227" y="25" type="line"/>
      <point x="197" y="0" type="line"/>
      <point x="166" y="0" type="line"/>
      <point x="120" y="-29"/>
      <point x="115" y="-60"/>
      <point x="115" y="-78" type="curve" smooth="yes"/>
      <point x="115" y="-110"/>
      <point x="131" y="-118"/>
      <point x="153" y="-118" type="curve" smooth="yes"/>
      <point x="168" y="-118"/>
      <point x="186" y="-114"/>
      <point x="199" y="-106" type="curve"/>
    </contour>
    <contour>
      <point x="111" y="531" type="line"/>
      <point x="231" y="531" type="line"/>
      <point x="245" y="665" type="line"/>
      <point x="125" y="665" type="line"/>
    </contour>
  </outline>
</glyph>
<glyph name="dotlessi" format="1">
  <advance width="274"/>
  <unicode hex="0131"/>
  <outline>
    <contour>
      <point x="32" y="424" type="line"/>
      <point x="63" y="451" type="line"/>
      <point x="222" y="451" type="line"/>
      <point x="179" y="98" type="line"/>
      <point x="236" y="98" type="line"/>
      <point x="227" y="25" type="line"/>
      <point x="197" y="0" type="line"/>
      <point x="43" y="0" type="line"/>
      <point x="86" y="353" type="line"/>
      <point x="23" y="353" type="line"/>
    </contour>
    <contour>
      <point x="255" y="566" type="move" name="top"/>
    </contour>
  </outline>
</glyph>
<glyph name="ij" format="1">
  <advance width="528"/>
  <unicode hex="0133"/>
  <outline>
    <contour>
      <point x="298" y="424" type="line"/>
      <point x="329" y="451" type="line"/>
      <point x="498" y="451" type="line"/>
      <point x="444" y="16" type="line" smooth="yes"/>
      <point x="427" y="-120"/>
      <point x="381" y="-222"/>
      <point x="286" y="-222" type="curve" smooth="yes"/>
      <point x="245" y="-222"/>
      <point x="212" y="-210"/>
      <point x="186" y="-192" type="curve"/>
      <point x="191" y="-109" type="line"/>
      <point x="258" y="-135"/>
      <point x="303" y="-128"/>
      <point x="321" y="16" type="curve" smooth="yes"/>
      <point x="362" y="353" type="line"/>
      <point x="289" y="353" type="line"/>
    </contour>
    <contour>
      <point x="32" y="424" type="line"/>
      <point x="63" y="451" type="line"/>
      <point x="222" y="451" type="line"/>
      <point x="179" y="98" type="line"/>
      <point x="236" y="98" type="line"/>
      <point x="227" y="25" type="line"/>
      <point x="197" y="0" type="line"/>
      <point x="43" y="0" type="line"/>
      <point x="86" y="353" type="line"/>
      <point x="23" y="353" type="line"/>
    </contour>
    <contour>
      <point x="111" y="531" type="line"/>
      <point x="231" y="531" type="line"/>
      <point x="245" y="665" type="line"/>
      <point x="125" y="665" type="line"/>
    </contour>
    <contour>
      <point x="384" y="531" type="line"/>
      <point x="504" y="531" type="line"/>
      <point x="518" y="665" type="line"/>
      <point x="398" y="665" type="line"/>
    </contour>
  </outline>
</glyph>
<glyph name="Jcircumflex" format="1">
  <advance width="465"/>
  <unicode hex="0134"/>
  <outline>
    <contour>
      <point x="179" y="650" type="line"/>
      <point x="475" y="650" type="line"/>
      <point x="463" y="536" type="line"/>
      <point x="406" y="536" type="line"/>
      <point x="369" y="185" type="line" smooth="yes"/>
      <point x="355" y="54"/>
      <point x="272" y="-10"/>
      <point x="159" y="-10" type="curve" smooth="yes"/>
      <point x="52" y="-10"/>
      <point x="5" y="47"/>
      <point x="-15" y="113" type="curve"/>
      <point x="82" y="184" type="line"/>
      <point x="98" y="125"/>
      <point x="129" y="114"/>
      <point x="160" y="114" type="curve" smooth="yes"/>
      <point x="211" y="114"/>
      <point x="235" y="144"/>
      <point x="239" y="184" type="curve" smooth="yes"/>
      <point x="276" y="536" type="line"/>
      <point x="167" y="536" type="line"/>
    </contour>
    <contour>
      <point x="366" y="844" type="line"/>
      <point x="322" y="844" type="line"/>
      <point x="177" y="737" type="line"/>
      <point x="201" y="685" type="line"/>
      <point x="330" y="745" type="line"/>
      <point x="455" y="685" type="line"/>
      <point x="488" y="737" type="line"/>
    </contour>
  </outline>
</glyph>
<glyph name="jcircumflex" format="1">
  <advance width="256"/>
  <unicode hex="0135"/>
  <outline>
    <contour>
      <point x="26" y="424" type="line"/>
      <point x="57" y="451" type="line"/>
      <point x="226" y="451" type="line"/>
      <point x="172" y="16" type="line" smooth="yes"/>
      <point x="155" y="-120"/>
      <point x="109" y="-222"/>
      <point x="14" y="-222" type="curve" smooth="yes"/>
      <point x="-27" y="-222"/>
      <point x="-60" y="-210"/>
      <point x="-86" y="-192" type="curve"/>
      <point x="-81" y="-109" type="line"/>
      <point x="-14" y="-135"/>
      <point x="31" y="-128"/>
      <point x="49" y="16" type="curve" smooth="yes"/>
      <point x="90" y="353" type="line"/>
      <point x="17" y="353" type="line"/>
    </contour>
    <contour>
      <point x="198" y="684" type="line"/>
      <point x="154" y="684" type="line"/>
      <point x="6" y="555" type="line"/>
      <point x="38" y="507" type="line"/>
      <point x="161" y="577" type="line"/>
      <point x="280" y="508" type="line"/>
      <point x="320" y="555" type="line"/>
    </contour>
  </outline>
</glyph>
<glyph name="Kcommaaccent" format="1">
  <advance width="648"/>
  <unicode hex="0136"/>
  <outline>
    <contour>
      <point x="350" y="114" type="line"/>
      <point x="407" y="114" type="line"/>
      <point x="310" y="274" type="line"/>
      <point x="233" y="274" type="line"/>
      <point x="217" y="114" type="line"/>
      <point x="269" y="114" type="line"/>
      <point x="257" y="0" type="line"/>
      <point x="9" y="0" type="line"/>
      <point x="21" y="114" type="line"/>
      <point x="88" y="114" type="line"/>
      <point x="132" y="536" type="line"/>
      <point x="65" y="536" type="line"/>
      <point x="77" y="650" type="line"/>
      <point x="328" y="650" type="line"/>
      <point x="316" y="536" type="line"/>
      <point x="261" y="536" type="line"/>
      <point x="245" y="383" type="line"/>
      <point x="324" y="383" type="line"/>
      <point x="450" y="536" type="line"/>
      <point x="396" y="536" type="line"/>
      <point x="408" y="650" type="line"/>
      <point x="667" y="650" type="line"/>
      <point x="655" y="536" type="line"/>
      <point x="586" y="536" type="line"/>
      <point x="416" y="341" type="line"/>
      <point x="558" y="114" type="line"/>
      <point x="622" y="114" type="line"/>
      <point x="610" y="0" type="line"/>
      <point x="338" y="0" type="line"/>
    </contour>
    <contour>
      <point x="352" y="-58" type="line"/>
      <point x="233" y="-58" type="line"/>
      <point x="214" y="-213" type="line"/>
      <point x="310" y="-213" type="line"/>
    </contour>
  </outline>
</glyph>
<glyph name="kcommaaccent" format="1">
  <advance width="470"/>
  <unicode hex="0137"/>
  <outline>
    <contour>
      <point x="43" y="661" type="line"/>
      <point x="74" y="688" type="line"/>
      <point x="228" y="688" type="line"/>
      <point x="177" y="272" type="line"/>
      <point x="232" y="272" type="line"/>
      <point x="282" y="328"/>
      <point x="306" y="381"/>
      <point x="315" y="451" type="curve"/>
      <point x="439" y="451" type="line"/>
      <point x="441" y="371"/>
      <point x="386" y="289"/>
      <point x="305" y="233" type="curve"/>
      <point x="378" y="98" type="line"/>
      <point x="447" y="98" type="line"/>
      <point x="438" y="25" type="line"/>
      <point x="408" y="0" type="line"/>
      <point x="303" y="0" type="line"/>
      <point x="203" y="188" type="line"/>
      <point x="167" y="188" type="line"/>
      <point x="144" y="0" type="line"/>
      <point x="20" y="0" type="line"/>
      <point x="92" y="590" type="line"/>
      <point x="34" y="590" type="line"/>
    </contour>
    <contour>
      <point x="278" y="-58" type="line"/>
      <point x="159" y="-58" type="line"/>
      <point x="140" y="-213" type="line"/>
      <point x="236" y="-213" type="line"/>
    </contour>
  </outline>
</glyph>
<glyph name="Lacute" format="1">
  <advance width="535"/>
  <unicode hex="0139"/>
  <outline>
    <contour>
      <point x="360" y="716" type="line"/>
      <point x="334" y="833" type="line"/>
      <point x="124" y="745" type="line"/>
      <point x="137" y="688" type="line"/>
    </contour>
    <contour>
      <point x="482" y="0" type="line"/>
      <point x="526" y="230" type="line"/>
      <point x="418" y="240" type="line"/>
      <point x="386" y="114" type="line"/>
      <point x="217" y="114" type="line"/>
      <point x="261" y="536" type="line"/>
      <point x="352" y="536" type="line"/>
      <point x="364" y="650" type="line"/>
      <point x="75" y="650" type="line"/>
      <point x="63" y="536" type="line"/>
      <point x="132" y="536" type="line"/>
      <point x="88" y="114" type="line"/>
      <point x="19" y="114" type="line"/>
      <point x="7" y="0" type="line"/>
    </contour>
  </outline>
</glyph>
<glyph name="lcommaaccent" format="1">
  <advance width="257"/>
  <unicode hex="013C"/>
  <outline>
    <contour>
      <point x="47" y="661" type="line"/>
      <point x="78" y="688" type="line"/>
      <point x="236" y="688" type="line"/>
      <point x="164" y="98" type="line"/>
      <point x="222" y="98" type="line"/>
      <point x="213" y="25" type="line"/>
      <point x="183" y="0" type="line"/>
      <point x="28" y="0" type="line"/>
      <point x="100" y="590" type="line"/>
      <point x="38" y="590" type="line"/>
    </contour>
    <contour>
      <point x="155" y="-58" type="line"/>
      <point x="36" y="-58" type="line"/>
      <point x="17" y="-213" type="line"/>
      <point x="113" y="-213" type="line"/>
    </contour>
  </outline>
</glyph>
<glyph name="Ldot" format="1">
  <advance width="535"/>
  <unicode hex="013F"/>
  <outline>
    <contour>
      <point x="482" y="0" type="line"/>
      <point x="526" y="230" type="line"/>
      <point x="418" y="240" type="line"/>
      <point x="386" y="114" type="line"/>
      <point x="217" y="114" type="line"/>
      <point x="261" y="536" type="line"/>
      <point x="352" y="536" type="line"/>
      <point x="364" y="650" type="line"/>
      <point x="75" y="650" type="line"/>
      <point x="63" y="536" type="line"/>
      <point x="132" y="536" type="line"/>
      <point x="88" y="114" type="line"/>
      <point x="19" y="114" type="line"/>
      <point x="7" y="0" type="line"/>
    </contour>
    <contour>
      <point x="295" y="271" type="line"/>
      <point x="422" y="271" type="line"/>
      <point x="436" y="405" type="line"/>
      <point x="309" y="405" type="line"/>
    </contour>
  </outline>
</glyph>
<glyph name="ldot" format="1">
  <advance width="376"/>
  <unicode hex="0140"/>
  <outline>
    <contour>
      <point x="47" y="661" type="line"/>
      <point x="78" y="688" type="line"/>
      <point x="236" y="688" type="line"/>
      <point x="164" y="98" type="line"/>
      <point x="222" y="98" type="line"/>
      <point x="213" y="25" type="line"/>
      <point x="183" y="0" type="line"/>
      <point x="28" y="0" type="line"/>
      <point x="100" y="590" type="line"/>
      <point x="38" y="590" type="line"/>
    </contour>
    <contour>
      <point x="228" y="271" type="line"/>
      <point x="355" y="271" type="line"/>
      <point x="369" y="405" type="line"/>
      <point x="242" y="405" type="line"/>
    </contour>
  </outline>
</glyph>
<glyph name="ncaron" format="1">
  <advance width="541"/>
  <unicode hex="0148"/>
  <outline>
    <contour>
      <point x="61" y="451" type="line"/>
      <point x="200" y="451" type="line"/>
      <point x="205" y="365" type="line"/>
      <point x="236" y="422"/>
      <point x="283" y="460"/>
      <point x="350" y="460" type="curve" smooth="yes"/>
      <point x="431" y="460"/>
      <point x="495" y="411"/>
      <point x="482" y="304" type="curve" smooth="yes"/>
      <point x="457" y="98" type="line"/>
      <point x="515" y="98" type="line"/>
      <point x="506" y="25" type="line"/>
      <point x="476" y="0" type="line"/>
      <point x="322" y="0" type="line"/>
      <point x="353" y="254" type="line" smooth="yes"/>
      <point x="363" y="332"/>
      <point x="341" y="362"/>
      <point x="292" y="362" type="curve" smooth="yes"/>
      <point x="236" y="362"/>
      <point x="207" y="324"/>
      <point x="197" y="267" type="curve"/>
      <point x="165" y="0" type="line"/>
      <point x="41" y="0" type="line"/>
      <point x="84" y="353" type="line"/>
      <point x="21" y="353" type="line"/>
      <point x="30" y="424" type="line"/>
    </contour>
    <contour>
      <point x="291" y="507" type="line"/>
      <point x="335" y="507" type="line"/>
      <point x="481" y="633" type="line"/>
      <point x="451" y="684" type="line"/>
      <point x="328" y="613" type="line"/>
      <point x="209" y="683" type="line"/>
      <point x="171" y="634" type="line"/>
    </contour>
  </outline>
</glyph>
<glyph name="Eng" format="1">
  <advance width="732"/>
  <unicode hex="014A"/>
  <outline>
    <contour>
      <point x="285" y="0" type="line"/>
      <point x="11" y="0" type="line"/>
      <point x="23" y="114" type="line"/>
      <point x="91" y="114" type="line"/>
      <point x="135" y="536" type="line"/>
      <point x="57" y="536" type="line"/>
      <point x="69" y="650" type="line"/>
      <point x="239" y="650" type="line"/>
      <point x="514" y="264" type="line"/>
      <point x="517" y="264" type="line"/>
      <point x="545" y="536" type="line"/>
      <point x="455" y="536" type="line"/>
      <point x="467" y="650" type="line"/>
      <point x="745" y="650" type="line"/>
      <point x="733" y="536" type="line"/>
      <point x="665" y="536" type="line"/>
      <point x="608" y="-17" type="line" smooth="yes"/>
      <point x="596" y="-143"/>
      <point x="513" y="-212"/>
      <point x="394" y="-212" type="curve" smooth="yes"/>
      <point x="285" y="-212"/>
      <point x="236" y="-155"/>
      <point x="216" y="-89" type="curve"/>
      <point x="315" y="-18" type="line"/>
      <point x="332" y="-77"/>
      <point x="363" y="-88"/>
      <point x="394" y="-88" type="curve" smooth="yes"/>
      <point x="447" y="-88"/>
      <point x="472" y="-58"/>
      <point x="476" y="-18" type="curve" smooth="yes"/>
      <point x="485" y="72" type="line"/>
      <point x="245" y="412" type="line"/>
      <point x="242" y="412" type="line"/>
      <point x="211" y="114" type="line"/>
      <point x="297" y="114" type="line"/>
    </contour>
  </outline>
</glyph>
<glyph name="eng" format="1">
  <advance width="524"/>
  <unicode hex="014B"/>
  <outline>
    <contour>
      <point x="30" y="424" type="line"/>
      <point x="61" y="451" type="line"/>
      <point x="200" y="451" type="line"/>
      <point x="205" y="365" type="line"/>
      <point x="236" y="422"/>
      <point x="283" y="460"/>
      <point x="350" y="460" type="curve" smooth="yes"/>
      <point x="431" y="460"/>
      <point x="495" y="411"/>
      <point x="482" y="304" type="curve" smooth="yes"/>
      <point x="445" y="-3" type="line" smooth="yes"/>
      <point x="429" y="-139"/>
      <point x="384" y="-222"/>
      <point x="289" y="-222" type="curve" smooth="yes"/>
      <point x="248" y="-222"/>
      <point x="215" y="-210"/>
      <point x="189" y="-192" type="curve"/>
      <point x="194" y="-109" type="line"/>
      <point x="261" y="-135"/>
      <point x="303" y="-147"/>
      <point x="321" y="-3" type="curve" smooth="yes"/>
      <point x="353" y="254" type="line" smooth="yes"/>
      <point x="363" y="332"/>
      <point x="341" y="362"/>
      <point x="292" y="362" type="curve" smooth="yes"/>
      <point x="236" y="362"/>
      <point x="207" y="324"/>
      <point x="197" y="267" type="curve"/>
      <point x="165" y="0" type="line"/>
      <point x="41" y="0" type="line"/>
      <point x="84" y="353" type="line"/>
      <point x="21" y="353" type="line"/>
    </contour>
  </outline>
</glyph>
<glyph name="Omacron" format="1">
  <advance width="686"/>
  <unicode hex="014C"/>
  <outline>
    <contour>
      <point x="264" y="819" type="line"/>
      <point x="566" y="819" type="line"/>
      <point x="556" y="721" type="line"/>
      <point x="254" y="721" type="line"/>
    </contour>
    <contour>
      <point x="382" y="660" type="curve" smooth="yes"/>
      <point x="181" y="660"/>
      <point x="27" y="496"/>
      <point x="27" y="290" type="curve" smooth="yes"/>
      <point x="27" y="126"/>
      <point x="125" y="-10"/>
      <point x="311" y="-10" type="curve" smooth="yes"/>
      <point x="520" y="-10"/>
      <point x="670" y="161"/>
      <point x="670" y="360" type="curve" smooth="yes"/>
      <point x="670" y="526"/>
      <point x="564" y="660"/>
    </contour>
    <contour>
      <point x="331" y="108" type="curve" smooth="yes"/>
      <point x="210" y="108"/>
      <point x="167" y="203"/>
      <point x="167" y="302" type="curve" smooth="yes"/>
      <point x="167" y="433"/>
      <point x="243" y="542"/>
      <point x="368" y="542" type="curve" smooth="yes"/>
      <point x="467" y="542"/>
      <point x="530" y="473"/>
      <point x="530" y="350" type="curve" smooth="yes"/>
      <point x="530" y="227"/>
      <point x="466" y="108"/>
    </contour>
  </outline>
</glyph>
<glyph name="obreve" format="1">
  <advance width="484"/>
  <unicode hex="014F"/>
  <outline>
    <contour>
      <point x="15" y="194" type="curve" smooth="yes"/>
      <point x="15" y="331"/>
      <point x="93" y="460"/>
      <point x="260" y="460" type="curve" smooth="yes"/>
      <point x="398" y="460"/>
      <point x="459" y="373"/>
      <point x="459" y="251" type="curve" smooth="yes"/>
      <point x="459" y="95"/>
      <point x="359" y="-10"/>
      <point x="211" y="-10" type="curve" smooth="yes"/>
      <point x="88" y="-10"/>
      <point x="15" y="62"/>
    </contour>
    <contour>
      <point x="150" y="205" type="curve" smooth="yes"/>
      <point x="150" y="133"/>
      <point x="164" y="88"/>
      <point x="223" y="88" type="curve" smooth="yes"/>
      <point x="299" y="88"/>
      <point x="326" y="161"/>
      <point x="326" y="247" type="curve" smooth="yes"/>
      <point x="326" y="328"/>
      <point x="302" y="362"/>
      <point x="247" y="362" type="curve" smooth="yes"/>
      <point x="181" y="362"/>
      <point x="150" y="312"/>
    </contour>
    <contour>
      <point x="315" y="653" type="curve"/>
      <point x="415" y="653" type="line"/>
      <point x="405" y="558"/>
      <point x="343" y="515"/>
      <point x="261" y="515" type="curve" smooth="yes"/>
      <point x="176" y="515"/>
      <point x="132" y="561"/>
      <point x="142" y="653" type="curve"/>
      <point x="242" y="653" type="line"/>
      <point x="238" y="617"/>
      <point x="246" y="592"/>
      <point x="271" y="592" type="curve" smooth="yes"/>
      <point x="298" y="592"/>
      <point x="311" y="621"/>
    </contour>
  </outline>
</glyph>
<glyph name="ohungarumlaut" format="1">
  <advance width="484"/>
  <unicode hex="0151"/>
  <outline>
    <contour>
      <point x="521" y="599" type="line"/>
      <point x="466" y="700" type="line"/>
      <point x="292" y="557" type="line"/>
      <point x="320" y="508" type="line"/>
    </contour>
    <contour>
      <point x="366" y="662" type="line"/>
      <point x="277" y="733" type="line"/>
      <point x="158" y="542" type="line"/>
      <point x="202" y="508" type="line"/>
    </contour>
    <contour>
      <point x="15" y="194" type="curve" smooth="yes"/>
      <point x="15" y="331"/>
      <point x="93" y="460"/>
      <point x="260" y="460" type="curve" smooth="yes"/>
      <point x="398" y="460"/>
      <point x="459" y="373"/>
      <point x="459" y="251" type="curve" smooth="yes"/>
      <point x="459" y="95"/>
      <point x="359" y="-10"/>
      <point x="211" y="-10" type="curve" smooth="yes"/>
      <point x="88" y="-10"/>
      <point x="15" y="62"/>
    </contour>
    <contour>
      <point x="150" y="205" type="curve" smooth="yes"/>
      <point x="150" y="133"/>
      <point x="164" y="88"/>
      <point x="223" y="88" type="curve" smooth="yes"/>
      <point x="299" y="88"/>
      <point x="326" y="161"/>
      <point x="326" y="247" type="curve" smooth="yes"/>
      <point x="326" y="328"/>
      <point x="302" y="362"/>
      <point x="247" y="362" type="curve" smooth="yes"/>
      <point x="181" y="362"/>
      <point x="150" y="312"/>
    </contour>
  </outline>
</glyph>
<glyph name="OE" format="1">
  <advance width="977"/>
  <unicode hex="0152"/>
  <outline>
    <contour>
      <point x="919" y="0" type="line"/>
      <point x="959" y="190" type="line"/>
      <point x="851" y="200" type="line"/>
      <point x="822" y="114" type="line"/>
      <point x="618" y="114" type="line"/>
      <point x="634" y="270" type="line"/>
      <point x="902" y="270" type="line"/>
      <point x="914" y="383" type="line"/>
      <point x="646" y="383" type="line"/>
      <point x="662" y="536" type="line"/>
      <point x="861" y="536" type="line"/>
      <point x="871" y="450" type="line"/>
      <point x="981" y="460" type="line"/>
      <point x="981" y="650" type="line"/>
      <point x="542" y="650" type="line"/>
      <point x="539" y="620" type="line"/>
      <point x="499" y="645"/>
      <point x="453" y="660"/>
      <point x="389" y="660" type="curve" smooth="yes"/>
      <point x="180" y="660"/>
      <point x="27" y="503"/>
      <point x="27" y="300" type="curve" smooth="yes"/>
      <point x="27" y="132"/>
      <point x="132" y="-10"/>
      <point x="323" y="-10" type="curve" smooth="yes"/>
      <point x="386" y="-10"/>
      <point x="435" y="5"/>
      <point x="477" y="29" type="curve"/>
      <point x="474" y="0" type="line"/>
    </contour>
    <contour>
      <point x="344" y="108" type="curve" smooth="yes"/>
      <point x="218" y="108"/>
      <point x="170" y="200"/>
      <point x="170" y="307" type="curve" smooth="yes"/>
      <point x="170" y="431"/>
      <point x="234" y="542"/>
      <point x="382" y="542" type="curve" smooth="yes"/>
      <point x="442" y="542"/>
      <point x="488" y="524"/>
      <point x="524" y="484" type="curve"/>
      <point x="491" y="165" type="line"/>
      <point x="460" y="129"/>
      <point x="404" y="108"/>
    </contour>
  </outline>
</glyph>
<glyph name="oe" format="1">
  <advance width="754"/>
  <unicode hex="0153"/>
  <outline>
    <contour>
      <point x="15" y="194" type="curve" smooth="yes"/>
      <point x="15" y="331"/>
      <point x="93" y="460"/>
      <point x="260" y="460" type="curve" smooth="yes"/>
      <point x="328" y="460"/>
      <point x="378" y="439"/>
      <point x="410" y="402" type="curve"/>
      <point x="450" y="438"/>
      <point x="503" y="460"/>
      <point x="568" y="460" type="curve" smooth="yes"/>
      <point x="664" y="460"/>
      <point x="732" y="410"/>
      <point x="732" y="336" type="curve" smooth="yes"/>
      <point x="732" y="269"/>
      <point x="692" y="221"/>
      <point x="571" y="196" type="curve" smooth="yes"/>
      <point x="539" y="189"/>
      <point x="502" y="183"/>
      <point x="459" y="179" type="curve"/>
      <point x="463" y="121"/>
      <point x="483" y="88"/>
      <point x="537" y="88" type="curve" smooth="yes"/>
      <point x="605" y="88"/>
      <point x="616" y="139"/>
      <point x="623" y="162" type="curve"/>
      <point x="724" y="142" type="line"/>
      <point x="710" y="63"/>
      <point x="637" y="-10"/>
      <point x="518" y="-10" type="curve" smooth="yes"/>
      <point x="460" y="-10"/>
      <point x="408" y="7"/>
      <point x="373" y="45" type="curve"/>
      <point x="331" y="10"/>
      <point x="275" y="-10"/>
      <point x="211" y="-10" type="curve" smooth="yes"/>
      <point x="88" y="-10"/>
      <point x="15" y="62"/>
    </contour>
    <contour>
      <point x="150" y="205" type="curve" smooth="yes"/>
      <point x="150" y="133"/>
      <point x="164" y="88"/>
      <point x="223" y="88" type="curve" smooth="yes"/>
      <point x="299" y="88"/>
      <point x="326" y="161"/>
      <point x="326" y="247" type="curve" smooth="yes"/>
      <point x="326" y="328"/>
      <point x="302" y="362"/>
      <point x="247" y="362" type="curve" smooth="yes"/>
      <point x="181" y="362"/>
      <point x="150" y="312"/>
    </contour>
    <contour>
      <point x="506" y="261" type="curve" smooth="yes"/>
      <point x="586" y="276"/>
      <point x="602" y="301"/>
      <point x="602" y="328" type="curve" smooth="yes"/>
      <point x="602" y="361"/>
      <point x="577" y="373"/>
      <point x="551" y="373" type="curve" smooth="yes"/>
      <point x="495" y="373"/>
      <point x="470" y="315"/>
      <point x="462" y="254" type="curve"/>
      <point x="478" y="256"/>
      <point x="493" y="258"/>
    </contour>
  </outline>
</glyph>
<glyph name="Scaron" format="1">
  <advance width="538"/>
  <unicode hex="0160"/>
  <outline>
    <contour>
      <point x="500" y="204" type="curve" smooth="yes"/>
      <point x="500" y="65"/>
      <point x="404" y="-10"/>
      <point x="241" y="-10" type="curve" smooth="yes"/>
      <point x="151" y="-10"/>
      <point x="60" y="13"/>
      <point x="15" y="58" type="curve"/>
      <point x="52" y="219" type="line"/>
      <point x="156" y="209" type="line"/>
      <point x="147" y="130" type="line"/>
      <point x="188" y="106"/>
      <point x="219" y="105"/>
      <point x="237" y="105" type="curve" smooth="yes"/>
      <point x="312" y="105"/>
      <point x="358" y="122"/>
      <point x="358" y="194" type="curve" smooth="yes"/>
      <point x="358" y="259"/>
      <point x="321" y="268"/>
      <point x="247" y="282" type="curve" smooth="yes"/>
      <point x="159" y="299"/>
      <point x="62" y="328"/>
      <point x="62" y="457" type="curve" smooth="yes"/>
      <point x="62" y="607"/>
      <point x="192" y="660"/>
      <point x="312" y="660" type="curve" smooth="yes"/>
      <point x="400" y="660"/>
      <point x="478" y="632"/>
      <point x="515" y="588" type="curve"/>
      <point x="506" y="447" type="line"/>
      <point x="400" y="437" type="line"/>
      <point x="399" y="513" type="line"/>
      <point x="368" y="536"/>
      <point x="336" y="542"/>
      <point x="304" y="542" type="curve" smooth="yes"/>
      <point x="248" y="542"/>
      <point x="202" y="523"/>
      <point x="202" y="474" type="curve" smooth="yes"/>
      <point x="202" y="422"/>
      <point x="252" y="408"/>
      <point x="308" y="396" type="curve" smooth="yes"/>
      <point x="393" y="378"/>
      <point x="500" y="351"/>
    </contour>
    <contour>
      <point x="277" y="685" type="line"/>
      <point x="321" y="685" type="line"/>
      <point x="465" y="791" type="line"/>
      <point x="441" y="844" type="line"/>
      <point x="313" y="782" type="line"/>
      <point x="187" y="844" type="line"/>
      <point x="155" y="792" type="line"/>
    </contour>
  </outline>
</glyph>
<glyph name="scaron" format="1">
  <advance width="441"/>
  <unicode hex="0161"/>
  <outline>
    <contour>
      <point x="219" y="507" type="line"/>
      <point x="263" y="507" type="line"/>
      <point x="409" y="633" type="line"/>
      <point x="379" y="684" type="line"/>
      <point x="256" y="613" type="line"/>
      <point x="137" y="683" type="line"/>
      <point x="99" y="634" type="line"/>
    </contour>
    <contour>
      <point x="198" y="88" type="curve"/>
      <point x="240" y="88"/>
      <point x="270" y="103"/>
      <point x="270" y="131" type="curve" smooth="yes"/>
      <point x="270" y="170"/>
      <point x="213" y="175"/>
      <point x="156" y="191" type="curve" smooth="yes"/>
      <point x="98" y="207"/>
      <point x="39" y="234"/>
      <point x="39" y="315" type="curve" smooth="yes"/>
      <point x="39" y="422"/>
      <point x="139" y="460"/>
      <point x="234" y="460" type="curve" smooth="yes"/>
      <point x="283" y="460"/>
      <point x="354" y="450"/>
      <point x="407" y="419" type="curve"/>
      <point x="406" y="304" type="line"/>
      <point x="307" y="293" type="line"/>
      <point x="305" y="349" type="line"/>
      <point x="282" y="357"/>
      <point x="255" y="362"/>
      <point x="234" y="362" type="curve"/>
      <point x="207" y="362"/>
      <point x="168" y="351"/>
      <point x="168" y="322" type="curve" smooth="yes"/>
      <point x="168" y="294"/>
      <point x="205" y="289"/>
      <point x="263" y="274" type="curve" smooth="yes"/>
      <point x="323" y="258"/>
      <point x="400" y="234"/>
      <point x="400" y="139" type="curve" smooth="yes"/>
      <point x="400" y="36"/>
      <point x="310" y="-10"/>
      <point x="204" y="-10" type="curve" smooth="yes"/>
      <point x="147" y="-10"/>
      <point x="57" y="3"/>
      <point x="1" y="34" type="curve"/>
      <point x="32" y="160" type="line"/>
      <point x="129" y="149" type="line"/>
      <point x="124" y="97" type="line"/>
      <point x="147" y="89"/>
      <point x="184" y="88"/>
    </contour>
  </outline>
</glyph>
<glyph name="Tcaron" format="1">
  <advance width="626"/>
  <unicode hex="0164"/>
  <outline>
    <contour>
      <point x="327" y="685" type="line"/>
      <point x="371" y="685" type="line"/>
      <point x="515" y="791" type="line"/>
      <point x="491" y="844" type="line"/>
      <point x="363" y="782" type="line"/>
      <point x="237" y="844" type="line"/>
      <point x="205" y="792" type="line"/>
    </contour>
    <contour>
      <point x="626" y="430" type="line"/>
      <point x="630" y="650" type="line"/>
      <point x="75" y="650" type="line"/>
      <point x="33" y="430" type="line"/>
      <point x="143" y="420" type="line"/>
      <point x="175" y="536" type="line"/>
      <point x="276" y="536" type="line"/>
      <point x="232" y="114" type="line"/>
      <point x="134" y="114" type="line"/>
      <point x="122" y="0" type="line"/>
      <point x="451" y="0" type="line"/>
      <point x="463" y="114" type="line"/>
      <point x="360" y="114" type="line"/>
      <point x="404" y="536" type="line"/>
      <point x="506" y="536" type="line"/>
      <point x="514" y="420" type="line"/>
    </contour>
  </outline>
</glyph>
<glyph name="Tbar" format="1">
  <advance width="624"/>
  <unicode hex="0166"/>
  <outline>
    <contour>
      <point x="625" y="430" type="line"/>
      <point x="629" y="650" type="line"/>
      <point x="74" y="650" type="line"/>
      <point x="32" y="430" type="line"/>
      <point x="142" y="420" type="line"/>
      <point x="174" y="536" type="line"/>
      <point x="275" y="536" type="line"/>
      <point x="255" y="346" type="line"/>
      <point x="127" y="346" type="line"/>
      <point x="119" y="269" type="line"/>
      <point x="247" y="269" type="line"/>
      <point x="231" y="114" type="line"/>
      <point x="133" y="114" type="line"/>
      <point x="121" y="0" type="line"/>
      <point x="450" y="0" type="line"/>
      <point x="462" y="114" type="line"/>
      <point x="359" y="114" type="line"/>
      <point x="375" y="269" type="line"/>
      <point x="492" y="269" type="line"/>
      <point x="500" y="346" type="line"/>
      <point x="383" y="346" type="line"/>
      <point x="403" y="536" type="line"/>
      <point x="505" y="536" type="line"/>
      <point x="513" y="420" type="line"/>
    </contour>
  </outline>
</glyph>
<glyph name="tbar" format="1">
  <advance width="364"/>
  <unicode hex="0167"/>
  <outline>
    <contour>
      <point x="27" y="420" type="line"/>
      <point x="61" y="451" type="line"/>
      <point x="90" y="451" type="line"/>
      <point x="102" y="548" type="line"/>
      <point x="141" y="588" type="line"/>
      <point x="231" y="588" type="line"/>
      <point x="214" y="451" type="line"/>
      <point x="349" y="451" type="line"/>
      <point x="340" y="385" type="line"/>
      <point x="306" y="353" type="line"/>
      <point x="202" y="353" type="line"/>
      <point x="195" y="291" type="line"/>
      <point x="337" y="291" type="line"/>
      <point x="329" y="251" type="line"/>
      <point x="295" y="219" type="line"/>
      <point x="186" y="219" type="line"/>
      <point x="177" y="147" type="line" smooth="yes"/>
      <point x="172" y="104"/>
      <point x="183" y="88"/>
      <point x="207" y="88" type="curve" smooth="yes"/>
      <point x="228" y="88"/>
      <point x="250" y="100"/>
      <point x="267" y="169" type="curve"/>
      <point x="354" y="140" type="line"/>
      <point x="329" y="36"/>
      <point x="284" y="-10"/>
      <point x="194" y="-10" type="curve" smooth="yes"/>
      <point x="98" y="-10"/>
      <point x="40" y="42"/>
      <point x="51" y="135" type="curve" smooth="yes"/>
      <point x="61" y="219" type="line"/>
      <point x="7" y="219" type="line"/>
      <point x="12" y="260" type="line"/>
      <point x="46" y="291" type="line"/>
      <point x="70" y="291" type="line"/>
      <point x="78" y="353" type="line"/>
      <point x="18" y="353" type="line"/>
    </contour>
  </outline>
</glyph>
<glyph name="Utilde" format="1">
  <advance width="690"/>
  <unicode hex="0168"/>
  <outline>
    <contour>
      <point x="454" y="650" type="line"/>
      <point x="703" y="650" type="line"/>
      <point x="691" y="536" type="line"/>
      <point x="635" y="536" type="line"/>
      <point x="607" y="269" type="line" smooth="yes"/>
      <point x="592" y="131"/>
      <point x="520" y="-10"/>
      <point x="320" y="-10" type="curve" smooth="yes"/>
      <point x="130" y="-10"/>
      <point x="65" y="118"/>
      <point x="80" y="258" type="curve" smooth="yes"/>
      <point x="109" y="536" type="line"/>
      <point x="54" y="536" type="line"/>
      <point x="66" y="650" type="line"/>
      <point x="323" y="650" type="line"/>
      <point x="311" y="536" type="line"/>
      <point x="238" y="536" type="line"/>
      <point x="209" y="262" type="line" smooth="yes"/>
      <point x="200" y="173"/>
      <point x="230" y="108"/>
      <point x="330" y="108" type="curve" smooth="yes"/>
      <point x="428" y="108"/>
      <point x="477" y="172"/>
      <point x="487" y="269" type="curve" smooth="yes"/>
      <point x="515" y="536" type="line"/>
      <point x="442" y="536" type="line"/>
    </contour>
    <contour>
      <point x="291" y="698" type="line"/>
      <point x="301" y="724"/>
      <point x="315" y="731"/>
      <point x="336" y="731" type="curve" smooth="yes"/>
      <point x="381" y="731"/>
      <point x="409" y="700"/>
      <point x="457" y="700" type="curve" smooth="yes"/>
      <point x="524" y="700"/>
      <point x="546" y="762"/>
      <point x="552" y="820" type="curve"/>
      <point x="500" y="831" type="line"/>
      <point x="488" y="802"/>
      <point x="468" y="793"/>
      <point x="449" y="793" type="curve" smooth="yes"/>
      <point x="416" y="793"/>
      <point x="384" y="824"/>
      <point x="340" y="824" type="curve" smooth="yes"/>
      <point x="274" y="824"/>
      <point x="245" y="751"/>
      <point x="244" y="714" type="curve"/>
    </contour>
  </outline>
</glyph>
<glyph name="umacron" format="1">
  <advance width="542"/>
  <unicode hex="016B"/>
  <outline>
    <contour>
      <point x="511" y="98" type="line"/>
      <point x="502" y="27" type="line"/>
      <point x="471" y="0" type="line"/>
      <point x="332" y="0" type="line"/>
      <point x="327" y="87" type="line"/>
      <point x="297" y="29"/>
      <point x="249" y="-9"/>
      <point x="182" y="-9" type="curve" smooth="yes"/>
      <point x="101" y="-9"/>
      <point x="37" y="40"/>
      <point x="50" y="147" type="curve" smooth="yes"/>
      <point x="75" y="353" type="line"/>
      <point x="17" y="353" type="line"/>
      <point x="26" y="426" type="line"/>
      <point x="56" y="451" type="line"/>
      <point x="210" y="451" type="line"/>
      <point x="179" y="197" type="line" smooth="yes"/>
      <point x="169" y="119"/>
      <point x="191" y="89"/>
      <point x="240" y="89" type="curve" smooth="yes"/>
      <point x="300" y="89"/>
      <point x="328" y="133"/>
      <point x="336" y="196" type="curve"/>
      <point x="336" y="195" type="line"/>
      <point x="367" y="451" type="line"/>
      <point x="491" y="451" type="line"/>
      <point x="448" y="98" type="line"/>
    </contour>
    <contour>
      <point x="176" y="634" type="line"/>
      <point x="439" y="634" type="line"/>
      <point x="429" y="536" type="line"/>
      <point x="166" y="536" type="line"/>
    </contour>
  </outline>
</glyph>
<glyph name="Ubreve" format="1">
  <advance width="690"/>
  <unicode hex="016C"/>
  <outline>
    <contour>
      <point x="454" y="650" type="line"/>
      <point x="703" y="650" type="line"/>
      <point x="691" y="536" type="line"/>
      <point x="635" y="536" type="line"/>
      <point x="607" y="269" type="line" smooth="yes"/>
      <point x="592" y="131"/>
      <point x="520" y="-10"/>
      <point x="320" y="-10" type="curve" smooth="yes"/>
      <point x="130" y="-10"/>
      <point x="65" y="118"/>
      <point x="80" y="258" type="curve" smooth="yes"/>
      <point x="109" y="536" type="line"/>
      <point x="54" y="536" type="line"/>
      <point x="66" y="650" type="line"/>
      <point x="323" y="650" type="line"/>
      <point x="311" y="536" type="line"/>
      <point x="238" y="536" type="line"/>
      <point x="209" y="262" type="line" smooth="yes"/>
      <point x="200" y="173"/>
      <point x="230" y="108"/>
      <point x="330" y="108" type="curve" smooth="yes"/>
      <point x="428" y="108"/>
      <point x="477" y="172"/>
      <point x="487" y="269" type="curve" smooth="yes"/>
      <point x="515" y="536" type="line"/>
      <point x="442" y="536" type="line"/>
    </contour>
    <contour>
      <point x="445" y="833" type="curve"/>
      <point x="545" y="833" type="line"/>
      <point x="535" y="738"/>
      <point x="476" y="695"/>
      <point x="393" y="695" type="curve" smooth="yes"/>
      <point x="306" y="695"/>
      <point x="261" y="741"/>
      <point x="271" y="833" type="curve"/>
      <point x="371" y="833" type="line"/>
      <point x="367" y="797"/>
      <point x="375" y="772"/>
      <point x="401" y="772" type="curve" smooth="yes"/>
      <point x="428" y="772"/>
      <point x="441" y="801"/>
    </contour>
  </outline>
</glyph>
<glyph name="Uring" format="1">
  <advance width="690"/>
  <unicode hex="016E"/>
  <outline>
    <contour>
      <point x="454" y="650" type="line"/>
      <point x="703" y="650" type="line"/>
      <point x="691" y="536" type="line"/>
      <point x="635" y="536" type="line"/>
      <point x="607" y="269" type="line" smooth="yes"/>
      <point x="592" y="131"/>
      <point x="520" y="-10"/>
      <point x="320" y="-10" type="curve" smooth="yes"/>
      <point x="130" y="-10"/>
      <point x="65" y="118"/>
      <point x="80" y="258" type="curve" smooth="yes"/>
      <point x="109" y="536" type="line"/>
      <point x="54" y="536" type="line"/>
      <point x="66" y="650" type="line"/>
      <point x="323" y="650" type="line"/>
      <point x="311" y="536" type="line"/>
      <point x="238" y="536" type="line"/>
      <point x="209" y="262" type="line" smooth="yes"/>
      <point x="200" y="173"/>
      <point x="230" y="108"/>
      <point x="330" y="108" type="curve" smooth="yes"/>
      <point x="428" y="108"/>
      <point x="477" y="172"/>
      <point x="487" y="269" type="curve" smooth="yes"/>
      <point x="515" y="536" type="line"/>
      <point x="442" y="536" type="line"/>
    </contour>
    <contour>
      <point x="394" y="689" type="curve" smooth="yes"/>
      <point x="472" y="689"/>
      <point x="508" y="736"/>
      <point x="508" y="792" type="curve" smooth="yes"/>
      <point x="508" y="841"/>
      <point x="481" y="873"/>
      <point x="415" y="873" type="curve" smooth="yes"/>
      <point x="339" y="873"/>
      <point x="301" y="830"/>
      <point x="301" y="771" type="curve" smooth="yes"/>
      <point x="301" y="719"/>
      <point x="331" y="689"/>
    </contour>
    <contour>
      <point x="400" y="749" type="curve" smooth="yes"/>
      <point x="382" y="749"/>
      <point x="380" y="759"/>
      <point x="380" y="773" type="curve" smooth="yes"/>
      <point x="380" y="801"/>
      <point x="388" y="813"/>
      <point x="408" y="813" type="curve" smooth="yes"/>
      <point x="427" y="813"/>
      <point x="430" y="802"/>
      <point x="430" y="788" type="curve" smooth="yes"/>
      <point x="430" y="763"/>
      <point x="421" y="749"/>
    </contour>
  </outline>
</glyph>
<glyph name="Uogonek" format="1">
  <advance width="690"/>
  <unicode hex="0172"/>
  <outline>
    <contour>
      <point x="66" y="650" type="line"/>
      <point x="323" y="650" type="line"/>
      <point x="311" y="536" type="line"/>
      <point x="238" y="536" type="line"/>
      <point x="209" y="262" type="line" smooth="yes"/>
      <point x="200" y="173"/>
      <point x="230" y="108"/>
      <point x="330" y="108" type="curve" smooth="yes"/>
      <point x="428" y="108"/>
      <point x="477" y="172"/>
      <point x="487" y="269" type="curve" smooth="yes"/>
      <point x="515" y="536" type="line"/>
      <point x="442" y="536" type="line"/>
      <point x="454" y="650" type="line"/>
      <point x="703" y="650" type="line"/>
      <point x="691" y="536" type="line"/>
      <point x="635" y="536" type="line"/>
      <point x="607" y="269" type="line" smooth="yes"/>
      <point x="594" y="148"/>
      <point x="537" y="26"/>
      <point x="390" y="-3" type="curve"/>
      <point x="349" y="-31"/>
      <point x="344" y="-61"/>
      <point x="344" y="-78" type="curve" smooth="yes"/>
      <point x="344" y="-110"/>
      <point x="360" y="-118"/>
      <point x="382" y="-118" type="curve" smooth="yes"/>
      <point x="397" y="-118"/>
      <point x="415" y="-114"/>
      <point x="428" y="-106" type="curve"/>
      <point x="428" y="-188" type="line"/>
      <point x="405" y="-199"/>
      <point x="375" y="-208"/>
      <point x="338" y="-208" type="curve" smooth="yes"/>
      <point x="278" y="-208"/>
      <point x="231" y="-184"/>
      <point x="231" y="-125" type="curve" smooth="yes"/>
      <point x="231" y="-78"/>
      <point x="261" y="-37"/>
      <point x="300" y="-9" type="curve"/>
      <point x="125" y="-1"/>
      <point x="65" y="123"/>
      <point x="80" y="258" type="curve"/>
      <point x="109" y="536" type="line"/>
      <point x="54" y="536" type="line"/>
    </contour>
  </outline>
</glyph>
<glyph name="uogonek" format="1">
  <advance width="543"/>
  <unicode hex="0173"/>
  <outline>
    <contour>
      <point x="333" y="0" type="line"/>
      <point x="328" y="87" type="line"/>
      <point x="298" y="29"/>
      <point x="250" y="-9"/>
      <point x="183" y="-9" type="curve" smooth="yes"/>
      <point x="102" y="-9"/>
      <point x="38" y="40"/>
      <point x="51" y="147" type="curve" smooth="yes"/>
      <point x="76" y="353" type="line"/>
      <point x="18" y="353" type="line"/>
      <point x="27" y="426" type="line"/>
      <point x="57" y="451" type="line"/>
      <point x="211" y="451" type="line"/>
      <point x="180" y="197" type="line" smooth="yes"/>
      <point x="170" y="119"/>
      <point x="192" y="89"/>
      <point x="241" y="89" type="curve" smooth="yes"/>
      <point x="301" y="89"/>
      <point x="329" y="133"/>
      <point x="337" y="196" type="curve"/>
      <point x="337" y="195" type="line"/>
      <point x="368" y="451" type="line"/>
      <point x="492" y="451" type="line"/>
      <point x="449" y="98" type="line"/>
      <point x="512" y="98" type="line"/>
      <point x="503" y="27" type="line"/>
      <point x="472" y="0" type="line"/>
      <point x="442" y="0" type="line"/>
      <point x="396" y="-29"/>
      <point x="391" y="-60"/>
      <point x="391" y="-78" type="curve" smooth="yes"/>
      <point x="391" y="-110"/>
      <point x="407" y="-118"/>
      <point x="429" y="-118" type="curve" smooth="yes"/>
      <point x="444" y="-118"/>
      <point x="462" y="-114"/>
      <point x="475" y="-106" type="curve"/>
      <point x="475" y="-188" type="line"/>
      <point x="452" y="-199"/>
      <point x="422" y="-208"/>
      <point x="385" y="-208" type="curve" smooth="yes"/>
      <point x="325" y="-208"/>
      <point x="278" y="-184"/>
      <point x="278" y="-125" type="curve" smooth="yes"/>
      <point x="278" y="-72"/>
      <point x="316" y="-27"/>
      <point x="363" y="0" type="curve"/>
    </contour>
  </outline>
</glyph>
<glyph name="Ydieresis" format="1">
  <advance width="621"/>
  <unicode hex="0178"/>
  <outline>
    <contour>
      <point x="639" y="536" type="line"/>
      <point x="585" y="536" type="line"/>
      <point x="374" y="254" type="line"/>
      <point x="360" y="114" type="line"/>
      <point x="461" y="114" type="line"/>
      <point x="449" y="0" type="line"/>
      <point x="123" y="0" type="line"/>
      <point x="135" y="114" type="line"/>
      <point x="231" y="114" type="line"/>
      <point x="245" y="256" type="line"/>
      <point x="87" y="536" type="line"/>
      <point x="32" y="536" type="line"/>
      <point x="44" y="650" type="line"/>
      <point x="302" y="650" type="line"/>
      <point x="290" y="536" type="line"/>
      <point x="238" y="536" type="line"/>
      <point x="326" y="372" type="line"/>
      <point x="332" y="372" type="line"/>
      <point x="452" y="536" type="line"/>
      <point x="393" y="536" type="line"/>
      <point x="405" y="650" type="line"/>
      <point x="651" y="650" type="line"/>
    </contour>
    <contour>
      <point x="384" y="705" type="line"/>
      <point x="511" y="705" type="line"/>
      <point x="525" y="839" type="line"/>
      <point x="398" y="839" type="line"/>
    </contour>
    <contour>
      <point x="203" y="705" type="line"/>
      <point x="330" y="705" type="line"/>
      <point x="344" y="839" type="line"/>
      <point x="217" y="839" type="line"/>
    </contour>
  </outline>
</glyph>
<glyph name="zdotaccent" format="1">
  <advance width="451"/>
  <unicode hex="017C"/>
  <outline>
    <contour>
      <point x="388" y="0" type="line"/>
      <point x="432" y="158" type="line"/>
      <point x="334" y="168" type="line"/>
      <point x="305" y="98" type="line"/>
      <point x="162" y="98" type="line"/>
      <point x="434" y="383" type="line"/>
      <point x="419" y="451" type="line"/>
      <point x="58" y="451" type="line"/>
      <point x="27" y="293" type="line"/>
      <point x="117" y="283" type="line"/>
      <point x="143" y="353" type="line"/>
      <point x="270" y="353" type="line"/>
      <point x="-3" y="68" type="line"/>
      <point x="7" y="0" type="line"/>
    </contour>
    <contour>
      <point x="194" y="531" type="line"/>
      <point x="321" y="531" type="line"/>
      <point x="335" y="665" type="line"/>
      <point x="208" y="665" type="line"/>
    </contour>
  </outline>
</glyph>
<glyph name="Zcaron" format="1">
  <advance width="566"/>
  <unicode hex="017D"/>
  <outline>
    <contour>
      <point x="298" y="685" type="line"/>
      <point x="342" y="685" type="line"/>
      <point x="486" y="791" type="line"/>
      <point x="462" y="844" type="line"/>
      <point x="334" y="782" type="line"/>
      <point x="208" y="844" type="line"/>
      <point x="176" y="792" type="line"/>
    </contour>
    <contour>
      <point x="505" y="0" type="line"/>
      <point x="549" y="224" type="line"/>
      <point x="438" y="234" type="line"/>
      <point x="405" y="114" type="line"/>
      <point x="192" y="114" type="line"/>
      <point x="192" y="116" type="line"/>
      <point x="560" y="589" type="line"/>
      <point x="559" y="650" type="line"/>
      <point x="95" y="650" type="line"/>
      <point x="54" y="445" type="line"/>
      <point x="165" y="435" type="line"/>
      <point x="194" y="536" type="line"/>
      <point x="364" y="536" type="line"/>
      <point x="364" y="535" type="line"/>
      <point x="-2" y="69" type="line"/>
      <point x="1" y="0" type="line"/>
    </contour>
  </outline>
</glyph>
<glyph name="uni01C4" format="1">
  <advance width="1239"/>
  <unicode hex="01C4"/>
  <outline>
    <contour>
      <point x="363" y="650" type="line" smooth="yes"/>
      <point x="559" y="650"/>
      <point x="655" y="540"/>
      <point x="655" y="363" type="curve" smooth="yes"/>
      <point x="655" y="152"/>
      <point x="518" y="0"/>
      <point x="303" y="0" type="curve" smooth="yes"/>
      <point x="9" y="0" type="line"/>
      <point x="21" y="114" type="line"/>
      <point x="89" y="114" type="line"/>
      <point x="133" y="536" type="line"/>
      <point x="65" y="536" type="line"/>
      <point x="77" y="650" type="line"/>
    </contour>
    <contour>
      <point x="1178" y="0" type="line"/>
      <point x="1222" y="224" type="line"/>
      <point x="1111" y="234" type="line"/>
      <point x="1078" y="114" type="line"/>
      <point x="865" y="114" type="line"/>
      <point x="865" y="116" type="line"/>
      <point x="1233" y="589" type="line"/>
      <point x="1232" y="650" type="line"/>
      <point x="768" y="650" type="line"/>
      <point x="727" y="445" type="line"/>
      <point x="838" y="435" type="line"/>
      <point x="867" y="536" type="line"/>
      <point x="1037" y="536" type="line"/>
      <point x="1037" y="535" type="line"/>
      <point x="671" y="69" type="line"/>
      <point x="674" y="0" type="line"/>
    </contour>
    <contour>
      <point x="305" y="114" type="line" smooth="yes"/>
      <point x="441" y="114"/>
      <point x="517" y="196"/>
      <point x="517" y="350" type="curve" smooth="yes"/>
      <point x="517" y="479"/>
      <point x="464" y="536"/>
      <point x="349" y="536" type="curve" smooth="yes"/>
      <point x="261" y="536" type="line"/>
      <point x="217" y="114" type="line"/>
    </contour>
    <contour>
      <point x="971" y="685" type="line"/>
      <point x="1015" y="685" type="line"/>
      <point x="1159" y="791" type="line"/>
      <point x="1135" y="844" type="line"/>
      <point x="1007" y="782" type="line"/>
      <point x="881" y="844" type="line"/>
      <point x="849" y="792" type="line"/>
    </contour>
  </outline>
</glyph>
<glyph name="uni01C5" format="1">
  <advance width="1124"/>
  <unicode hex="01C5"/>
  <outline>
    <contour>
      <point x="363" y="650" type="line" smooth="yes"/>
      <point x="559" y="650"/>
      <point x="655" y="540"/>
      <point x="655" y="363" type="curve" smooth="yes"/>
      <point x="655" y="152"/>
      <point x="518" y="0"/>
      <point x="303" y="0" type="curve" smooth="yes"/>
      <point x="9" y="0" type="line"/>
      <point x="21" y="114" type="line"/>
      <point x="89" y="114" type="line"/>
      <point x="133" y="536" type="line"/>
      <point x="65" y="536" type="line"/>
      <point x="77" y="650" type="line"/>
    </contour>
    <contour>
      <point x="1061" y="0" type="line"/>
      <point x="1105" y="158" type="line"/>
      <point x="1007" y="168" type="line"/>
      <point x="978" y="98" type="line"/>
      <point x="835" y="98" type="line"/>
      <point x="1107" y="383" type="line"/>
      <point x="1092" y="451" type="line"/>
      <point x="731" y="451" type="line"/>
      <point x="700" y="293" type="line"/>
      <point x="790" y="283" type="line"/>
      <point x="816" y="353" type="line"/>
      <point x="943" y="353" type="line"/>
      <point x="670" y="68" type="line"/>
      <point x="680" y="0" type="line"/>
    </contour>
    <contour>
      <point x="305" y="114" type="line" smooth="yes"/>
      <point x="441" y="114"/>
      <point x="517" y="196"/>
      <point x="517" y="350" type="curve" smooth="yes"/>
      <point x="517" y="479"/>
      <point x="464" y="536"/>
      <point x="349" y="536" type="curve" smooth="yes"/>
      <point x="261" y="536" type="line"/>
      <point x="217" y="114" type="line"/>
    </contour>
    <contour>
      <point x="903" y="507" type="line"/>
      <point x="947" y="507" type="line"/>
      <point x="1093" y="633" type="line"/>
      <point x="1063" y="684" type="line"/>
      <point x="940" y="613" type="line"/>
      <point x="821" y="683" type="line"/>
      <point x="783" y="634" type="line"/>
    </contour>
  </outline>
</glyph>
<glyph name="uni01C8" format="1">
  <advance width="789"/>
  <unicode hex="01C8"/>
  <outline>
    <contour>
      <point x="482" y="0" type="line"/>
      <point x="526" y="230" type="line"/>
      <point x="418" y="240" type="line"/>
      <point x="386" y="114" type="line"/>
      <point x="217" y="114" type="line"/>
      <point x="261" y="536" type="line"/>
      <point x="352" y="536" type="line"/>
      <point x="364" y="650" type="line"/>
      <point x="75" y="650" type="line"/>
      <point x="63" y="536" type="line"/>
      <point x="132" y="536" type="line"/>
      <point x="88" y="114" type="line"/>
      <point x="19" y="114" type="line"/>
      <point x="7" y="0" type="line"/>
    </contour>
    <contour>
      <point x="559" y="424" type="line"/>
      <point x="590" y="451" type="line"/>
      <point x="759" y="451" type="line"/>
      <point x="705" y="16" type="line" smooth="yes"/>
      <point x="688" y="-120"/>
      <point x="642" y="-222"/>
      <point x="547" y="-222" type="curve" smooth="yes"/>
      <point x="506" y="-222"/>
      <point x="473" y="-210"/>
      <point x="447" y="-192" type="curve"/>
      <point x="452" y="-109" type="line"/>
      <point x="519" y="-135"/>
      <point x="564" y="-128"/>
      <point x="582" y="16" type="curve" smooth="yes"/>
      <point x="623" y="353" type="line"/>
      <point x="550" y="353" type="line"/>
    </contour>
    <contour>
      <point x="645" y="531" type="line"/>
      <point x="765" y="531" type="line"/>
      <point x="779" y="665" type="line"/>
      <point x="659" y="665" type="line"/>
    </contour>
  </outline>
</glyph>
<glyph name="uni01C9" format="1">
  <advance width="511"/>
  <unicode hex="01C9"/>
  <outline>
    <contour>
      <point x="47" y="661" type="line"/>
      <point x="78" y="688" type="line"/>
      <point x="236" y="688" type="line"/>
      <point x="164" y="98" type="line"/>
      <point x="222" y="98" type="line"/>
      <point x="213" y="25" type="line"/>
      <point x="183" y="0" type="line"/>
      <point x="28" y="0" type="line"/>
      <point x="100" y="590" type="line"/>
      <point x="38" y="590" type="line"/>
    </contour>
    <contour>
      <point x="281" y="424" type="line"/>
      <point x="312" y="451" type="line"/>
      <point x="481" y="451" type="line"/>
      <point x="427" y="16" type="line" smooth="yes"/>
      <point x="410" y="-120"/>
      <point x="364" y="-222"/>
      <point x="269" y="-222" type="curve" smooth="yes"/>
      <point x="228" y="-222"/>
      <point x="195" y="-210"/>
      <point x="169" y="-192" type="curve"/>
      <point x="174" y="-109" type="line"/>
      <point x="241" y="-135"/>
      <point x="286" y="-128"/>
      <point x="304" y="16" type="curve" smooth="yes"/>
      <point x="345" y="353" type="line"/>
      <point x="272" y="353" type="line"/>
    </contour>
    <contour>
      <point x="367" y="531" type="line"/>
      <point x="487" y="531" type="line"/>
      <point x="501" y="665" type="line"/>
      <point x="381" y="665" type="line"/>
    </contour>
  </outline>
</glyph>
<glyph name="uni01CB" format="1">
  <advance width="986"/>
  <unicode hex="01CB"/>
  <outline>
    <contour>
      <point x="23" y="114" type="line"/>
      <point x="91" y="114" type="line"/>
      <point x="135" y="536" type="line"/>
      <point x="57" y="536" type="line"/>
      <point x="69" y="650" type="line"/>
      <point x="239" y="650" type="line"/>
      <point x="514" y="264" type="line"/>
      <point x="517" y="264" type="line"/>
      <point x="545" y="536" type="line"/>
      <point x="455" y="536" type="line"/>
      <point x="467" y="650" type="line"/>
      <point x="745" y="650" type="line"/>
      <point x="733" y="536" type="line"/>
      <point x="665" y="536" type="line"/>
      <point x="609" y="0" type="line"/>
      <point x="537" y="-1" type="line"/>
      <point x="245" y="412" type="line"/>
      <point x="242" y="412" type="line"/>
      <point x="211" y="114" type="line"/>
      <point x="297" y="114" type="line"/>
      <point x="285" y="0" type="line"/>
      <point x="11" y="0" type="line"/>
    </contour>
    <contour>
      <point x="756" y="424" type="line"/>
      <point x="787" y="451" type="line"/>
      <point x="956" y="451" type="line"/>
      <point x="902" y="16" type="line" smooth="yes"/>
      <point x="885" y="-120"/>
      <point x="839" y="-222"/>
      <point x="744" y="-222" type="curve" smooth="yes"/>
      <point x="703" y="-222"/>
      <point x="670" y="-210"/>
      <point x="644" y="-192" type="curve"/>
      <point x="649" y="-109" type="line"/>
      <point x="716" y="-135"/>
      <point x="761" y="-128"/>
      <point x="779" y="16" type="curve" smooth="yes"/>
      <point x="820" y="353" type="line"/>
      <point x="747" y="353" type="line"/>
    </contour>
    <contour>
      <point x="842" y="531" type="line"/>
      <point x="962" y="531" type="line"/>
      <point x="976" y="665" type="line"/>
      <point x="856" y="665" type="line"/>
    </contour>
  </outline>
</glyph>
<glyph name="AEmacron" format="1">
  <advance width="917"/>
  <unicode hex="01E2"/>
  <outline>
    <contour>
      <point x="522" y="819" type="line"/>
      <point x="824" y="819" type="line"/>
      <point x="814" y="721" type="line"/>
      <point x="512" y="721" type="line"/>
    </contour>
    <contour>
      <point x="840" y="0" type="line"/>
      <point x="880" y="190" type="line"/>
      <point x="772" y="200" type="line"/>
      <point x="743" y="114" type="line"/>
      <point x="557" y="114" type="line"/>
      <point x="573" y="270" type="line"/>
      <point x="842" y="270" type="line"/>
      <point x="854" y="383" type="line"/>
      <point x="585" y="383" type="line"/>
      <point x="601" y="536" type="line"/>
      <point x="782" y="536" type="line"/>
      <point x="792" y="450" type="line"/>
      <point x="902" y="460" type="line"/>
      <point x="903" y="650" type="line"/>
      <point x="235" y="650" type="line"/>
      <point x="223" y="536" type="line"/>
      <point x="303" y="536" type="line"/>
      <point x="50" y="114" type="line"/>
      <point x="-12" y="114" type="line"/>
      <point x="-24" y="0" type="line"/>
      <point x="227" y="0" type="line"/>
      <point x="239" y="114" type="line"/>
      <point x="184" y="114" type="line"/>
      <point x="221" y="180" type="line"/>
      <point x="433" y="180" type="line"/>
      <point x="426" y="114" type="line"/>
      <point x="357" y="114" type="line"/>
      <point x="345" y="0" type="line"/>
    </contour>
    <contour>
      <point x="443" y="276" type="line"/>
      <point x="276" y="276" type="line"/>
      <point x="423" y="536" type="line"/>
      <point x="470" y="536" type="line"/>
    </contour>
  </outline>
</glyph>
<glyph name="Ymacron" format="1">
  <advance width="621"/>
  <unicode hex="0232"/>
  <outline>
    <contour>
      <point x="639" y="536" type="line"/>
      <point x="585" y="536" type="line"/>
      <point x="374" y="254" type="line"/>
      <point x="360" y="114" type="line"/>
      <point x="461" y="114" type="line"/>
      <point x="449" y="0" type="line"/>
      <point x="123" y="0" type="line"/>
      <point x="135" y="114" type="line"/>
      <point x="231" y="114" type="line"/>
      <point x="245" y="256" type="line"/>
      <point x="87" y="536" type="line"/>
      <point x="32" y="536" type="line"/>
      <point x="44" y="650" type="line"/>
      <point x="302" y="650" type="line"/>
      <point x="290" y="536" type="line"/>
      <point x="238" y="536" type="line"/>
      <point x="326" y="372" type="line"/>
      <point x="332" y="372" type="line"/>
      <point x="452" y="536" type="line"/>
      <point x="393" y="536" type="line"/>
      <point x="405" y="650" type="line"/>
      <point x="651" y="650" type="line"/>
    </contour>
    <contour>
      <point x="220" y="819" type="line"/>
      <point x="522" y="819" type="line"/>
      <point x="512" y="721" type="line"/>
      <point x="210" y="721" type="line"/>
    </contour>
  </outline>
</glyph>
<glyph name="schwa" format="1">
  <advance width="444"/>
  <unicode hex="0259"/>
  <outline>
    <contour>
      <point x="206" y="362" type="curve" smooth="yes"/>
      <point x="138" y="362"/>
      <point x="127" y="311"/>
      <point x="120" y="288" type="curve"/>
      <point x="19" y="308" type="line"/>
      <point x="33" y="387"/>
      <point x="106" y="460"/>
      <point x="225" y="460" type="curve" smooth="yes"/>
      <point x="332" y="460"/>
      <point x="419" y="400"/>
      <point x="419" y="258" type="curve" smooth="yes"/>
      <point x="419" y="114"/>
      <point x="329" y="-10"/>
      <point x="175" y="-10" type="curve" smooth="yes"/>
      <point x="79" y="-10"/>
      <point x="11" y="40"/>
      <point x="11" y="114" type="curve" smooth="yes"/>
      <point x="11" y="181"/>
      <point x="51" y="229"/>
      <point x="172" y="254" type="curve" smooth="yes"/>
      <point x="203" y="260"/>
      <point x="240" y="266"/>
      <point x="283" y="271" type="curve"/>
      <point x="280" y="329"/>
      <point x="259" y="362"/>
    </contour>
    <contour>
      <point x="237" y="189" type="curve" smooth="yes"/>
      <point x="157" y="174"/>
      <point x="141" y="149"/>
      <point x="141" y="122" type="curve" smooth="yes"/>
      <point x="141" y="89"/>
      <point x="166" y="77"/>
      <point x="192" y="77" type="curve" smooth="yes"/>
      <point x="248" y="77"/>
      <point x="273" y="134"/>
      <point x="281" y="196" type="curve"/>
      <point x="264" y="194"/>
      <point x="250" y="191"/>
    </contour>
  </outline>
</glyph>
<glyph name="circumflex" format="1">
  <advance width="331"/>
  <unicode hex="02C6"/>
  <outline>
    <contour>
      <point x="292" y="684" type="line"/>
      <point x="248" y="684" type="line"/>
      <point x="100" y="555" type="line"/>
      <point x="132" y="507" type="line"/>
      <point x="255" y="577" type="line"/>
      <point x="374" y="508" type="line"/>
      <point x="414" y="555" type="line"/>
    </contour>
  </outline>
</glyph>
<glyph name="caron" format="1">
  <advance width="331"/>
  <unicode hex="02C7"/>
  <outline>
    <contour>
      <point x="231" y="507" type="line"/>
      <point x="275" y="507" type="line"/>
      <point x="421" y="633" type="line"/>
      <point x="391" y="684" type="line"/>
      <point x="268" y="613" type="line"/>
      <point x="149" y="683" type="line"/>
      <point x="111" y="634" type="line"/>
    </contour>
  </outline>
</glyph>
<glyph name="breve" format="1">
  <advance width="391"/>
  <unicode hex="02D8"/>
  <outline>
    <contour>
      <point x="299" y="653" type="curve"/>
      <point x="399" y="653" type="line"/>
      <point x="389" y="558"/>
      <point x="327" y="515"/>
      <point x="245" y="515" type="curve" smooth="yes"/>
      <point x="160" y="515"/>
      <point x="116" y="561"/>
      <point x="126" y="653" type="curve"/>
      <point x="226" y="653" type="line"/>
      <point x="222" y="617"/>
      <point x="230" y="592"/>
      <point x="255" y="592" type="curve" smooth="yes"/>
      <point x="282" y="592"/>
      <point x="295" y="621"/>
    </contour>
  </outline>
</glyph>
<glyph name="dotaccent" format="1">
  <advance width="224"/>
  <unicode hex="02D9"/>
  <outline>
    <contour>
      <point x="95" y="531" type="line"/>
      <point x="222" y="531" type="line"/>
      <point x="236" y="665" type="line"/>
      <point x="109" y="665" type="line"/>
    </contour>
  </outline>
</glyph>
<glyph name="ring" format="1">
  <advance width="255"/>
  <unicode hex="02DA"/>
  <outline>
    <contour>
      <point x="181" y="514" type="curve" smooth="yes"/>
      <point x="259" y="514"/>
      <point x="295" y="561"/>
      <point x="295" y="617" type="curve" smooth="yes"/>
      <point x="295" y="666"/>
      <point x="268" y="698"/>
      <point x="202" y="698" type="curve" smooth="yes"/>
      <point x="126" y="698"/>
      <point x="88" y="655"/>
      <point x="88" y="596" type="curve" smooth="yes"/>
      <point x="88" y="544"/>
      <point x="118" y="514"/>
    </contour>
    <contour>
      <point x="187" y="574" type="curve"/>
      <point x="170" y="574"/>
      <point x="167" y="582"/>
      <point x="167" y="599" type="curve" smooth="yes"/>
      <point x="167" y="626"/>
      <point x="175" y="638"/>
      <point x="195" y="638" type="curve" smooth="yes"/>
      <point x="214" y="638"/>
      <point x="217" y="627"/>
      <point x="217" y="613" type="curve" smooth="yes"/>
      <point x="217" y="584"/>
      <point x="205" y="574"/>
    </contour>
  </outline>
</glyph>
<glyph name="tilde" format="1">
  <advance width="367"/>
  <unicode hex="02DC"/>
  <outline>
    <contour>
      <point x="139" y="515" type="line"/>
      <point x="150" y="544"/>
      <point x="166" y="558"/>
      <point x="188" y="558" type="curve" smooth="yes"/>
      <point x="227" y="558"/>
      <point x="257" y="517"/>
      <point x="307" y="517" type="curve" smooth="yes"/>
      <point x="372" y="517"/>
      <point x="395" y="589"/>
      <point x="401" y="647" type="curve"/>
      <point x="349" y="658" type="line"/>
      <point x="337" y="629"/>
      <point x="318" y="617"/>
      <point x="299" y="617" type="curve" smooth="yes"/>
      <point x="266" y="617"/>
      <point x="233" y="655"/>
      <point x="189" y="655" type="curve" smooth="yes"/>
      <point x="124" y="655"/>
      <point x="93" y="569"/>
      <point x="92" y="531" type="curve"/>
    </contour>
  </outline>
</glyph>
<glyph name="hungarumlaut" format="1">
  <advance width="421"/>
  <unicode hex="02DD"/>
  <outline>
    <contour>
      <point x="459" y="599" type="line"/>
      <point x="404" y="700" type="line"/>
      <point x="230" y="557" type="line"/>
      <point x="258" y="508" type="line"/>
    </contour>
    <contour>
      <point x="304" y="662" type="line"/>
      <point x="215" y="733" type="line"/>
      <point x="96" y="542" type="line"/>
      <point x="140" y="508" type="line"/>
    </contour>
  </outline>
</glyph>
<glyph name="dotbelowcmb" format="1">
  <advance width="816"/>
  <unicode hex="0323"/>
  <outline>
    <contour>
      <point x="47" y="-197" type="line"/>
      <point x="174" y="-197" type="line"/>
      <point x="188" y="-63" type="line"/>
      <point x="61" y="-63" type="line"/>
    </contour>
  </outline>
</glyph>
<glyph name="uni0394" format="1">
  <advance width="467"/>
  <unicode hex="0394"/>
  <outline>
    <contour>
      <point x="-37" y="0" type="line"/>
      <point x="444" y="0" type="line"/>
      <point x="278" y="661" type="line"/>
    </contour>
    <contour>
      <point x="113" y="98" type="line"/>
      <point x="247" y="394" type="line"/>
      <point x="314" y="98" type="line"/>
    </contour>
  </outline>
</glyph>
<glyph name="pi" format="1">
  <advance width="585"/>
  <unicode hex="03C0"/>
  <outline>
    <contour>
      <point x="10" y="98" type="line"/>
      <point x="68" y="98" type="line"/>
      <point x="94" y="353" type="line"/>
      <point x="32" y="353" type="line"/>
      <point x="42" y="451" type="line"/>
      <point x="582" y="451" type="line"/>
      <point x="572" y="353" type="line"/>
      <point x="505" y="353" type="line"/>
      <point x="479" y="98" type="line"/>
      <point x="538" y="98" type="line"/>
      <point x="528" y="0" type="line"/>
      <point x="284" y="0" type="line"/>
      <point x="294" y="98" type="line"/>
      <point x="353" y="98" type="line"/>
      <point x="379" y="353" type="line"/>
      <point x="221" y="353" type="line"/>
      <point x="195" y="98" type="line"/>
      <point x="254" y="98" type="line"/>
      <point x="244" y="0" type="line"/>
      <point x="0" y="0" type="line"/>
    </contour>
  </outline>
</glyph>
<glyph name="uni1E46" format="1">
  <advance width="732"/>
  <unicode hex="1E46"/>
  <outline>
    <contour>
      <point x="23" y="114" type="line"/>
      <point x="91" y="114" type="line"/>
      <point x="135" y="536" type="line"/>
      <point x="57" y="536" type="line"/>
      <point x="69" y="650" type="line"/>
      <point x="239" y="650" type="line"/>
      <point x="514" y="264" type="line"/>
      <point x="517" y="264" type="line"/>
      <point x="545" y="536" type="line"/>
      <point x="455" y="536" type="line"/>
      <point x="467" y="650" type="line"/>
      <point x="745" y="650" type="line"/>
      <point x="733" y="536" type="line"/>
      <point x="665" y="536" type="line"/>
      <point x="609" y="0" type="line"/>
      <point x="537" y="-1" type="line"/>
      <point x="245" y="412" type="line"/>
      <point x="242" y="412" type="line"/>
      <point x="211" y="114" type="line"/>
      <point x="297" y="114" type="line"/>
      <point x="285" y="0" type="line"/>
      <point x="11" y="0" type="line"/>
    </contour>
    <contour>
      <point x="268" y="-197" type="line"/>
      <point x="395" y="-197" type="line"/>
      <point x="409" y="-63" type="line"/>
      <point x="282" y="-63" type="line"/>
    </contour>
  </outline>
</glyph>
<glyph name="Wacute" format="1">
  <advance width="950"/>
  <unicode hex="1E82"/>
  <outline>
    <contour>
      <point x="965" y="536" type="line"/>
      <point x="914" y="536" type="line"/>
      <point x="687" y="0" type="line"/>
      <point x="596" y="0" type="line"/>
      <point x="493" y="420" type="line"/>
      <point x="488" y="420" type="line"/>
      <point x="304" y="0" type="line"/>
      <point x="211" y="0" type="line"/>
      <point x="85" y="536" type="line"/>
      <point x="31" y="536" type="line"/>
      <point x="43" y="650" type="line"/>
      <point x="291" y="650" type="line"/>
      <point x="279" y="536" type="line"/>
      <point x="222" y="536" type="line"/>
      <point x="282" y="222" type="line"/>
      <point x="288" y="222" type="line"/>
      <point x="432" y="536" type="line"/>
      <point x="383" y="536" type="line"/>
      <point x="395" y="650" type="line"/>
      <point x="644" y="650" type="line"/>
      <point x="632" y="536" type="line"/>
      <point x="587" y="536" type="line"/>
      <point x="664" y="216" type="line"/>
      <point x="670" y="216" type="line"/>
      <point x="785" y="536" type="line"/>
      <point x="719" y="536" type="line"/>
      <point x="731" y="650" type="line"/>
      <point x="977" y="650" type="line"/>
    </contour>
    <contour>
      <point x="664" y="716" type="line"/>
      <point x="638" y="833" type="line"/>
      <point x="428" y="745" type="line"/>
      <point x="441" y="688" type="line"/>
    </contour>
  </outline>
</glyph>
<glyph name="wacute" format="1">
  <advance width="735"/>
  <unicode hex="1E83"/>
  <outline>
    <contour>
      <point x="512" y="148" type="line"/>
      <point x="517" y="148" type="line"/>
      <point x="579" y="233"/>
      <point x="602" y="289"/>
      <point x="602" y="354" type="curve" smooth="yes"/>
      <point x="602" y="387"/>
      <point x="596" y="417"/>
      <point x="582" y="451" type="curve"/>
      <point x="721" y="451" type="line"/>
      <point x="736" y="370"/>
      <point x="722" y="283"/>
      <point x="651" y="189" type="curve" smooth="yes"/>
      <point x="617" y="144"/>
      <point x="543" y="57"/>
      <point x="485" y="0" type="curve"/>
      <point x="433" y="0" type="line"/>
      <point x="367" y="260" type="line"/>
      <point x="361" y="260" type="line"/>
      <point x="215" y="0" type="line"/>
      <point x="149" y="0" type="line"/>
      <point x="53" y="353" type="line"/>
      <point x="9" y="353" type="line"/>
      <point x="18" y="424" type="line"/>
      <point x="49" y="451" type="line"/>
      <point x="252" y="451" type="line"/>
      <point x="243" y="380" type="line"/>
      <point x="212" y="353" type="line"/>
      <point x="181" y="353" type="line"/>
      <point x="216" y="175" type="line"/>
      <point x="222" y="175" type="line"/>
      <point x="366" y="451" type="line"/>
      <point x="440" y="451" type="line"/>
    </contour>
    <contour>
      <point x="584" y="600" type="line"/>
      <point x="525" y="700" type="line"/>
      <point x="351" y="557" type="line"/>
      <point x="380" y="508" type="line"/>
    </contour>
  </outline>
</glyph>
<glyph name="Wdieresis" format="1">
  <advance width="950"/>
  <unicode hex="1E84"/>
  <outline>
    <contour>
      <point x="965" y="536" type="line"/>
      <point x="914" y="536" type="line"/>
      <point x="687" y="0" type="line"/>
      <point x="596" y="0" type="line"/>
      <point x="493" y="420" type="line"/>
      <point x="488" y="420" type="line"/>
      <point x="304" y="0" type="line"/>
      <point x="211" y="0" type="line"/>
      <point x="85" y="536" type="line"/>
      <point x="31" y="536" type="line"/>
      <point x="43" y="650" type="line"/>
      <point x="291" y="650" type="line"/>
      <point x="279" y="536" type="line"/>
      <point x="222" y="536" type="line"/>
      <point x="282" y="222" type="line"/>
      <point x="288" y="222" type="line"/>
      <point x="432" y="536" type="line"/>
      <point x="383" y="536" type="line"/>
      <point x="395" y="650" type="line"/>
      <point x="644" y="650" type="line"/>
      <point x="632" y="536" type="line"/>
      <point x="587" y="536" type="line"/>
      <point x="664" y="216" type="line"/>
      <point x="670" y="216" type="line"/>
      <point x="785" y="536" type="line"/>
      <point x="719" y="536" type="line"/>
      <point x="731" y="650" type="line"/>
      <point x="977" y="650" type="line"/>
    </contour>
    <contour>
      <point x="548" y="705" type="line"/>
      <point x="675" y="705" type="line"/>
      <point x="689" y="839" type="line"/>
      <point x="562" y="839" type="line"/>
    </contour>
    <contour>
      <point x="367" y="705" type="line"/>
      <point x="494" y="705" type="line"/>
      <point x="508" y="839" type="line"/>
      <point x="381" y="839" type="line"/>
    </contour>
  </outline>
</glyph>
<glyph name="uni1EBC" format="1">
  <advance width="569"/>
  <unicode hex="1EBC"/>
  <outline>
    <contour>
      <point x="251" y="698" type="line"/>
      <point x="261" y="724"/>
      <point x="275" y="731"/>
      <point x="296" y="731" type="curve" smooth="yes"/>
      <point x="341" y="731"/>
      <point x="369" y="700"/>
      <point x="417" y="700" type="curve" smooth="yes"/>
      <point x="484" y="700"/>
      <point x="506" y="762"/>
      <point x="512" y="820" type="curve"/>
      <point x="460" y="831" type="line"/>
      <point x="448" y="802"/>
      <point x="428" y="793"/>
      <point x="409" y="793" type="curve" smooth="yes"/>
      <point x="376" y="793"/>
      <point x="344" y="824"/>
      <point x="300" y="824" type="curve" smooth="yes"/>
      <point x="234" y="824"/>
      <point x="205" y="751"/>
      <point x="204" y="714" type="curve"/>
    </contour>
    <contour>
      <point x="497" y="0" type="line"/>
      <point x="8" y="0" type="line"/>
      <point x="20" y="114" type="line"/>
      <point x="89" y="114" type="line"/>
      <point x="133" y="536" type="line"/>
      <point x="64" y="536" type="line"/>
      <point x="76" y="650" type="line"/>
      <point x="559" y="650" type="line"/>
      <point x="559" y="460" type="line"/>
      <point x="449" y="450" type="line"/>
      <point x="439" y="536" type="line"/>
      <point x="261" y="536" type="line"/>
      <point x="245" y="383" type="line"/>
      <point x="517" y="383" type="line"/>
      <point x="505" y="270" type="line"/>
      <point x="233" y="270" type="line"/>
      <point x="217" y="114" type="line"/>
      <point x="400" y="114" type="line"/>
      <point x="429" y="200" type="line"/>
      <point x="537" y="190" type="line"/>
    </contour>
  </outline>
</glyph>
<glyph name="uni1EBD" format="1">
  <advance width="444"/>
  <unicode hex="1EBD"/>
  <outline>
    <contour>
      <point x="227" y="88" type="curve" smooth="yes"/>
      <point x="295" y="88"/>
      <point x="306" y="139"/>
      <point x="313" y="162" type="curve"/>
      <point x="414" y="142" type="line"/>
      <point x="400" y="63"/>
      <point x="327" y="-10"/>
      <point x="208" y="-10" type="curve" smooth="yes"/>
      <point x="101" y="-10"/>
      <point x="14" y="50"/>
      <point x="14" y="192" type="curve" smooth="yes"/>
      <point x="14" y="336"/>
      <point x="104" y="460"/>
      <point x="258" y="460" type="curve" smooth="yes"/>
      <point x="354" y="460"/>
      <point x="422" y="410"/>
      <point x="422" y="336" type="curve" smooth="yes"/>
      <point x="422" y="269"/>
      <point x="382" y="221"/>
      <point x="261" y="196" type="curve" smooth="yes"/>
      <point x="229" y="189"/>
      <point x="192" y="183"/>
      <point x="149" y="179" type="curve"/>
      <point x="153" y="121"/>
      <point x="173" y="88"/>
    </contour>
    <contour>
      <point x="170" y="515" type="line"/>
      <point x="181" y="544"/>
      <point x="197" y="558"/>
      <point x="219" y="558" type="curve" smooth="yes"/>
      <point x="258" y="558"/>
      <point x="288" y="517"/>
      <point x="338" y="517" type="curve" smooth="yes"/>
      <point x="403" y="517"/>
      <point x="426" y="589"/>
      <point x="432" y="647" type="curve"/>
      <point x="380" y="658" type="line"/>
      <point x="368" y="629"/>
      <point x="349" y="617"/>
      <point x="330" y="617" type="curve" smooth="yes"/>
      <point x="297" y="617"/>
      <point x="264" y="655"/>
      <point x="220" y="655" type="curve" smooth="yes"/>
      <point x="155" y="655"/>
      <point x="124" y="569"/>
      <point x="123" y="531" type="curve"/>
    </contour>
    <contour>
      <point x="196" y="261" type="curve" smooth="yes"/>
      <point x="276" y="276"/>
      <point x="292" y="301"/>
      <point x="292" y="328" type="curve" smooth="yes"/>
      <point x="292" y="361"/>
      <point x="267" y="373"/>
      <point x="241" y="373" type="curve" smooth="yes"/>
      <point x="185" y="373"/>
      <point x="160" y="315"/>
      <point x="152" y="254" type="curve"/>
      <point x="168" y="256"/>
      <point x="183" y="258"/>
    </contour>
  </outline>
</glyph>
<glyph name="Ygrave" format="1">
  <advance width="621"/>
  <unicode hex="1EF2"/>
  <outline>
    <contour>
      <point x="639" y="536" type="line"/>
      <point x="585" y="536" type="line"/>
      <point x="374" y="254" type="line"/>
      <point x="360" y="114" type="line"/>
      <point x="461" y="114" type="line"/>
      <point x="449" y="0" type="line"/>
      <point x="123" y="0" type="line"/>
      <point x="135" y="114" type="line"/>
      <point x="231" y="114" type="line"/>
      <point x="245" y="256" type="line"/>
      <point x="87" y="536" type="line"/>
      <point x="32" y="536" type="line"/>
      <point x="44" y="650" type="line"/>
      <point x="302" y="650" type="line"/>
      <point x="290" y="536" type="line"/>
      <point x="238" y="536" type="line"/>
      <point x="326" y="372" type="line"/>
      <point x="332" y="372" type="line"/>
      <point x="452" y="536" type="line"/>
      <point x="393" y="536" type="line"/>
      <point x="405" y="650" type="line"/>
      <point x="651" y="650" type="line"/>
    </contour>
    <contour>
      <point x="410" y="688" type="line"/>
      <point x="423" y="745" type="line"/>
      <point x="213" y="833" type="line"/>
      <point x="187" y="716" type="line"/>
    </contour>
  </outline>
</glyph>
<glyph name="quoteleft" format="1">
  <advance width="228"/>
  <unicode hex="2018"/>
  <outline>
    <contour>
      <point x="248" y="639" type="line"/>
      <point x="124" y="639" type="line"/>
      <point x="40" y="405" type="line"/>
      <point x="164" y="405" type="line"/>
    </contour>
  </outline>
</glyph>
<glyph name="quoteright" format="1">
  <advance width="221"/>
  <unicode hex="2019"/>
  <outline>
    <contour>
      <point x="45" y="496" type="line"/>
      <point x="169" y="496" type="line"/>
      <point x="253" y="730" type="line"/>
      <point x="129" y="730" type="line"/>
    </contour>
  </outline>
</glyph>
<glyph name="quotesinglbase" format="1">
  <advance width="221"/>
  <unicode hex="201A"/>
  <outline>
    <contour>
      <point x="-34" y="-85" type="line"/>
      <point x="90" y="-85" type="line"/>
      <point x="174" y="149" type="line"/>
      <point x="50" y="149" type="line"/>
    </contour>
  </outline>
</glyph>
<glyph name="quotedblbase" format="1">
  <advance width="396"/>
  <unicode hex="201E"/>
  <outline>
    <contour>
      <point x="-34" y="-85" type="line"/>
      <point x="90" y="-85" type="line"/>
      <point x="174" y="149" type="line"/>
      <point x="50" y="149" type="line"/>
    </contour>
    <contour>
      <point x="141" y="-85" type="line"/>
      <point x="265" y="-85" type="line"/>
      <point x="349" y="149" type="line"/>
      <point x="225" y="149" type="line"/>
    </contour>
  </outline>
</glyph>
<glyph name="dagger" format="1">
  <advance width="449"/>
  <unicode hex="2020"/>
  <outline>
    <contour>
      <point x="41" y="440" type="line"/>
      <point x="188" y="440" type="line"/>
      <point x="211" y="650" type="line"/>
      <point x="318" y="650" type="line"/>
      <point x="295" y="440" type="line"/>
      <point x="442" y="440" type="line"/>
      <point x="431" y="331" type="line"/>
      <point x="284" y="331" type="line"/>
      <point x="234" y="-141" type="line"/>
      <point x="127" y="-141" type="line"/>
      <point x="177" y="331" type="line"/>
      <point x="30" y="331" type="line"/>
    </contour>
  </outline>
</glyph>
<glyph name="daggerdbl" format="1">
  <advance width="472"/>
  <unicode hex="2021"/>
  <outline>
    <contour>
      <point x="24" y="160" type="line"/>
      <point x="171" y="160" type="line"/>
      <point x="189" y="331" type="line"/>
      <point x="42" y="331" type="line"/>
      <point x="54" y="440" type="line"/>
      <point x="201" y="440" type="line"/>
      <point x="223" y="650" type="line"/>
      <point x="330" y="650" type="line"/>
      <point x="308" y="440" type="line"/>
      <point x="455" y="440" type="line"/>
      <point x="443" y="331" type="line"/>
      <point x="296" y="331" type="line"/>
      <point x="278" y="160" type="line"/>
      <point x="425" y="160" type="line"/>
      <point x="414" y="51" type="line"/>
      <point x="267" y="51" type="line"/>
      <point x="247" y="-141" type="line"/>
      <point x="140" y="-141" type="line"/>
      <point x="160" y="51" type="line"/>
      <point x="13" y="51" type="line"/>
    </contour>
  </outline>
</glyph>
<glyph name="guilsinglleft" format="1">
  <advance width="293"/>
  <unicode hex="2039"/>
  <outline>
    <contour>
      <point x="238" y="25" type="line"/>
      <point x="149" y="271" type="line"/>
      <point x="289" y="511" type="line"/>
      <point x="184" y="511" type="line"/>
      <point x="24" y="271" type="line"/>
      <point x="133" y="25" type="line"/>
    </contour>
  </outline>
</glyph>
<glyph name="guilsinglright" format="1">
  <advance width="294"/>
  <unicode hex="203A"/>
  <outline>
    <contour>
      <point x="108" y="25" type="line"/>
      <point x="269" y="271" type="line"/>
      <point x="159" y="511" type="line"/>
      <point x="54" y="511" type="line"/>
      <point x="144" y="271" type="line"/>
      <point x="3" y="25" type="line"/>
    </contour>
  </outline>
</glyph>
<glyph name="uni203D" format="1">
  <advance width="727"/>
  <unicode hex="203D"/>
  <outline>
    <contour>
      <point x="480" y="547" type="curve" smooth="yes"/>
      <point x="509" y="547"/>
      <point x="572" y="539"/>
      <point x="572" y="487" type="curve" smooth="yes"/>
      <point x="572" y="392"/>
      <point x="363" y="392"/>
      <point x="334" y="248" type="curve"/>
      <point x="413" y="217" type="line"/>
      <point x="466" y="342"/>
      <point x="723" y="323"/>
      <point x="723" y="502" type="curve" smooth="yes"/>
      <point x="723" y="619"/>
      <point x="613" y="654"/>
      <point x="495" y="654" type="curve" smooth="yes"/>
      <point x="450" y="654"/>
      <point x="403" y="649"/>
      <point x="363" y="638" type="curve"/>
      <point x="309" y="490" type="line"/>
      <point x="400" y="464" type="line"/>
      <point x="438" y="541" type="line"/>
      <point x="451" y="545"/>
      <point x="465" y="547"/>
    </contour>
    <contour>
      <point x="195" y="653" type="line"/>
      <point x="313" y="243" type="line"/>
      <point x="225" y="203" type="line"/>
      <point x="52" y="586" type="line"/>
    </contour>
    <contour>
      <point x="228" y="0" type="line"/>
      <point x="376" y="0" type="line"/>
      <point x="392" y="145" type="line"/>
      <point x="244" y="145" type="line"/>
    </contour>
  </outline>
</glyph>
<glyph name="fraction" format="1">
  <advance width="160"/>
  <unicode hex="2044"/>
  <outline>
    <contour>
      <point x="344" y="650" type="line"/>
      <point x="123" y="325" type="line"/>
      <point x="-89" y="0" type="line"/>
      <point x="-175" y="0" type="line"/>
      <point x="54" y="337" type="line"/>
      <point x="258" y="650" type="line"/>
    </contour>
  </outline>
</glyph>
<glyph name="zerosuperior" format="1">
  <advance width="383"/>
  <unicode hex="2070"/>
  <outline>
    <contour>
      <point x="57" y="567" type="curve" smooth="yes"/>
      <point x="57" y="662"/>
      <point x="100" y="785"/>
      <point x="243" y="785" type="curve" smooth="yes"/>
      <point x="362" y="785"/>
      <point x="393" y="700"/>
      <point x="393" y="620" type="curve" smooth="yes"/>
      <point x="393" y="510"/>
      <point x="335" y="409"/>
      <point x="203" y="409" type="curve" smooth="yes"/>
      <point x="94" y="409"/>
      <point x="57" y="479"/>
    </contour>
    <contour>
      <point x="163" y="574" type="curve" smooth="yes"/>
      <point x="163" y="525"/>
      <point x="172" y="487"/>
      <point x="212" y="487" type="curve" smooth="yes"/>
      <point x="267" y="487"/>
      <point x="286" y="556"/>
      <point x="286" y="622" type="curve" smooth="yes"/>
      <point x="286" y="675"/>
      <point x="274" y="707"/>
      <point x="236" y="707" type="curve" smooth="yes"/>
      <point x="189" y="707"/>
      <point x="163" y="658"/>
    </contour>
  </outline>
</glyph>
<glyph name="i.superior" format="1">
  <advance width="199"/>
  <unicode hex="2071"/>
  <outline>
    <contour>
      <point x="61" y="690" type="line"/>
      <point x="83" y="709" type="line"/>
      <point x="193" y="709" type="line"/>
      <point x="165" y="488" type="line"/>
      <point x="201" y="488" type="line"/>
      <point x="195" y="433" type="line"/>
      <point x="173" y="415" type="line"/>
      <point x="67" y="415" type="line"/>
      <point x="95" y="637" type="line"/>
      <point x="54" y="637" type="line"/>
    </contour>
    <contour>
      <point x="113" y="760" type="line"/>
      <point x="202" y="760" type="line"/>
      <point x="212" y="855" type="line"/>
      <point x="123" y="855" type="line"/>
    </contour>
  </outline>
</glyph>
<glyph name="fivesuperior" format="1">
  <advance width="333"/>
  <unicode hex="2075"/>
  <outline>
    <contour>
      <point x="341" y="541" type="curve" smooth="yes"/>
      <point x="341" y="625"/>
      <point x="271" y="647"/>
      <point x="192" y="647" type="curve" smooth="yes"/>
      <point x="174" y="647" type="line"/>
      <point x="180" y="704" type="line"/>
      <point x="245" y="704" type="line"/>
      <point x="247" y="663" type="line"/>
      <point x="330" y="671" type="line"/>
      <point x="332" y="779" type="line"/>
      <point x="97" y="779" type="line"/>
      <point x="78" y="599" type="line"/>
      <point x="105" y="573" type="line"/>
      <point x="124" y="574"/>
      <point x="145" y="576"/>
      <point x="163" y="576" type="curve" smooth="yes"/>
      <point x="203" y="576"/>
      <point x="235" y="566"/>
      <point x="235" y="529" type="curve" smooth="yes"/>
      <point x="235" y="500"/>
      <point x="215" y="483"/>
      <point x="181" y="483" type="curve" smooth="yes"/>
      <point x="145" y="483"/>
      <point x="126" y="501"/>
      <point x="118" y="532" type="curve"/>
      <point x="43" y="507" type="line"/>
      <point x="49" y="435"/>
      <point x="109" y="408"/>
      <point x="179" y="408" type="curve" smooth="yes"/>
      <point x="275" y="408"/>
      <point x="341" y="459"/>
    </contour>
  </outline>
</glyph>
<glyph name="minussuperior" format="1">
  <advance width="299"/>
  <unicode hex="207B"/>
  <outline>
    <contour>
      <point x="66" y="567" type="line"/>
      <point x="293" y="567" type="line"/>
      <point x="299" y="628" type="line"/>
      <point x="72" y="628" type="line"/>
    </contour>
  </outline>
</glyph>
